<svg id="Layer_1" data-name="Layer 1" xmlns="http://www.w3.org/2000/svg" viewBox="0 0 565.12 224.14"><defs><style>.cls-1{fill:#393939;}</style></defs><title>mixily-logo-rev01</title><path class="cls-1" d="M362.1,152.54h26.53c6.87,0,11.68,4.84,11.68,11.73q0,45.14,0,90.25a11.25,11.25,0,0,1-9.53,11.18c-6,.76-11.32-2.68-12.73-8.37a16.12,16.12,0,0,1-.4-3.86q0-33.72,0-67.44a31.38,31.38,0,0,0-.64-6.85,7.68,7.68,0,0,0-7.26-6.2c-2.49-.21-5-.2-7.5-.19h-.69c-6.64,0-9.81.07-16.45.1-3.36,0-5.68,2-7.63,4.33-8.33,10.08-16.59,20.24-24.87,30.36-.12.15-.22.32-.4.59l7.33,9.22q11.87,14.9,23.72,29.81A11.38,11.38,0,1,1,325,260.81q-12.48-17.51-24.89-35.05c-.27-.38-.57-.74-1-1.3L295.24,230q-11.07,15.57-22.15,31.15a10.88,10.88,0,0,1-9.26,4.74H216.32c-2.69,0-5.4.12-8.07-.14a11,11,0,0,1-10.15-11.29V164.16c0-6.49,4.85-11.6,11.06-11.66a11.31,11.31,0,0,1,11.61,11.59c0,12,0,24.06,0,36.1,0,11.74,0,23.48.08,35.23a14.28,14.28,0,0,0,.65,4.1c1.12,3.68,3.94,5.84,8.16,5.9l12.56.09,10,0a8.64,8.64,0,0,0,6.5-3.35Q264,236,269,229.71c5.57-6.93,11.07-13.93,16.59-20.91.17-.22.32-.47.5-.74l-12.21-15c-5.95-7.32-11.92-14.61-17.83-22A11.35,11.35,0,1,1,274,157.18C282,168,289.81,178.86,297.71,189.7l1.4,1.87c1.51-2.06,2.94-4,4.34-5.9q10.26-14,20.5-28.08a11.62,11.62,0,0,1,10-5.06H362.1Z" transform="translate(-23.74 -89.85)"/><path class="cls-1" d="M166.29,220.4c0,11.31,0,22.62,0,33.93a11.26,11.26,0,0,1-7.76,11c-6.87,2.07-13.71-3.22-13.85-10.78-.07-4.23,0-8.47,0-12.7,0-16.75,0-33.5,0-50.25a45.59,45.59,0,0,0-.88-8.73c-1.18-5.81-4.83-9.52-10.56-11a31.24,31.24,0,0,0-15-.23c-6.77,1.53-10.66,5.71-11.67,12.64a65.81,65.81,0,0,0-.6,9.2c-.06,18.44,0,36.87,0,55.31A11.11,11.11,0,0,1,97,259.92a10.85,10.85,0,0,1-12.75-9.85c-.06-.82-.06-1.64-.06-2.46,0-17.52,0-35,0-52.56A89.31,89.31,0,0,0,83.69,185c-.91-7.64-5.24-12.1-12.83-13.52a33.14,33.14,0,0,0-13,.13c-7,1.48-11.19,6.23-12,13.71-.33,3.24-.4,6.53-.41,9.79q0,29.25,0,58.49c0,3.63-1,6.86-3.7,9.36A9.91,9.91,0,0,1,31,265.1c-4.09-1.51-6.37-4.64-7.08-8.91a17.28,17.28,0,0,1-.18-2.88c0-19.2,0-38.41,0-57.61,0-7.18.34-14.33,2.17-21.33C29,162.65,36.39,155.28,48.1,152.52c12.4-2.92,24.8-2.84,37,1.11A27,27,0,0,1,94,158.57c.57.48,1,.74,1.73.15,5.76-4.71,12.59-6.74,19.8-7.56a73.9,73.9,0,0,1,26.09,1.27c13.11,3.22,20.53,11.72,23.15,24.75a100.1,100.1,0,0,1,1.49,19.39C166.32,204.52,166.3,212.46,166.29,220.4Z" transform="translate(-23.74 -89.85)"/><path class="cls-1" d="M537.44,234.25c1-2.49,1.84-4.61,2.68-6.73,8.85-22.37,17.76-44.72,26.52-67.13,2.65-6.79,8.68-8.89,13.9-7.5A11.21,11.21,0,0,1,588,168c-4.2,9.85-8.62,19.62-13,29.41Q558.4,235,541.77,272.53c-4.27,9.63-9.35,18.77-16.6,26.54-7,7.53-15.4,12.74-25.7,14.34a39.37,39.37,0,0,1-9.75.44c-5.69-.55-9.22-5.11-8.92-10.81a10,10,0,0,1,10.08-9.54c10.7.06,18.35-5,24.14-13.58,4-5.89,6.67-12.43,9.57-18.87a6.92,6.92,0,0,0,0-6.19q-18.82-43-37.47-86.15a11.4,11.4,0,0,1,4-14.31A11.2,11.2,0,0,1,505.53,156a13.45,13.45,0,0,1,2.42,4q14.41,36.21,28.72,72.46C536.85,232.94,537.07,233.4,537.44,234.25Z" transform="translate(-23.74 -89.85)"/><path class="cls-1" d="M431.66,170q0-34,0-68c0-4.7,1.77-8.32,5.85-10.68a11.31,11.31,0,0,1,16.76,9.17c0,.77,0,1.54,0,2.31v134.3c0,5.17,2.53,7.84,7.66,8.1a10.22,10.22,0,0,1,9.6,9.74c.12,5.77-3.76,10.49-9.24,10.74-8.54.39-16.49-1.34-22.87-7.56-4.51-4.4-6.61-10-7.37-16.08a62,62,0,0,1-.39-7.34Q431.64,202.34,431.66,170Z" transform="translate(-23.74 -89.85)"/><path class="cls-1" d="M223.64,120.75a45.8,45.8,0,0,1-.65,4.7c-1.33,5.39-5.35,8.65-11.28,9a26.41,26.41,0,0,1-6.59-.34c-5.11-1-8.37-4.51-9.26-9.79a21.92,21.92,0,0,1,.46-9.29,10.25,10.25,0,0,1,8.43-7.9,23.46,23.46,0,0,1,9.73,0c5.45,1.16,8.56,5.15,9,11.39,0,.72,0,1.44,0,2.16Z" transform="translate(-23.74 -89.85)"/><path class="cls-1" d="M402.62,120.62a45.24,45.24,0,0,1-.75,5.11c-1.36,5.21-5.4,8.39-11.22,8.74a26.94,26.94,0,0,1-6.59-.35,11.12,11.12,0,0,1-9.31-10.65,31.39,31.39,0,0,1,.58-8.43c.91-4.36,3.91-6.93,8.24-7.87a22.7,22.7,0,0,1,10,0c5.22,1.19,8.22,4.9,8.73,10.64.08.91.11,1.83.16,2.74Z" transform="translate(-23.74 -89.85)"/></svg>