<svg xmlns="http://www.w3.org/2000/svg" viewBox="0 0 803.25 462.75"><defs><style>.cls-1,.cls-2{fill:#fff;}.cls-2{font-size:86px;font-family:Courier-Bold, Courier;font-weight:700;}</style></defs><title>Asset 1</title><g id="Layer_2" data-name="Layer 2"><g id="Layer_1-2" data-name="Layer 1"><path class="cls-1" d="M528.71,15.22A15.22,15.22,0,0,0,513.49,0H290.26A15.22,15.22,0,0,0,275,15.22V164.89H528.71Zm-25.37,124.3H300.41V25.37H503.35Zm25.37,38.05H275c-2.5,4.72-25.37,58.12-25.37,63.39a12.71,12.71,0,0,0,12.71,12.71h279A12.71,12.71,0,0,0,554.08,241C554.08,235.69,531.21,182.29,528.71,177.57ZM373.61,241l5.92-12.68h44.68L430.14,241Z"/><text class="cls-2" transform="translate(14.56 356.84)">&lt;SideProjects/&gt;</text></g></g></svg>