<svg height="395" viewBox="0 0 799 395" width="799" xmlns="http://www.w3.org/2000/svg"><g fill="#291f4f" fill-rule="evenodd"><path d="m291.593048 21.9697638c-12.972586 4.379229-22.180335 9.7138769-22.099138 21.3006998.035186 5.0044465 2.798593 8.4472026 6.801609 9.9737076zm-80.534091 116.9860422c-.016116-2.31953 1.567227-4.292619 3.618807-4.63906 20.283029-3.410277 27.531222-10.980551 33.832115-23.882767l24.185903-49.7467424c-.801145-.4736496-1.715965-.8092642-2.519816-1.407416-5.042339-2.9393342-7.932955-8.4363763-7.97626-14.7832811-.143448-20.7377335 19.660519-27.7315084 34.121718-31.9916483 4.622821-7.98437927 8.931679-11.39736307 14.859066-12.39338055 3.645748-.61439121 7.424119 1.31539265 7.459542 6.07624792.051187 7.44035883-8.260687 10.06031783-17.939379 12.90762863-.562966 1.1935971-1.236902 2.4061401-1.910837 3.8622743l-16.761784 34.5737154c-.224645.4059854-.338321.7903182-.676642 1.2152496l-26.435062 54.5157175c-8.661021 17.579167-19.560375 25.393032-40.18714 28.862854-2.051579.343734-3.656575-1.09616-3.670231-3.169392z"/><path d="m296.510614 107.247806c-1.729498-2.882496-1.529212-6.947763.381626-11.0563356l7.535089-15.4328577c1.916251-3.8649809 1.900011-6.1818041 1.437188-7.0803851-.576499-.760546-1.718672-.9310598-3.312841-.6631095-10.485249 1.7619766-21.850133 24.6784983-30.17554 41.5864359l.002706.246298c-1.128639 1.778216-3.288481 2.87167-5.007153 2.059699-1.713258-.687468-2.416966-3.012411-1.402003-5.015272l20.586166-42.1737622c1.012257-2.0001547 3.288482-2.9961721 5.004446-2.1869079.801145.3545605 1.377644 1.1123999 1.610409 1.9297838 3.06113-2.3465955 6.135793-3.8433283 9.324131-4.379229 4.330511-.7280671 7.762441.5304876 9.497352 3.656575 1.496732 2.3141167 2.555001 6.9017516-1.152999 14.853652l-7.651471 15.4490971c-.673936 1.4588412-.895875 2.5928932-.433051 3.2478832.343734.554847 1.602289 1.196304 4.111278.774079 4.557863-.763253 8.384952-8.3714189 12.769594-17.5331558 1.012257-2.0028612 3.174806-2.9745195 5.007153-2.1814948 1.713259.8092642 2.416967 3.0069985 1.402003 5.0098597-5.17496 10.8858214-10.349921 21.1599579-19.124618 22.6350389-4.785215.806557-8.560879-.636044-10.409465-3.745892"/><path d="m343.592739 86.2640452c4.72567-9.4621661 4.325097-17.944554 1.004137-19.5820284-.684762-.3762131-1.372231-.5034219-2.284345-.3491474-5.239918.8796349-10.552913 8.368712-12.913041 13.0402505-4.842053 9.481112-4.44148 17.8417044-1.006844 19.4629393.684762.3735066 1.369524.5007153 2.281638.3464409 3.304721-.6766423 8.750338-4.888064 12.918455-12.9184549zm8.996636-2.1192437c-2.814832 5.4780961-3.128794 9.3187178-2.208561 10.7504929.119089.2219387.46553.898581 2.289758.5927387 4.555156-.7659591 8.265862-8.5960639 12.766887-17.6576577 1.012257-1.9974481 3.174806-2.9745195 4.890771-2.287051 1.832347.7930248 2.416966 3.1342072 1.402002 5.1370684-5.172253 10.8858215-10.233538 21.1410122-19.008235 22.6160922-3.875807.649577-6.961296-.660403-8.696207-3.5456054-.116383-.3491474-.346441-.7984379-.462824-1.1421722-4.076093 4.7121366-8.615009 7.6731236-12.834551 8.3822446-2.276225.384333-4.333217.119089-6.165565-.793024-7.443065-3.756719-7.987085-16.8538071-1.464254-30.0429189 4.054441-7.8842362 9.946642-14.1282914 15.744114-16.5696168 3.526659-1.5698102 6.836794-1.6374744 9.583961-.2679504 2.51711 1.1665313 4.246607 3.8054363 5.180374 6.823261l20.139581-41.248115c1.009551-2.0001547 3.283069-2.9934656 4.999034-2.305997 1.718671.8092642 2.419673 3.1369137 1.407416 5.1370684z"/><path d="m388.351545 42.5913854c-5.811004.9770715-5.881375-8.7801106-.067665-9.7571821 6.038356-1.0149635 6.106021 8.7422186.067665 9.7571821m2.749874 34.833546c-5.28593 10.9020608-10.466303 21.1789042-19.238294 22.6512776-3.759425.636044-6.853033-.6793486-8.582531-3.5618449-2.42238-4.1139852-1.67266-10.8343966 2.154429-18.4398561l11.473147-23.4226501c.898581-1.9812087 3.172099-3.0963152 5.007153-2.305997 1.718672.8092642 2.30329 3.1558597 1.407416 5.258864l-11.481267 23.3008545c-2.814832 5.4835093-3.128794 9.3214244-2.319529 10.6530565.343734.3058423.690175.9797781 2.289757.7091211 4.668832-.784905 8.379538-8.6123033 12.877857-17.6766036.89858-1.9785021 3.177512-2.971813 4.89077-2.2843444 1.718672.8119707 2.533349 3.1152611 1.521092 5.1181224"/><path d="m392.324247 72.9477245c12.295944-3.5347794 17.378881-10.9832579 18.263929-14.7968139.332908-1.5210919.100143-2.4575649-.246298-2.6443182-.91482-.332908-1.826934-.4276379-2.963693-.2354715-6.728531 1.1313459-12.934694 10.8479295-15.053938 17.6766036m-6.725825 17.2489658c-4.040907-6.6500406-1.261261-17.3734679 2.449446-25.2008661 2.923094-5.8651356 6.996481-10.9480726 11.654487-14.2960987 4.990913-3.5239532 10.122569-4.3873487 14.23926-2.6361985 3.320961 1.6374744 4.833933 5.900321 3.61327 10.8695821-1.994741 8.6447821-11.056335 18.4696284-26.657 22.1911611.010826 1.583343.359974 2.990759.93918 4.1139852 1.383056 2.2112671 4.357576 2.9339211 8.915439 2.167962 7.862583-1.3208058 16.239415-10.4257047 20.518501-18.9622241 1.00955-2.1192437 3.172099-3.0963151 4.890771-2.2843444 1.82964.7930248 2.416966 3.009705 1.404709 5.1370684-5.177667 10.6395237-15.592545 22.0395933-26.75985 23.9179523-9.232108 1.5508642-13.362332-1.9081313-15.208213-5.0179793"/><path d="m28.9700344 331.660558c-17.0865715 3.702586-30.76015929-24.970808-28.77895061-66.94699.97707149-23.465956 3.6322159-43.104822 8.46614855-68.167653 14.50450446-73.672814 28.70857986-100.7655724 39.98414726-107.7918261 13.4733016-8.6366625 22.6864633 11.4731471 22.6972895 13.3758651.0162395 3.047597-1.6185284 7.213007-4.8853574 15.167614-20.1504079 50.112129-27.344469 97.801879-29.5611492 147.838224 24.2941655-49.486911 42.1060976-123.879673 41.0126436-122.117697 1.9108379-3.846035 11.806055-10.569152 17.3193365-11.760043 35.5534934-7.716429-9.3945018 49.308278 6.5444844 140.384333 25.141322-45.478483 45.722074-118.561265 45.229478-210.7037081-.035185-6.4741136 1.312686-12.1037776 13.164753-14.6750184 12.128137-2.6307853 17.998686 11.7248579 18.951398 35.1529212 2.847311 68.3787653-33.902486 213.2018713-69.615667 242.6818233-6.041063 5.123536-12.1037779 6.817848-17.9120754 4.265553-18.529173-8.176545-22.2588254-34.8146-25.3767931-50.150021-6.8178479 15.200093-20.1585277 48.593744-37.7972393 52.420833z"/><path d="m225.809342 209.476279c-10.092797-14.241967-34.511465 24.364536-35.342381 51.798322-.833624 26.992615 11.164598 21.484746 14.607354 18.063643 11.345938-11.511039 29.176816-58.396938 20.735027-69.861965zm-3.445463-26.056142c19.167923-1.258555 27.625952 12.385261 28.570545 31.006457 1.659127 33.128407-19.82562 82.812899-44.631327 95.060124-5.691915 2.701157-11.397363 3.661989-17.121757 2.002862-6.336078-1.772803-23.955844-12.785833-22.95712-45.703128 1.494026-49.162124 31.466574-80.83981 55.936666-82.550362z"/><path d="m280.497197 242.645014c1.223369-.202993 10.967018-7.080385 15.427444-11.10776 10.341801-9.15903 25.912694-28.592197 18.098829-37.762054-1.851294-2.086765-10.027839-4.644473-13.289255-4.095039-1.423656.238178-2.433206 1.935197-4.436067 7.077678-.603565 1.407416-16.818621 46.057689-16.206937 45.955017zm47.559834 33.491088c.871516 8.371418-7.640645 16.133859-11.310753 16.531725-1.01767.17322-3.472528-.725361-5.318408-1.943317-15.982291-10.195646-41.873333-8.027684-42.685303-7.237366-2.23292 1.46696-1.721378 16.667053-8.241504 17.760507-2.444032.414105-13.492247-4.284499-13.560395-14.312338-.037409-5.237211 2.149499-13.681707 6.932007-29.986081 20.523915-70.703708 26.724665-58.865174 12.463752-56.467153-5.299463.890461-9.08054-14.845533-5.437498-19.173337 3.846035-4.357576 20.326335-10.623284 37.247806-12.155202 21.200556-1.818815 43.269922 3.643042 43.448556 29.379809.227351 32.930828-34.895798 57.176275-40.382013 60.283416 19.609094 3.908286 26.18335 10.661176 26.843753 17.319337z"/><path d="m379.688629 132.957507c9.370142-1.57793 14.929435 6.005877 14.970191 11.673433.021496 3.055717-2.178945 9.53795-15.378883 47.567954-8.000619 23.179059-14.975448 46.842594-17.340989 59.027569-4.912424 26.811274 3.910992 34.281405-8.328114 34.590774-12.239106.09391-17.192128-8.025797-17.893129-21.00921-1.418242-28.14832 17.820052-78.111588 30.852182-111.304953 7.215714-18.464215 7.819279-19.655106 13.321734-20.580753z"/><path d="m407.963616 240.652167c5.65673-7.938367 26.589336-48.791323 26.564998-52.063566-.008141-1.529211-4.514579-4.043614-6.549919-3.702586-18.539999 3.553725-40.62831 84.125585-20.218072 55.801338zm77.548622-183.088582c4.281792-.0676642 12.469164 3.5807911 12.49623 7.0695589 0 0-57.040947 170.0347991-59.476859 200.7949581-.365387 6.395623-.974365 6.714998-6.687933 7.020841-11.622008.641456-15.543827-6.12226-17.037853-15.698102-7.897769 8.755751-15.00522 13.440823-20.910954 14.650659-12.831845 2.592894-19.860805-10.850636-17.560221-31.983528 3.458995-30.930674 20.954259-67.715656 42.12775-73.675521 7.532382-2.140897 15.292116-.606272 23.295441 6.346904 14.033562-36.20307 37.020454-114.7071101 44.366083-114.631381z"/><path d="m573.283842 106.528941c6.917991-2.69033 16.750957 3.735065 11.871012 34.903917-2.538762 16.585856-21.546997 99.918416-46.138885 113.001972-3.456289 1.891892-6.717705 2.438619-10.398639 1.090747-17.993272-6.363144-15.535708-34.289525-13.641109-55.565866l-4.823107 10.636817c-15.278583 33.13382-27.233499 44.750416-35.794378 45.532614-10.398639 1.096161-15.800951-13.500367-15.882148-25.27665-.262537-38.165333 25.127789-83.484128 26.548738-84.813053 3.24247-2.947454 15.495109-.857983 15.530294 3.940764.005413.871516-29.607161 85.327302-17.454665 71.929784 5.873255-6.225109 26.137339-55.268143 39.938136-95.144028 17.31663-3.348026 18.531879-4.425241 16.577736 37.60778.00812 1.309979-4.089626 57.460464-2.868963 57.252058 4.281792-.71724 30.508448-72.162548 30.275683-105.967598-.230058-3.88934 2.5956-7.857171 6.260295-9.129258"/><path d="m630.119089 67.5002127c7.740788-1.2991533 10.439238 5.2317983 10.092797 14.0254417-.687469 18.453389-15.178441 47.0915976-27.496037 36.0623286-11.2891-10.111743.895874-47.532769 17.197541-50.271817zm-23.252136 59.5851213c12.40962-4.706724 17.137996.395159 17.617059 10.360747.744306 19.525191-14.899664 57.966593-23.907126 83.05649-9.608321 26.508139-11.02115 28.713993-15.335421 24.415961-5.134362-4.817693-7.231953-13.197231-7.299618-23.008545-.44929-35.734833 25.265824-93.33604 29.128098-94.640606z"/><path d="m652.035804 199.625449c5.659436-7.938367 26.592043-48.788616 26.567705-52.060859-.008141-1.529211-4.514579-4.043614-6.549919-3.705293-18.539999 3.553725-40.628311 84.125585-20.220779 55.801338zm55.896068-118.1309201c4.284499-.0649577 12.469164 3.5807911 12.49623 7.0695588 0 0-35.385686 105.0771373-37.824305 135.8400033-.36268 6.392916-.974365 6.712291-6.682519 7.018134-11.627422.644163-15.546534-6.12226-17.043267-15.695395-7.892356 8.753045-15.002513 13.440823-20.908247 14.647953-12.834552 2.595599-19.860805-10.850637-17.560221-31.983529 3.458995-30.930673 20.954259-67.715656 42.12775-73.675521 7.532382-2.13819 15.294822-.603565 23.295441 6.346905 14.033561-36.2030703 15.365194-49.7494493 22.713529-49.6712977z"/><path d="m773.622743 112.594904c-10.412172-.652283-41.784016 35.190813-38.51448 35.296369.202992-.035185 1.832347-.308549 3.458995-.798438 17.305804-4.877237 41.177745-34.216448 35.46147-34.565595zm-.443877 53.790357c6.257588-8.915439 12.206627-4.455013 12.47999 5.540347.28419 11.088814-6.536364 28.611143-28.272822 41.656807-11.373004 6.931524-19.928469 8.585238-31.574837 6.179098-18.185438-3.929939-26.659706-19.757956-26.383636-39.234428.387039-32.162162 23.758264-74.522677 64.854812-91.2546881 21.151838-8.5798245 31.412442.175927 32.129683 15.1243091.72536 16.691412-10.531261 40.852956-31.626262 58.158759-30.63295 24.797588-42.590573 6.50118-39.242547 18.602251 2.931215 10.861462 28.443336 12.688396 47.432626-14.73727z"/><path d="m14.2609133 70.1757723c92.4997097 49.9226697 357.4105867-43.1129412 537.1159567-63.58813745 188.980784-21.53075825 234.797588 20.11522255 197.861037 65.14170825-3.475234-19.6794649-.868808-54.1043189-152.531415-35.5047752-151.662607 18.6022503-353.726946 92.7974331-500.4013457 89.7471291-104.37613574-2.173375-109.1342845-42.5580946-82.044233-55.7959247" transform="translate(37.891969 268.61849)"/></g></svg>