<svg xmlns="http://www.w3.org/2000/svg" xmlns:xlink="http://www.w3.org/1999/xlink" xml:space="preserve" style="shape-rendering:geometricPrecision;text-rendering:geometricPrecision;image-rendering:optimizeQuality;" viewBox="0 0 5.37354 8.8345" x="0px" y="0px" fill-rule="evenodd" clip-rule="evenodd"><defs><style type="text/css">
   
    .fil0 {fill:black}
   
  </style></defs><g><path class="fil0" d="M0.645175 6.12508c-0.0976081,-0.0829909 -0.188004,-0.177522 -0.268975,-0.283496 -0.613441,-0.802118 -0.460537,-1.94976 0.341676,-2.5632 0.115495,-0.0884724 0.238202,-0.160789 0.365333,-0.217623 0.0514486,-0.0230798 0.0805868,-0.0748169 0.0736629,-0.130689 -0.046448,-0.369661 0.194447,-1.63385 0.29619,-1.93303 0.128093,-0.376585 0.272149,-0.903572 0.794617,-0.995218 0.00240414,-0.000384663 0.00451978,-0.000865491 0.00702009,-0.00144248 0.0861644,-0.0202909 1.01916,0.677102 1.32035,0.80808 0.640271,0.278303 0.53997,0.25407 1.21611,0.284266 0.939346,0.0421205 0.632481,0.977043 -0.14396,0.560742 -0.105301,-0.0563531 -1.565,-0.818081 -1.60106,-0.842796 -0.979639,-0.669217 -1.16851,-0.691912 -1.52124,0.431495 -0.0750092,0.23926 -0.198678,1.28141 -0.200794,1.55673 0,0.00432745 -0.000192331,0.00798175 -0.000576994,0.012213 -0.00250031,0.0230798 0.0102897,0.0909727 0.0164443,0.157327 0.0681814,-0.0189446 0.137132,-0.033658 0.206371,-0.0444285 0.0607767,-0.00942423 0.105013,-0.0599112 0.106552,-0.121361 0.00740475,-0.304172 0.132132,-0.943962 0.188485,-1.10975 0.0800098,-0.234933 0.169925,-0.563531 0.495157,-0.621711 0.00211564,-0.000384663 0.00384663,-0.000673159 0.00596227,-0.00125015 0.0540451,-0.0124054 0.637097,0.423321 0.825293,0.505158 0.400241,0.173964 0.337541,0.158866 0.760285,0.17781 0.587091,0.0262532 0.395241,0.610652 -0.0901072,0.350331 -0.0656811,-0.0351966 -0.978197,-0.511409 -1.0008,-0.526795 -0.612383,-0.41832 -0.730378,-0.432457 -0.95079,0.269745 -0.0467365,0.149057 -0.123765,0.796636 -0.125496,0.971369 0,0.0033658 -0.000288497,0.0064431 -0.000480828,0.00980889 -0.00115399,0.0121169 0.00394279,0.0426014 0.00798175,0.0757785 0.690854,-0.0221181 1.26131,0.198582 1.6904,0.570262 0.421205,-0.0850104 0.847219,0.159539 0.979735,0.578436 0.0913573,0.288401 0.0211564,0.589399 -0.159827,0.805195 0.165886,0.672198 0.110975,1.43258 -0.198197,2.13526 -0.017983,0.0410627 -0.0532758,0.0677968 -0.0977043,0.0739514 -0.0445247,0.00625077 -0.0856836,-0.00971273 -0.114341,-0.0442362 -0.341484,-0.411685 -1.01349,0.285997 -1.69377,-0.292344 -0.00538528,-0.00471212 -0.0111552,-0.00865491 -0.0169252,-0.0123092l-0.0652965 -0.0582764c-0.352928,-0.0886647 -0.626615,-0.358121 -0.690373,-0.698259 -0.00971273,0.0061546 -0.019137,0.0125977 -0.0282727,0.0193293 9.61656e-005,0.00750092 0.000288497,0.015098 0.000673159,0.0225989 0.0148095,0.342927 0.222335,0.631904 0.513717,0.767113 -0.38322,0.112514 -0.812792,-0.013944 -1.06994,-0.350139 -0.0584687,-0.0764517 -0.104051,-0.158769 -0.137228,-0.244261 -0.00788558,-0.0203871 -0.0192331,-0.0362544 -0.0358698,-0.0503908zm0.704029 -2.69697c0.46198,-0.353313 1.12283,-0.265225 1.47614,0.196755 0.353313,0.46198 0.265225,1.12293 -0.196755,1.47624 -0.46198,0.353216 -1.12293,0.265129 -1.47624,-0.196851 -0.353313,-0.461884 -0.265129,-1.12283 0.196851,-1.47614zm0.702778 0.335137c0.110398,-0.0212526 0.217142,0.0509678 0.238491,0.161366 0.0213488,0.110494 -0.0509678,0.217334 -0.16127,0.238587 -0.0748169,0.0144248 -0.147999,-0.0140402 -0.194062,-0.0682776 -0.0556799,0.115495 -0.163289,0.204352 -0.299075,0.230509 -0.227913,0.0439477 -0.448324,-0.105205 -0.492272,-0.333118 -0.04414,-0.227913 0.105013,-0.44842 0.332925,-0.492464 0.218392,-0.0420244 0.42986,0.0930883 0.485925,0.304845 0.0250992,-0.0202909 0.0553914,-0.0349081 0.0893379,-0.0414474zm1.03484 -0.114245l-0.00134632 -0.00240414 -0.00134632 -0.00230798 -0.00144248 -0.00250031 -0.00134632 -0.00230798 -0.00144248 -0.00240414 -0.00134632 -0.00240414 -0.00269264 -0.00480828 -0.00144248 -0.00230798 -0.00134632 -0.00250031 -0.00144248 -0.00230798 -0.00144248 -0.00240414 -0.00144248 -0.00230798 -0.0027888 -0.00480828 -0.00144248 -0.00230798 -0.00144248 -0.00240414 -0.0058661 -0.00942423 -0.00144248 -0.00240414 -0.00153865 -0.00230798 -0.00144248 -0.00230798 -0.00144248 -0.00240414 -0.00153865 -0.00230798 -0.00144248 -0.00240414 -0.00605843 -0.0092319 -0.00163482 -0.00240414 -0.00153865 -0.00230798 -0.00153865 -0.00230798 -0.00153865 -0.00230798 -0.00153865 -0.00230798 -0.00153865 -0.00240414 -0.00153865 -0.00230798 -0.00163482 -0.00230798 -0.00153865 -0.00230798 -0.00153865 -0.00230798 -0.00163482 -0.00240414 -0.00153865 -0.00221181 -0.00153865 -0.00230798 -0.00173098 -0.00230798 -0.00317347 -0.00451978 -0.00163482 -0.00230798 -0.00153865 -0.00240414 -0.00173098 -0.00221181 -0.00163482 -0.00230798 -0.00163482 -0.00230798 -0.000769325 -0.00115399 -0.000961656 -0.00105782 -0.00163482 -0.00230798 -0.00163482 -0.00221181 -0.00163482 -0.00240414 -0.00173098 -0.00221181 -0.00163482 -0.00230798 -0.00163482 -0.00221181 -0.00346196 -0.00451978 -0.00163482 -0.00221181 -0.00182715 -0.00230798 -0.00163482 -0.00221181c-0.422456,-0.552279 -1.21226,-0.657581 -1.76445,-0.235317 -0.552183,0.422359 -0.657677,1.21226 -0.235221,1.76445 0.422167,0.552183 1.21226,0.657388 1.76445,0.235221l0.00557761 -0.00432745 0.00567377 -0.00442362 0.00567377 -0.00442362 0.00557761 -0.00442362 0.0030773 -0.00240414 0.00240414 -0.00201948 0.00557761 -0.00451978 0.0109629 -0.00913573 0.00538528 -0.00451978 0.000480828 -0.000480828 0.00490445 -0.00403896 0.0160597 -0.013944 0.00326963 -0.0030773 0.00192331 -0.00163482 0.00519294 -0.00471212 0.00519294 -0.00480828 0.00519294 -0.00471212 0.00509678 -0.00480828 0.00105782 -0.000865491 0.00403896 -0.00394279 0.00509678 -0.00480828 0.00509678 -0.00490445 0.00500061 -0.00490445 0.00365429 -0.00355813 0.00134632 -0.00125015 0.00490445 -0.00500061 0.000384663 -0.000480828 0.00942423 -0.00942423 0.00480828 -0.00500061 0.00144248 -0.00144248 0.00346196 -0.00346196 0.00471212 -0.00509678 0.00942423 -0.0100974 0.00384663 -0.00423129 0.000961656 -0.000865491 0.00461595 -0.00528911 0.00451978 -0.00509678 0.00471212 -0.00519294 0.00451978 -0.00509678 0.00163482 -0.00192331 0.0163482 -0.019137 0.00394279 -0.00471212 0.000384663 -0.000480828 0.00442362 -0.00528911 0.00846258 -0.0106744 0.00432745 -0.00538528 0.00201948 -0.00259647 0.00221181 -0.00288497 0.0166367 -0.0216373 0.00807791 -0.011059 0.00394279 -0.00548144 0.00403896 -0.00557761 0.00221181 -0.0030773 0.00173098 -0.00240414 0.0115399 -0.0167328 0.00394279 -0.00567377 0.000288497 -0.000576994 0.00346196 -0.00509678 0.00740475 -0.0112514 0.00365429 -0.00567377 0.00240414 -0.00375046 0.00125015 -0.00201948c0.24378,-0.384374 0.264167,-0.881646 0.0347158,-1.28987zm0.545836 -0.0814523c0.20214,0.0363506 0.377931,0.180791 0.444189,0.390336 0.0293305,0.092319 0.0337541,0.186369 0.017406,0.275418 -0.00538528,-0.0600074 -0.0175021,-0.121169 -0.0367353,-0.182138 -0.0744322,-0.235221 -0.238298,-0.411012 -0.42486,-0.483617zm0.197813 -1.7632c0.216084,-0.0291382 0.417263,0.141652 0.335714,0.307249 -0.00163482,-0.162905 -0.147133,-0.301672 -0.335714,-0.307249zm0.8502 -0.646618c0.31023,-0.0371199 0.600074,0.156846 0.591034,0.405915 -0.107898,-0.222335 -0.337734,-0.403799 -0.591034,-0.405915z"/></g><text x="0" y="22.0676" fill="#000000" font-size="5px" font-weight="bold" font-family="'Helvetica Neue', Helvetica, Arial-Unicode, Arial, Sans-serif">Created by Nick Novell</text><text x="0" y="27.0676" fill="#000000" font-size="5px" font-weight="bold" font-family="'Helvetica Neue', Helvetica, Arial-Unicode, Arial, Sans-serif">from the Noun Project</text></svg>