<svg xmlns="http://www.w3.org/2000/svg" viewBox="0 0 419.05 496.85"><defs><style>.cls-1{fill:#0074ff;}.cls-2,.cls-4{fill:none;}.cls-2{stroke:#000;stroke-miterlimit:10;}.cls-3{font-size:24px;font-family:MyriadPro-Regular, Myriad Pro;}</style></defs><title>Asset 5</title><g id="Layer_2" data-name="Layer 2"><g id="Layer_1-2" data-name="Layer 1"><path class="cls-1" d="M218.92,358.35a62.5,62.5,0,0,1,.14-125h.14a62.5,62.5,0,0,1-.14,125Z"/><path d="M219.05,233.85h.14a62,62,0,0,1-.14,124h-.14a62,62,0,0,1,.14-124m0-1a63,63,0,0,0-.14,126h.14a63,63,0,0,0,.14-126Z"/><path d="M218.54,105.85h-3.11q-4.47.07-8.89.35l.06,1c3.95-.25,8-.37,11.93-.37v-1Zm-23.94,1.49q-6,.75-11.85,1.87l.19,1c3.89-.74,7.86-1.36,11.79-1.86l-.12-1ZM171,111.83l-.24.06h0l-.07,0h0l-.21.05h0l-.06,0h-.09l-.18,0H170l-.07,0h-.25l-.08,0h-.2l-.17,0h0l-.07,0h0l-.07,0h0l-.17,0h0l-.07,0h0l-.18,0h0l-.08,0h0l-.27.07h0l-.09,0h0l-.27.07h0q-4.21,1.16-8.34,2.5l.31,1c3.77-1.23,7.62-2.35,11.46-3.33l-.25-1Zm-22.81,7.43q-4.89,1.94-9.65,4.15h0l-.25.12h0l-.25.12h0l-.34.16h0l-.25.12h0l-.25.12h0l.43.9c3.58-1.69,7.27-3.29,10.95-4.76l-.37-.93ZM126.55,129.5q-5.26,2.91-10.31,6.13l.54.84c3.34-2.13,6.79-4.18,10.26-6.1l-.48-.88Zm-20.22,12.9q-4.85,3.54-9.46,7.38l.64.77c3-2.53,6.22-5,9.41-7.34l-.59-.81ZM87.89,157.73h0l0,0,0,0,0,0h0l-.06.06h0l-.05.05h0l-.06.06h0l-.13.13h0q-4.11,3.9-8,8l.73.68c2.71-2.89,5.54-5.74,8.42-8.46l-.69-.73ZM71.5,175.25l-.33.4h0l0,0h0l-.12.14,0,0,0,0,0,0,0,0,0,.06,0,0,0,0,0,0,0,0v0l-.06.07h0l-.05.07h0l0,.06h0l-.12.14h0q-2.09,2.58-4.1,5.24h0l-.17.22h0l-.56.75h0l-1.44,2,.81.59c2.32-3.21,4.78-6.38,7.3-9.44l-.77-.64ZM57.43,194.67q-3.2,5.06-6.09,10.34l.88.48c1.9-3.47,3.94-6.93,6.06-10.28l-.85-.53Zm-11.52,21-.57,1.23v0l0,.05v0l0,.09,0,0,0,0,0,0,0,0,0,0v0l0,.08h0l0,.07h0l0,.07h0q-2.05,4.51-3.87,9.15l.93.37c1.45-3.69,3-7.37,4.71-11l-.91-.42ZM37.15,238q-1.83,5.69-3.31,11.54l1,.24c1-3.84,2.08-7.7,3.29-11.47l-1-.31Zm-5.87,23.25q-1.09,5.87-1.82,11.86l1,.12c.48-3.94,1.09-7.91,1.81-11.8l-1-.18ZM28.38,285.1q-.3,5.08-.32,10.23h0v.08h0v.5h0q0,.58,0,1.17h1q0-.58,0-1.16c0-3.58.12-7.21.33-10.77l-1-.06ZM29.47,309l-1,.07v.13h0l0,.29h0v.07h0v.07h0v2h0v.47h0v.17h0l0,.27h0v.09h0q.36,4.17.89,8.28l1-.13c-.51-3.92-.9-7.92-1.16-11.88Zm3.06,23.66-1,.19,0,.14h0v.06h0l.06.28h0q1.11,5.65,2.56,11.19l1-.25c-1-3.83-1.89-7.75-2.65-11.64Zm6,23.09-.95.31,0,.13v0l0,.06h0l.06.19v0l0,.06v0l.06.19h0l0,.06v0l0,.05v0l0,.11h0l0,0v0l0,0v0l0,0v0l0,.1v0l0,0v0l0,0v0l0,.08v0l0,0v.2l0,.07v.2l0,.05,0,.06v.12l0,0v0l0,.07v0l0,0v0l0,0v0l0,.06v0l0,.08v0l0,0v0l0,.05v0l0,.08h0l0,.07v0l0,.06v0l0,.07h0l0,.08v0l0,.06v0l0,.07h0l0,.08h0l0,.08v0l0,.07v0l.06.17h0l0,.07h0l0,.08h0l.06.17h0l0,.08h0l.09.26h0q1.17,3.26,2.46,6.47l.93-.37c-1.48-3.68-2.86-7.45-4.1-11.21Zm8.9,22.14-.9.43.65,1.35h0l.12.25h0l0,.08h0l.08.16h0l0,.07v0l0,.07h0l0,.08h0l0,.07v0l0,.06v0l0,.07h0l0,.07v0l0,0,0,0,0,0v0l0,.07,0,0,0,0,0,0,0,0,0,0,0,0,0,.06,0,0,0,0v0l0,0v0l0,.09v0l0,0v0l0,0v0l.09.17h0l0,.06h0l.09.19h0l0,.06h0q1.73,3.41,3.58,6.74l.87-.49c-1.93-3.46-3.77-7-5.48-10.6Zm11.62,20.84-.84.54v0l0,0,0,0,0,0,0,0,0,.05,0,0,0,0,0,0,0,0,0,0,0,0,0,.06,0,0,0,0,0,0,0,0,0,0,.06.1h0l0,0,0,0,0,0,0,0,.1.15v0l0,0v0l0,0h0l.07.11v0l0,0v0l0,0h0l.11.16h0l0,.05h0l.11.17h0l0,.05h0l.11.17h0l0,.06h0l.15.23h0l.15.23h0l.15.23h0l0,.05h0l.11.17h0l0,.05h0l.11.17h0l0,.05h0l.16.23h0l.16.23h0l0,.06h0l.12.17h0l0,.05h0l.11.17h0l0,.05h0l.15.22h0l0,.05h0l.11.16v0l0,0h0l.11.16v0l0,0v0l.1.15v0l0,0v0l0,0h0l.06.09,0,0,0,0,0,0,0,0,0,0,.05.08,0,0,0,0,0,0,0,0,0,0,0,0,0,.05,0,0,0,0,0,0,0,0,0,0,0,.06,0,0,0,0,0,0,0,0,0,0,0,.07h0l0,.06,0,0,0,0,0,0,.1.14v0l0,.05v0l.1.14h0l0,.06h0l0,.07h0l.11.15h0l0,.07h0l.11.15h0Q64.2,408,65,409.16l.81-.59c-2.35-3.19-4.63-6.5-6.77-9.83ZM73.21,418l-.77.64q1.55,1.85,3.14,3.66h0l.18.21h0l0,0h0l.14.15h0l0,0h0l.13.15h0l0,0h0l.13.15h0l0,0h0l.13.14h0l0,0,0,0,0,0h0l.08.09h0l0,0,0,0,0,0v0l.08.09h0l0,0,0,0,0,0,0,0,.12.13,0,0,0,0,0,0,0,0,0,0,.06.06,0,0,0,0,0,0,0,0,0,0,.05.06,0,0,0,0,0,0,0,0,0,0,.05.06,0,0,0,0,0,0,0,0,0,0,.05.06,0,0,0,0,0,0,0,0,0,0,0,0,0,.05,0,0,0,0,0,0,0,0,0,0,0,.05,0,0,0,0,0,0,0,0,0,0,0,0,0,0,0,0,0,0,0,0,0,0,0,0,0,0,0,0,0,0,0,0,0,0,0,0,0,0,0,0,0,0,0,0,0,0,0,0,0,0,.05.06,0,0,0,0,0,0,0,0,0,0,.05.06,0,0,0,0,0,0,0,0,0,0,.05.06,0,0,0,0,0,0,0,0,0,0,0,.05h0l.05.06,0,0,0,0,0,0,0,0h0l.06.06,0,0,0,0,0,0,0,0h0l.06.06h0l0,0,0,0,0,0h0l.06.06h0l.05.06h0l.72-.69C78.43,424,75.76,421,73.21,418Zm16.43,17.3L89,436q3.62,3.37,7.42,6.54h0l.21.18h0l0,0h0l.15.12h0l0,0h0l0,0h0l.07.06,0,0,0,0,0,0,0,0,0,0,0,0,0,0,0,0,0,0,0,0,0,0,0,0,.06.05,0,0,0,0,0,0,.05,0h0l.07.05h0l.06,0h0l.06,0h0l.14.11h0l.63-.77c-3.07-2.51-6.09-5.15-9-7.84Zm18.47,15.11-.58.81q2.26,1.62,4.57,3.19h0l.23.16h0l.06,0h0l.17.12h0l.05,0h0l.17.11h0l.05,0h0l.17.11h0l.05,0h0l0,0h0l.11.07h0l0,0h0l0,0h0l.15.1,0,0,0,0h0l.15.1,0,0,0,0,0,0,0,0,0,0,.08.05,0,0,0,0,0,0,0,0,0,0,.07,0,0,0,0,0,0,0,0,0,0,0,.07,0,0,0,0,0,0,0,0,0,0,0,0,0,0,0,.08.05,0,0,0,0,0,0,0,0,0,0,.07,0,0,0,0,0,0,0,0,0,0,0,.07,0,0,0,0,0,0,0,0,0,0,0,0,0,.06,0,0,0,0,0,0,0,0,0,0,0,0,0,.07,0,0,0,0,0,0,0,0,0,0,0,.08,0,0,0,0,0,0,0,0,0h0l.09.06h0l0,0,0,0,0,0,0,0,.15.09h0l0,0h0l.16.1h0l0,0h0l0,0h0l.11.07h0l.05,0h0l0,0h0l.16.1h0l0,0L118,457c-3.36-2.1-6.69-4.34-9.91-6.66ZM128.33,463l-.48.88q2.47,1.34,5,2.61h0l.25.13h0l.08,0h0l.17.08h0l.08,0h0l.25.12h0l.25.12h0l.08,0h0l.17.08h0l.08,0h0l.25.12h0l.25.12h0l.08,0h0l.25.12h0l.25.12h0l.59.29h0l2.63,1.24.42-.91c-3.59-1.66-7.18-3.47-10.67-5.36Zm21.65,10-.36.93q4.44,1.73,9,3.23h0l.26.09h0l.08,0h0l.08,0h0l.08,0h0l.07,0h0l.06,0h0l.06,0h0l.05,0h.15l.18.06h0l.06,0h0l1,.33.3-1c-3.78-1.2-7.56-2.53-11.26-4Zm22.74,7.21-.24,1,1.42.35h0l.07,0h0l.19,0h.58l.08,0h0l.08,0h0l.07,0h0l.18,0h0l.09,0h0l.08,0h0q4.37,1,8.82,1.82l.18-1c-3.9-.71-7.82-1.55-11.67-2.51Zm23.47,4.27-.12,1q3.68.43,7.4.72h0l.29,0h1.35l2.91.18.05-1c-4-.22-8-.56-11.89-1Zm35.76.84c-3.94.28-8,.43-11.93.46v1q6,0,12-.46l-.07-1Zm23.65-3.15c-3.88.77-7.84,1.42-11.77,1.95l.13,1q6-.8,11.83-2l-.19-1Zm23.06-6.11c-3.76,1.26-7.6,2.41-11.43,3.42l.26,1h.14l.07,0h.16l.06,0h0l.08,0h0l.06,0h0l.07,0h0l.17,0h0l.08,0h0l.27-.07h0q4.35-1.19,8.62-2.57h0l.27-.09h0l.08,0h0l.25-.08h0l.07,0h0l.16-.05h0l.06,0h0l.06,0h0l.08,0h0l.06,0h0l0,0h0l0,0,0,0,.06,0h.1l-.32-.95Zm22.1-9c-3.57,1.72-7.24,3.35-10.91,4.84l.38.93q4.53-1.84,8.94-3.9h0l.59-.28h0l.25-.12h0l.34-.16h0l.25-.12h0l.25-.12h0l.34-.16-.43-.9Zm20.79-11.7c-3.33,2.16-6.76,4.24-10.21,6.18l.49.87q5.07-2.85,9.95-6h0l.23-.15h0l.07,0h0l-.54-.84Zm19.16-14.22c-3,2.56-6.18,5-9.36,7.41l.6.8q4.82-3.58,9.41-7.45l-.65-.76Zm17.23-16.5c-2.68,2.91-5.5,5.78-8.36,8.52l.69.72,1.48-1.43h0l.2-.2h0l.2-.2h0l.2-.2h0q2.43-2.4,4.78-4.89h0l.06-.06h0l.12-.13h0l.05-.05h0l.12-.13,0,0,0,0,0,0,0,0,0,0,0,0,0,0,0,0,0,0,0,0,.12-.12,0,0,0,0h0l.67-.73-.74-.68Zm15-18.52c-2.3,3.23-4.73,6.42-7.23,9.5l.78.63q2.39-2.94,4.67-6h0l.05-.07h0l.11-.15h0l0-.06h0l.11-.14h0l0-.06v0l0-.07h0l.05-.07v0l0-.05,0,0,0-.05v0l0-.07,0,0,0,0,0,0,0,0,0,0,0-.06,0,0,0,0,0,0,0,0,0,0,0,0,0,0,0,0,0,0,0,0,0,0,0,0,0-.06,0,0,0,0,0,0,0,0,0,0,.05-.07,0,0,0,0,0,0,0,0,0,0,.07-.1h0l0,0,0,0,0,0v0L373,408h0l0,0v0l.12-.16h0l0-.05h0l0-.05h0l.12-.17h0l0-.05h0l.12-.17h0l0-.05h0l.12-.16h0l0-.05h0l.08-.12-.81-.58Zm12.6-20.26c-1.87,3.49-3.89,7-6,10.33l.85.53q3.16-5.09,6-10.38l-.88-.47Zm9.94-21.69c-1.42,3.7-3,7.4-4.63,11l.91.42.29-.63h0l.12-.26h0l0-.06h0l.08-.17v0l0,0v0l0,0v0l0-.08,0,0,0,0,0,0v0l0-.06v0l0-.08v0l0-.06v0l0-.07h0l0-.08h0l0-.08h0l0-.08h0q2-4.41,3.69-8.93l-.93-.36Zm7.12-22.77c-.94,3.85-2,7.72-3.2,11.5l1,.3.07-.22v0l0-.06v0l.06-.18v-.19l0-.07v-.24l0-.08v0l0-.06v0l0-.05v0l0-.07h0l0-.08v0l0-.07v0l0-.07h0l.05-.17h0l0-.08h0l.08-.26h0q1.4-4.66,2.56-9.41l-1-.24ZM406.83,318c-.45,3.94-1,7.91-1.72,11.81l1,.18v-.64h0v-.18l0-.27h0q.68-4,1.2-8h0v-.09h0v-.08h0l0-.18V320h0l0-.22h0c.07-.54.13-1.09.19-1.63l-1-.11ZM409,294.15h-1q0,1.31,0,2.61c0,3.1-.09,6.24-.25,9.32l1,.05q.12-2.38.18-4.77h0v-.07h0v-.07h0v-.84h0q0-.47,0-.95h0q0-.84,0-1.69h0v-.07h0v-.07h0v-.07h0v-.07h0v-.07h0v-.06h0v-.06h0v-.06h0v-.36h0q0-.66,0-1.31h0v-.29h0c0-.34,0-.67,0-1Zm-1.76-23.92-1,.14c.54,3.92,1,7.91,1.25,11.87l1-.07q-.2-2.7-.47-5.38v-.1l0-.19v-.61l0-.17v-.19h0l0-.27h0q-.28-2.51-.62-5Zm-4.75-23.51-1,.26c1,3.82,1.95,7.73,2.73,11.62l1-.2c-.3-1.46-.61-2.92-.94-4.37h0l-.07-.29h0l0-.07h0l-.07-.29h0l0-.07h0l-.07-.29h0c-.49-2.12-1-4.21-1.58-6.3ZM394.84,224l-.92.38c1.51,3.67,2.91,7.43,4.18,11.18l.95-.32v0l0-.05v0l0,0v0l0-.06v0l0-.08v0l0-.06v0l0-.06v0l-.06-.17v0l0-.07h0l-.09-.25h0l0-.08h0l-.06-.18h0l0-.09h0q-1.73-5-3.72-9.81Zm-10.5-21.56-.87.49c2,3.45,3.83,7,5.56,10.56l.9-.44-.81-1.63h0l-.13-.25h0l-.13-.25h0l-.13-.25h0l0-.06h0l-.13-.26h0l-.13-.25h0l-.13-.25h0l0-.06h0l-.13-.25h0l-.13-.25h0q-1.77-3.44-3.68-6.79Zm-13.13-20.07-.8.6c2.37,3.17,4.68,6.46,6.84,9.78l.84-.55-.67-1h0l0-.07h0l-.05-.08h0l0-.07,0,0,0,0,0,0,0-.05,0,0,0,0,0,0,0,0,0,0,0,0-.05-.08v0l0,0,0,0,0,0h0l-.11-.16h0l0-.06h0q-2.66-4-5.51-7.76ZM355.67,164.1l-.72.69c2.75,2.85,5.45,5.83,8,8.85l.76-.65-.89-1h0l0-.05h0l-.13-.15h0l0,0h0l-.12-.14v0l0,0,0,0,0,0h0l-.08-.09v0l0,0,0,0,0,0,0,0-.06-.07,0,0,0,0,0,0,0,0,0,0-.07-.08h0l0,0,0,0,0,0,0,0-.11-.12,0,0,0,0,0,0,0,0,0,0,0-.05,0,0,0,0,0,0,0,0,0,0,0,0,0,0,0,0,0,0,0,0,0,0,0,0,0,0,0,0,0,0,0,0,0,0,0-.05,0,0,0,0,0,0,0,0,0,0-.11-.12,0,0,0,0,0,0,0,0,0,0-.06-.06,0,0,0,0,0,0,0,0,0,0-.07-.07,0,0,0,0,0,0,0,0,0,0-.07-.08h0l0,0,0,0,0,0,0,0-.07-.08h0l0,0,0,0,0,0,0,0-.12-.14v0l0,0h0l-.13-.14h0l0,0h0l-.18-.2h0l-.19-.21h0q-1.66-1.81-3.37-3.58ZM338,147.92l-.63.78c3.08,2.48,6.13,5.1,9.06,7.77l.67-.74-1-.94h0l-.06-.06h0l-.07-.06h0l-.06-.06h0l-.06-.05h0l-.07-.06h0l-.06-.05h0l-.05,0h0l-.13-.11,0,0,0,0,0,0-.13-.11,0,0,0,0,0,0,0,0h0l-.06-.05,0,0,0,0,0,0,0,0,0,0-.06-.05,0,0,0,0,0,0,0,0,0,0-.06-.05,0,0,0,0,0,0,0,0,0,0-.06-.05h0l-.05,0,0,0,0,0,0,0,0,0,0,0-.06-.05,0,0,0,0,0,0,0,0h0l-.06-.05,0,0,0,0,0,0,0,0,0,0-.06-.05h0l0,0,0,0,0,0h0l-.06-.06h0l0,0,0,0,0,0,0,0-.06-.05h0l-.06,0,0,0,0,0,0,0-.05,0h0l-.06-.05,0,0,0,0,0,0,0,0,0,0-.06-.05,0,0,0,0,0,0,0,0,0,0-.06-.05,0,0,0,0,0,0,0,0,0,0-.06-.05h0l0,0,0,0,0,0,0,0-.05,0,0,0-.05,0,0,0,0,0,0,0,0,0h0l-.06-.05,0,0,0,0,0,0,0,0,0,0-.06-.05,0,0,0,0,0,0,0,0,0,0-.06,0,0,0,0,0,0,0,0,0,0,0,0,0-.06-.05,0,0,0,0,0,0,0,0,0,0-.07-.06,0,0,0,0,0,0,0,0h0l-.15-.12h0l0,0h0l-.16-.13h0q-1.2-1-2.42-2Zm-19.59-13.84-.52.85c3.37,2.08,6.72,4.29,10,6.58l.58-.82h0l0,0,0,0-.06,0,0,0,0,0,0,0,0,0,0,0-.14-.1h0l-.06,0h0l-.15-.1h0l-.07,0h0q-2.22-1.56-4.49-3h0l-.23-.15h0l-.07,0h0l-.15-.1h0l-.07,0h0l-.07,0h0l-.08-.05h0l-.07,0h0l-.07,0h0l-.07,0h0l-.07,0h0l-.06,0h0l-.15-.09h0l-.06,0h0l-.07,0h0l-.07,0h0l-.06,0h0l-.06,0h0l-.07,0h0l-.05,0h0l-.05,0h0l-.07,0h0l-.05,0,0,0,0,0,0,0-.06,0,0,0-.05,0,0,0,0,0,0,0-.05,0h0l-.07,0,0,0,0,0,0,0,0,0,0,0-.07,0,0,0,0,0,0,0,0,0,0,0-.07,0h0l0,0,0,0,0,0,0,0-.06,0h0l-.06,0,0,0,0,0,0,0-.05,0h0l-.07,0,0,0,0,0,0,0-.05,0h0l-.07,0h0l-.05,0,0,0-.05,0h0l-.07,0h0l-.06,0,0,0-.05,0h0l-.15-.09h0l-.06,0h0l-.15-.09h0l-.06,0h0l-.07,0ZM297.21,122.8l-.41.91c3.61,1.64,7.21,3.41,10.71,5.27l.47-.88q-1.77-.95-3.57-1.85h0l-.25-.12h0l-.08,0h0l-.16-.08h0l-.07,0h0l-.16-.08h0l-.07,0h0l-.07,0h0l-.08,0h0l-.07,0h0l-.06,0h0l-.08,0h0l-.07,0h0l-.06,0h0l-.06,0h0l-.07,0h0l-.05,0h0l-.05,0h0l-.07,0h0l-.06,0h0l-.05,0h0l-.08,0h0l-.07,0h0l-.05,0h0l-.07,0h0l-.08,0h0l-.06,0h0l-.06,0h0l-.08,0h0l-.07,0h0l-.06,0h0l-.16-.08h0l-.06,0h0l-.08,0h0l-.08,0h0l-.07,0h0l-.07,0h0l-.16-.08h0l-.08,0h0l-.17-.08h0l-.08,0h0q-1.61-.77-3.23-1.51Zm-22.42-8.51-.29,1c3.79,1.17,7.58,2.47,11.29,3.88l.35-.93q-3.1-1.18-6.25-2.25h0l-.26-.09h0l-.07,0h0l-.17-.06h0l-.06,0h0l-.06,0h0l-.08,0h0l-.06,0h0l-.05,0h0l-.06,0h0l-.07,0h-.2l-.06,0-.06,0h-.19l-.09,0h0l0,0h0l-.05,0h0l-.18-.06h0l-.05,0h0l-.06,0h0l-.19-.06h0l-.06,0h0l-.19-.06h0l-.06,0h0l-.06,0h0l-.2-.06h0l-.06,0h0l-.26-.08h0l-.26-.08h0l-.06,0h0l-.19-.06h0l-.06,0h0l-.05,0h0l-.11,0h0l-.05,0h0l-.05,0h0l-.05,0h0l-.11,0h0l0,0h-.11l-.08,0h-.23Zm-23.32-5.6-.17,1c3.91.68,7.84,1.49,11.69,2.42l.23-1-.09,0h0l-.08,0h0l-.08,0h0l-.18,0h0l-.08,0h0l-.26-.06h0l-.08,0h0l-.27-.06h0l-.08,0h0l-.18,0h0l-.08,0h0l-.08,0h0l-.18,0h0l-.08,0h0l-.08,0h0l-.18,0h0l-.08,0h0l-.27-.06h0l-.08,0h0l-.27-.06h0l-.09,0h0l-.27-.06h0l-.36-.08h0q-4-.88-8.11-1.59Zm-23.84-2.62,0,1c4,.19,8,.5,11.9.93l.11-1c-1.62-.18-3.26-.34-4.89-.47h-.16l-.21,0H233q-2.67-.2-5.35-.33Z"/><line class="cls-2" x1="29.05" y1="295.93" x2="219.05" y2="296.35"/><line class="cls-2" x1="218.55" y1="296.85" x2="218.13" y2="485.85"/><line class="cls-2" x1="219.22" y1="0.85" x2="218.55" y2="296.85"/><line class="cls-2" x1="219.05" y1="296.35" x2="410.05" y2="296.78"/><line class="cls-2" x1="219.76" y1="0.88" x2="239.71" y2="20.92"/><line class="cls-2" x1="219.31" y1="0.35" x2="199.26" y2="20.31"/><text class="cls-3" transform="translate(19.89 269.02) rotate(-81.51)"> </text><text class="cls-3" transform="matrix(0.17, -0.99, 0.99, 0.17, 20.62, 264.08)"> </text><text class="cls-3" transform="translate(21.48 259.15) rotate(-78.64)"> </text><text class="cls-3" transform="translate(22.46 254.27) rotate(-77.21)"> </text><text class="cls-3" transform="matrix(0.25, -0.97, 0.97, 0.25, 23.57, 249.4)"> </text><text class="cls-3" transform="translate(24.79 244.56) rotate(-74.34)"> </text><text class="cls-3" transform="translate(26.13 239.76) rotate(-72.9)"> </text><text class="cls-3" transform="translate(27.6 235) rotate(-71.47)"> </text><text class="cls-3" transform="matrix(0.34, -0.94, 0.94, 0.34, 29.18, 230.28)"> </text><text class="cls-3" transform="translate(30.89 225.57) rotate(-68.59)"> </text><text class="cls-3" transform="translate(32.7 220.94) rotate(-67.16)"> </text><text class="cls-3" transform="translate(34.64 216.34) rotate(-65.73)"> </text><text class="cls-3" transform="matrix(0.43, -0.9, 0.9, 0.43, 36.69, 211.79)"> </text><text class="cls-3" transform="matrix(0.46, -0.89, 0.89, 0.46, 38.84, 207.31)"> </text><text class="cls-3" transform="translate(41.12 202.86) rotate(-61.44)"> </text><text class="cls-3" transform="translate(43.51 198.46) rotate(-60)"> </text><text class="cls-3" transform="translate(46 194.16) rotate(-58.58)"> </text><text class="cls-3" transform="translate(48.61 189.88) rotate(-57.15)"> </text><text class="cls-3" transform="matrix(0.56, -0.83, 0.83, 0.56, 51.31, 185.7)"> </text><text class="cls-3" transform="matrix(0.58, -0.81, 0.81, 0.58, 54.11, 181.59)"> </text><text class="cls-3" transform="matrix(0.6, -0.8, 0.8, 0.6, 57.03, 177.52)"> </text><text class="cls-3" transform="translate(60.03 173.56) rotate(-51.47)"> </text><text class="cls-3" transform="matrix(0.64, -0.77, 0.77, 0.64, 63.14, 169.64)"> </text><text class="cls-3" transform="translate(66.34 165.82) rotate(-48.64)"> </text><text class="cls-3" transform="matrix(0.68, -0.73, 0.73, 0.68, 69.63, 162.08)"> </text><text class="cls-3" transform="translate(73.03 158.41) rotate(-45.8)"> </text><text class="cls-3" transform="translate(76.51 154.83) rotate(-44.38)"> </text><text class="cls-3" transform="matrix(0.73, -0.68, 0.68, 0.73, 80.05, 151.35)"> </text><text class="cls-3" transform="translate(83.71 147.95) rotate(-41.55)"> </text><text class="cls-3" transform="translate(87.45 144.63) rotate(-40.13)"> </text><text class="cls-3" transform="translate(91.25 141.43) rotate(-38.72)"> </text><text class="cls-3" transform="matrix(0.8, -0.61, 0.61, 0.8, 95.15, 138.29)"> </text><text class="cls-3" transform="translate(99.12 135.27) rotate(-35.87)"> </text><text class="cls-3" transform="matrix(0.82, -0.57, 0.57, 0.82, 103.17, 132.34)"> </text><text class="cls-3" transform="translate(107.27 129.52) rotate(-33.03)"> </text><text class="cls-3" transform="matrix(0.85, -0.52, 0.52, 0.85, 111.45, 126.81)"> </text><text class="cls-3" transform="translate(115.7 124.19) rotate(-30.18)"> </text><text class="cls-3" transform="translate(119.9 121.64) rotate(-27.66)">R</text><text class="cls-3" transform="matrix(0.91, -0.41, 0.41, 0.91, 131.2, 115.71)">o</text><text class="cls-3" transform="translate(143.06 110.51) rotate(-20.98)">t</text><text class="cls-3" transform="matrix(0.95, -0.31, 0.31, 0.95, 150.31, 107.68)">a</text><text class="cls-3" transform="translate(161.03 104.19) rotate(-15.5)">t</text><text class="cls-3" transform="translate(168.34 102.1) rotate(-12.72)">e</text><text class="cls-3" transform="translate(179.92 99.55) rotate(-10.31)"> </text><text class="cls-3" transform="translate(184.82 98.66) rotate(-8.89)"> </text><text class="cls-3" transform="translate(189.77 97.89) rotate(-7.45)"> </text><text class="cls-3" transform="matrix(0.99, -0.11, 0.11, 0.99, 194.71, 97.24)"> </text><text class="cls-3" transform="translate(199.67 96.71) rotate(-4.61)"> </text><text class="cls-3" transform="translate(204.64 96.31) rotate(-3.2)"> </text><text class="cls-3" transform="translate(209.63 96.03) rotate(-1.79)"> </text><text class="cls-3" transform="translate(214.64 95.89) rotate(-0.8)"> </text><text class="cls-3" transform="translate(219.58 95.84) rotate(1.06)"> </text><text class="cls-3" transform="translate(224.59 95.93) rotate(2.41)"> </text><text class="cls-3" transform="translate(229.58 96.14) rotate(3.82)"> </text><text class="cls-3" transform="matrix(1, 0.09, -0.09, 1, 234.55, 96.47)"> </text><text class="cls-3" transform="translate(239.54 96.92) rotate(6.66)"> </text><text class="cls-3" transform="translate(244.48 97.5) rotate(8.08)"> </text><text class="cls-3" transform="translate(249.43 98.2) rotate(9.51)"> </text><text class="cls-3" transform="translate(254.34 99.02) rotate(10.94)"> </text><text class="cls-3" transform="translate(259.24 99.97) rotate(12.38)"> </text><text class="cls-3" transform="translate(264.06 100.93) rotate(14.91)">R</text><text class="cls-3" transform="matrix(0.95, 0.32, -0.32, 0.95, 276.39, 104.21)">o</text><text class="cls-3" transform="translate(288.65 108.41) rotate(21.6)">t</text><text class="cls-3" transform="translate(295.88 111.22) rotate(24.35)">a</text><text class="cls-3" transform="matrix(0.89, 0.46, -0.46, 0.89, 306.14, 115.9)">t</text><text class="cls-3" transform="translate(312.94 119.31) rotate(29.83)">e</text><path class="cls-4" d="M166.41,75.1"/><path class="cls-2" d="M49.83,140.61A189.51,189.51,0,0,1,173.6,73.1"/><line class="cls-2" x1="50.91" y1="125.6" x2="49.91" y2="140.6"/><line class="cls-2" x1="63.71" y1="134.84" x2="49.83" y2="140.61"/><path class="cls-2" d="M391.6,141.61A189.51,189.51,0,0,0,267.83,74.1"/><line class="cls-2" x1="390.52" y1="126.6" x2="391.52" y2="141.6"/><line class="cls-2" x1="377.72" y1="135.84" x2="391.6" y2="141.61"/></g></g></svg>