<svg xmlns="http://www.w3.org/2000/svg" viewBox="0 0 698 698"><defs><style>.cls-1{fill:#0074ff;}.cls-2,.cls-4{fill:none;}.cls-2{stroke:#000;stroke-miterlimit:10;}.cls-3{font-size:24px;font-family:MyriadPro-Regular, Myriad Pro;}</style></defs><title>Move</title><g id="Layer_2" data-name="Layer 2"><g id="Layer_1-2" data-name="Layer 1"><path class="cls-1" d="M350,447.75a62.5,62.5,0,0,1,.14-125h.14a62.5,62.5,0,0,1-.14,125Z"/><path d="M350.14,323.25h.14a62,62,0,0,1-.14,124H350a62,62,0,0,1,.14-124m0-1a63,63,0,0,0-.14,126h.14a63,63,0,0,0,.14-126Z"/><path d="M349.63,195.25h-3.11q-4.47.07-8.89.35l.06,1c3.95-.25,8-.37,11.93-.37v-1Zm-23.94,1.49q-6,.75-11.85,1.87l.19,1c3.89-.74,7.86-1.36,11.79-1.86l-.12-1Zm-23.56,4.48h-.05l-.07,0h-.25l-.08,0h0l-.07,0h0l-.06,0h0l-.07,0h0l-.09,0h0l-.08,0h0l-.08,0h0l-.18,0h0l-.09,0h0q-3,.8-6,1.71h0l-.08,0h0l-.18.05h0l-.08,0h0l-.08,0h0l-.17.05h0l-.07,0h0l-.07,0h0l-.08,0h0l-.07,0h0l-.06,0h0l-.07,0h0l-.08,0h0l-.05,0h0l-.05,0h0l-.08,0h0l-.05,0H293l-.05,0-.05,0h-.16l0,0h0l-.11,0h0l-.05,0h0l-.05,0h0l-.19.06h0l-.06,0h0l-.27.09h0l-1.28.41.31,1c3.77-1.23,7.62-2.35,11.46-3.33l-.25-1Zm-22.81,7.43q-5.59,2.22-11,4.78l.43.9c3.58-1.69,7.27-3.29,10.95-4.76l-.37-.93ZM257.64,218.9l-.94.52h0l-.25.14h0l-.25.14h0l-.24.14h0l-.06,0h0l-.25.14h0l-.24.14h0l-.24.14h0l-.06,0h0l-.18.1h0l-.06,0h0l-.18.1h0l-.05,0h0l-.23.13h0l-.05,0h0l-.17.1h0l0,0h0l-.16.09h0l0,0h0l0,0h0l-.1.06h0l0,0,0,0,0,0,0,0-.08,0,0,0,0,0,0,0,0,0,0,0,0,0,0,0,0,0,0,0,0,0,0,0,0,0-.07,0,0,0,0,0,0,0,0,0,0,0-.07,0h0l-.06,0h0l0,0h0l-.07,0h0l-.07,0h0l-.06,0h0l-.07,0h0l-.08,0h0l-.07,0h0l-.07,0h0l-.16.09h0q-2.21,1.33-4.38,2.71l.54.84c3.34-2.13,6.79-4.18,10.26-6.1l-.48-.88Zm-20.22,12.9q-4.54,3.32-8.88,6.9h0l-.21.17h0l-.06.05h0l-.14.11h0l-.06,0h0l-.07.06h0l.64.77c3-2.53,6.22-5,9.41-7.34l-.59-.81ZM219,247.13q-4.37,4.12-8.47,8.5l.73.68c2.71-2.89,5.54-5.74,8.42-8.46l-.69-.73Zm-16.39,17.51-.71.87h0l-.17.21h0l0,.06h0l-.11.13v0l0,0,0,0,0,.06h0l-.05.06,0,0,0,0,0,0,0,0,0,0,0,.06,0,0,0,0,0,0,0,0,0,0,0,.06,0,0,0,0,0,0,0,0,0,0h0l-.07.09,0,0,0,0,0,0,0,0h0l-.08.1h0l0,0v0l0,0h0l-.12.16h0l0,0h0l-.12.16h0l0,0h0l-.12.16h0l0,0h0l-.13.16h0l0,.05h0l-.17.22h0l0,.05h0l-.13.16h0l0,.05h0l-.12.16h0l0,0h0l-.12.15h0l0,0h0l-.12.15h0l0,0v0l-.12.15h0l0,0v0l0,0h0l-.07.09v0l0,0,0,0,0,0,0,0-.07.09h0l0,0,0,0,0,0,0,0,0,0,0,.06,0,0,0,0,0,0,0,0,0,0,0,0,0,0,0,0,0,0,0,0,0,0,0,0,0,0,0,0,0,0,0,0,0,0,0,0,0,0,0,.06,0,0,0,0,0,0,0,0v0l0,.07,0,0,0,0,0,0,0,.05v0l-.05.07h0l0,.06v0l0,.06h0l-.05.07h0l-.05.07v0l0,.06v0l-.1.14h0l0,.06h0l-.11.14h0l0,.06h0l-.11.14h0l0,.07h0l-.16.22h0l-.16.22h0l-.05.07h0l-.11.15h0l-.05.07h0l-.16.23h0l-.16.22h0l-.16.22h0l-.16.22h0l0,.07h0l.81.59c2.32-3.21,4.78-6.38,7.3-9.44l-.77-.64Zm-14.07,19.43q-3.2,5.06-6.09,10.34l.88.48c1.9-3.47,3.94-6.93,6.06-10.28l-.85-.53Zm-11.52,21-.43.93h0l0,.08h0l-.08.17h0l0,.07h0l0,.08h0l0,.08h0l0,.07v0l0,.07h0l0,.08h0l0,.07v0l0,.06v0l0,.08h0l0,.08v0l0,.05v0l0,.05v0l0,.07v0l0,0,0,0,0,0v0l0,.06,0,0,0,0,0,0,0,0,0,0,0,0,0,0,0,.06,0,0,0,0,0,0,0,0,0,0,0,0,0,.06,0,0,0,0,0,0,0,0v0l0,.08v0l0,0,0,0,0,0v0l-.07.15v0l0,0v0l0,0,0,0,0,.07,0,0,0,0v0l0,0,0,0,0,.07,0,0,0,0v0l0,0v0l0,0,0,.07,0,0,0,0,0,0,0,0,0,0,0,0,0,.06,0,0,0,0,0,0,0,0,0,0v0l0,.07v0l0,0,0,0,0,0v0l0,.06,0,0,0,.05v0l0,0v0l0,.06v0l0,.08v0l0,.06v0l0,.06v0l0,.08h0l0,.07v0l0,.07h0l-.07.16h0l0,.07h0l-.07.17h0l0,.08h0l0,.08h0l-.07.17h0q-.83,2-1.62,4l.93.37c1.45-3.69,3-7.37,4.71-11l-.91-.42Zm-8.77,22.32q-.34,1.07-.67,2.14h0l-.11.36h0l-.08.27h0l0,.08h0l-.08.26h0l-.08.26h0l0,.09h0l-.08.27h0l-.08.26h0l0,.08h0l-.08.26h0l0,.09h0l-.08.27h0l-.08.27h0l0,.09h0l-.08.27h0l-.08.27h0l0,.09h0l-.08.27h0l-.28,1h0l-.1.36h0l-.07.27h0l-.07.27h0l0,.09h0l-.07.27h0l-.07.27h0l0,.08h0l-.07.26h0l0,.08h0l0,.17h0l0,.08v0l0,.07v0l0,.17v0l0,.06v0l0,.07v0l0,.08v0l0,.06v.11l0,.06v0l0,.06v.2l0,.08v.24l0,.18v.09l-.07.27h0l-.08.32,1,.24c1-3.84,2.08-7.7,3.29-11.47l-1-.31Zm-5.87,23.25q-1.09,5.87-1.82,11.86l1,.12c.48-3.94,1.09-7.91,1.81-11.8l-1-.18Zm-2.89,23.81q-.3,5.08-.32,10.23h0v.59h0q0,.58,0,1.17h1q0-.58,0-1.16c0-3.58.12-7.21.33-10.77l-1-.06Zm1.09,23.92-1,.07q.08,1.2.17,2.4h0V401h0l0,.29v.16h0l0,.2v1.46h0v.27h0l0,.18h0v.08h0v.08h0l0,.18h0V404h0q.31,3.22.72,6.41l1-.13c-.51-3.92-.9-7.92-1.16-11.88Zm3.06,23.66-1,.19q.22,1.13.45,2.25h0l.06.28h0v.06h0l0,.21h0v.14h0l0,.2v.17l0,.19V426h0l0,.12v.18l0,.19v.18l0,.19V427h0l0,.19v.1l.06.27h0v.07h0l.06.28h0q.69,3,1.47,6l1-.25c-1-3.83-1.89-7.75-2.65-11.64Zm6,23.09-.95.31.37,1.11h0l.09.27h0l.09.27h0l0,.06h0l.07.2h0l0,.06h0l0,.06h0l.07.19h0l0,.06v0l.07.19h0l0,.06v0l0,.06h0l.06.18v0l0,.05v0l.06.17v0l0,0v0l0,0v0l0,.09v0l0,0v0l0,0v0l0,0,0,.06,0,0v.16l0,0,0,0,0,.06v0l0,0v0l0,0v0l0,.07v0l0,0v0l0,0v0l0,.06v0l0,.06v0l0,.05v0l0,.05v0l0,.08v0l0,.06v0l0,.05v0l0,.08h0l0,.08v0l0,.06v0l0,.06v0l0,.08v0l0,.06v0l0,.06v0l.06.16v0l0,.06v0l0,.07h0l0,.08h0l0,.07v0l0,.06v0l.06.16v0l0,.06v0l0,.07h0l0,.08h0l0,.07v0l0,.06v0l.06.16v0l0,.07v0l0,.08h0l0,.09h0l0,.08h0l0,.07h0l.06.17v0l0,.07v0l0,.08h0l0,.08h0l0,.07v0l0,.07v0l0,.08h0l0,.08v0l0,.06v0l0,.07h0l0,.08h0l0,.07v0l0,.07v0l.06.16v0l0,.06v0l0,.07h0l0,.08v0l0,.06v0l0,.06v0l0,.08h0l0,.07v0l0,.06v0l0,.07h0l0,.08v0l0,.05v0l0,.06v0l0,.08v0l0,.06v0l0,.05v0l0,.06v0l0,.07v0l0,0,0,0,0,0v0l0,.06,0,0,0,0,0,0v0l0,0v0l0,.09v0l0,0v0l0,.05v0l0,0,.93-.37c-1.48-3.68-2.86-7.45-4.1-11.21Zm8.9,22.14-.9.43q2.59,5.43,5.51,10.66l.87-.49c-1.93-3.46-3.77-7-5.48-10.6Zm11.62,20.84-.84.54q2.08,3.24,4.29,6.38h0l.16.23h0l0,.07h0l.1.15h0l0,.07h0l.1.15h0l0,.07h0l0,.07h0l.05.07h0l0,.06v0l0,.06v0l.05.07h0l0,.06,0,0,0,0v0l0,.06h0l0,.07,0,0,0,0,0,0,0,.05v0l0,.07,0,0,0,0,0,0,0,0,0,0,0,.06,0,0,0,0,0,0,0,0,0,0,0,0,0,.06,0,0,0,0,0,0,0,0,0,0,.06.08v0l0,0,0,0,0,0v0l.11.15v0l0,0h0l.12.16h0l0,.05h0l.17.23h0l.2.27.81-.59c-2.35-3.19-4.63-6.5-6.77-9.83Zm14.14,19.22-.77.64,0,0,0,0,0,0,0,0,.06.08,0,0,0,0,0,0,0,0h0l.09.1h0l0,0h0q3.67,4.36,7.59,8.48l.72-.69c-2.73-2.87-5.4-5.87-7.95-8.91Zm16.43,17.3-.68.73q1.22,1.13,2.45,2.24h0l.2.18h0l0,0h0l.1.09h0l0,0,0,0,0,0,0,0,.13.11,0,0,0,0,0,0,0,0,0,0,0,0,0,0,0,0,0,0,0,0,0,0,0,0,0,0,0,0,0,0,0,0,0,0,0,0,.06,0,0,0,0,0,0,0,0,0,0,0,.06.05,0,0,0,0,0,0,0,0h0l.06.06h0l0,0,0,0,0,0,0,0,.06.06h0l.05,0,0,0,0,0h0l.13.11h0l0,0,0,0,.13.11h0l.05,0h0l.06.05h0l.07.06h0l.05,0,0,0,.05,0h0l.06.06h0l0,0,0,0,.05,0h0l.06.06h0l0,0,0,0,0,0,0,0,.06.05h0l.05,0,0,0,0,0,0,0,.05,0h0l.06,0,0,0,0,0,0,0,0,0,0,0,.06,0,0,0,0,0,0,0,0,0,0,0,.06,0,0,0,0,0,0,0,0,0,0,0,0,0,.06.05,0,0,0,0,0,0,0,0h0l.08.07h0l0,0,0,0,0,0h0l.1.08h0l0,0h0l0,0h0l.15.13h0l1.62,1.34.63-.77c-3.07-2.51-6.09-5.15-9-7.84Zm18.47,15.11-.58.81.07.05h0l.07.05h0l.15.11h0l.06,0h0l.14.1,0,0,0,0,0,0,0,0,0,0,.06,0,0,0,0,0,0,0,0,0,.14.1,0,0,0,0h0l.16.11h0l.05,0h0l.23.16h0q4.12,2.89,8.39,5.58l.53-.85c-3.36-2.1-6.69-4.34-9.91-6.66Zm20.21,12.67-.48.88q3.29,1.78,6.65,3.44h0l.08,0h0l.16.08h0l.07,0h0l.16.08h0l.06,0h0l.06,0h0l.08,0h0l.06,0h0l.05,0h0l.07,0h0l.06,0h0l0,0,0,0,0,0,.05,0,0,0,0,0,0,0,0,0,0,0,0,0h0l.1,0h0l0,0h0l0,0h0l.11.05h0l.05,0h0l.05,0h0l.18.09h0l.06,0h0l.26.12h0l1.49.7.42-.91c-3.59-1.66-7.18-3.47-10.67-5.36Zm21.65,10-.36.93.7.27h0l.26.1h0l.07,0h0l.16.06h0l.06,0h0l.06,0h0l.08,0h0l0,0h0l0,0h0l0,0,.06,0h0l0,0h0l0,0h0l.16.06h0l0,0h0l.05,0h0l.13,0h0l.06,0h0l.06,0h0l.19.07h0l.06,0h0l.19.07h0l.06,0h0l.06,0h0l.2.07h0l.06,0h0l.26.1h0l.27.1h0l.06,0h0l.26.1h0l.06,0h0l.2.07h0l.06,0h0l.26.09h0l.06,0h0l.19.07h0l.06,0h0l.26.09h0l.06,0h0l.19.07h0l.06,0h0l.26.09h0l.06,0h0l.19.07h0l.06,0h0l.06,0h0l.14,0h0l.06,0h0l.06,0h0l.19.06h0l.06,0h0l.19.07h0l.06,0h0l.06,0h0l.19.06h0l.06,0h0l.27.09h0c1.08.36,2.17.72,3.25,1.06l.3-1c-3.78-1.2-7.56-2.53-11.26-4Zm22.74,7.21-.24,1q5.8,1.44,11.73,2.52l.18-1c-3.9-.71-7.82-1.55-11.67-2.51Zm23.47,4.27-.12,1,2.69.3h.1l.18,0h1l.29,0h.08c1.28.12,2.56.23,3.84.32h.08l.29,0H337l2.16.13.05-1c-4-.22-8-.56-11.89-1Zm35.76.84c-3.94.28-8,.43-11.93.46v1q6,0,12-.46l-.07-1Zm23.65-3.15c-3.88.77-7.84,1.42-11.77,1.95l.13,1q6-.8,11.83-2l-.19-1Zm23.06-6.11c-3.76,1.26-7.6,2.41-11.43,3.42l.26,1q5.82-1.54,11.49-3.44l-.32-.95Zm22.1-9c-3.57,1.72-7.24,3.35-10.91,4.84l.38.93h0l.11,0h0l0,0,0,0h0l0,0h0l.08,0h0l.07,0h0l.06,0h0l.17-.07h0l.08,0h0q5.12-2.11,10.09-4.51l-.43-.9Zm20.79-11.7c-3.33,2.16-6.76,4.24-10.21,6.18l.49.87q5.24-2.95,10.27-6.21l-.54-.84Zm19.16-14.22c-3,2.56-6.18,5-9.36,7.41l.6.8.2-.15h0l.05,0h0l.16-.12h0l0,0h0l0,0h0l.08-.06,0,0,0,0,0,0,0,0,0,0,0,0,.05,0,0,0,0,0,0,0,0,0,0,0,.06,0,0,0,0,0,0,0,0,0h0l.07-.05h0l.06,0h0l.05,0h0l.14-.11h0l.06,0h0l.14-.11h0l.07-.05h0q3.21-2.44,6.3-5h0l.21-.17h0l.06-.05h0l.13-.11h0l.05,0,0,0,.06,0,0,0,.05,0,0,0,0,0,0,0,0,0,.05,0,0,0,0,0,0,0,0,0,0,0,.14-.12h0l0,0-.64-.76ZM489,514.12c-2.68,2.91-5.5,5.78-8.36,8.52l.69.72q4.33-4.15,8.4-8.56l-.74-.68Zm15-18.52c-2.3,3.23-4.73,6.42-7.23,9.5l.78.63q2.21-2.73,4.33-5.54h0l.11-.15h0l.05-.07h0l0-.06h0l.05-.07h0l0-.05,0,0,0,0,0,0,0-.06,0,0,0,0,0,0,0,0,0,0,0,0,.06-.07v0l0,0,0,0,0,0h0l.12-.16h0l0-.05h0c.68-.92,1.36-1.85,2-2.78l-.81-.58Zm12.6-20.26c-1.87,3.49-3.89,7-6,10.33l.85.53q3.16-5.09,6-10.38l-.88-.47Zm9.94-21.69c-1.42,3.7-3,7.4-4.63,11l.91.42q2.18-4.76,4.11-9.66h0l0-.08h0l.07-.17h0l0-.08v0l0-.07h0l0-.08h0l0-.08v0l0-.06v0l0-.08h0l0-.08v0l0-.05v0l0-.05v0l0-.07v0l0,0,0,0v0l0,0v0l0,0-.93-.36Zm7.12-22.77c-.94,3.85-2,7.72-3.2,11.5l1,.3q1.78-5.7,3.22-11.56l-1-.24Zm4.18-23.49c-.45,3.94-1,7.91-1.72,11.81l1,.18.19-1.1h0l0-.09h0l0-.27v-.1l0-.18h0v-.26h0v-.69l0-.1v-.26l0-.13h0V416l0-.27h0v-.07h0l0-.29h0v-.07h0l0-.29h0q.23-1.48.43-3h0l.05-.37h0l0-.29h0v-.07h0l0-.28v-.16h0l0-.2v-1.27l0-.17V409l0-.18h0v-.08h0v-.08h0l0-.19h0v-.09h0l.1-.84-1-.11Zm2.21-23.85h-1q0,1.3,0,2.61c0,3.1-.09,6.24-.25,9.32l1,.05q.22-4.26.24-8.56h0v-.07h0v-.07h0v-.06h0v-.06h0v-.51h0q0-.66,0-1.31v-.21h0v-.07h0c0-.34,0-.67,0-1Zm-1.76-23.92-1,.14c.54,3.92,1,7.91,1.25,11.87l1-.07c-.14-1.93-.31-3.85-.51-5.77h0l0-.36v-.16h0v-.72l0-.18h0v-.08h0v-.08h0q-.26-2.28-.57-4.54Zm-4.75-23.51-1,.26c1,3.82,1.95,7.73,2.73,11.62l1-.2q-.37-1.84-.78-3.68h0l0-.08h0l0-.18h0l0-.07v0l0-.07h0l0-.09h0l0-.08v-.2l0-.08V343l0-.08v-.19l-.06-.26v-.08h0c-.49-2.09-1-4.16-1.56-6.23Zm-7.69-22.72-.92.38c1.51,3.67,2.91,7.43,4.18,11.18l.95-.32-.38-1.1h0l-.09-.27h0l0-.06h0l-.07-.19v0l0-.05v0l0-.05h0l0-.11v0l0-.05v0l0,0v0l0-.1v0l0,0v0l0,0v0l0,0v0l0-.08V322l0,0v0l0-.07v0l0,0v0l0,0v0l0-.07v0l0-.05v0l0-.05v0l0-.06v0l0-.08v0l0-.06v0l0-.06v0l0-.08h0l0-.07v0l0-.06v0l-.06-.16v0l0-.07v0l0-.07h0l0-.08h0l0-.07v0l0-.07h0l-.06-.17h0l0-.07h0l0-.08h0l0-.09h0l0-.08h0l0-.08h0l-.06-.17h0l0-.07h0l-.09-.25h0l0-.08h0l-.07-.17h0l0-.08h0l-.1-.26h0q-.94-2.5-2-5Zm-10.5-21.56-.87.49c2,3.45,3.83,7,5.56,10.56l.9-.44q-2.63-5.4-5.59-10.62ZM502.3,271.77l-.8.6c2.37,3.17,4.68,6.46,6.84,9.78l.84-.55q-2.16-3.3-4.45-6.5h0l-.05-.07h0l-.11-.15h0l0-.06v0l-.1-.14v0l0-.05,0,0,0,0,0,0,0-.06,0,0,0,0,0,0,0,0,0,0,0,0-.05-.07,0,0,0,0,0,0,0,0h0l-.07-.1h0l0-.05h0l-1.52-2.07ZM486.76,253.5l-.72.69c2.75,2.85,5.45,5.83,8,8.85l.76-.65-.7-.82h0l0-.05h0l-.13-.15h0l0,0h0l-.12-.14,0,0,0,0,0,0,0,0v0l-.06-.07,0,0,0,0,0,0,0,0,0,0,0-.05,0,0,0,0,0,0,0,0,0,0,0,0,0,0,0,0,0,0,0,0,0,0,0,0-.05-.06,0,0,0,0,0,0,0,0,0,0-.05-.06,0,0,0,0,0,0,0,0,0,0-.05-.06,0,0,0,0,0,0,0,0,0,0-.06-.06h0l0-.05,0,0,0,0,0,0,0-.05h0l-.05-.06,0,0,0,0,0,0,0,0,0,0-.05-.06,0,0,0,0,0,0,0,0,0,0-.05-.06,0,0,0,0,0,0,0,0,0,0-.05-.06,0,0,0,0,0,0,0,0,0,0,0-.05,0,0,0,0,0,0,0,0,0,0,0,0,0,0,0-.05,0,0,0,0,0,0,0,0,0,0L491,258l0,0,0,0,0,0,0,0,0,0-.05-.06,0,0,0,0,0,0,0,0,0,0,0,0,0,0,0,0,0,0,0,0,0,0,0,0-.06-.06,0,0,0,0,0,0,0,0,0,0-.06-.07,0,0,0,0,0,0,0,0,0,0-.08-.09h0l0,0,0,0,0,0,0,0-.13-.14h0l0,0h0l-.13-.14h0l0,0h0l-.18-.2h0l-.19-.2h0q-1.16-1.25-2.35-2.48Zm-17.7-16.19-.63.78c3.08,2.48,6.13,5.1,9.06,7.77l.67-.74-1.95-1.76h0l-.14-.12h0l-.07-.06h0l-.06-.06h0l-.07-.06h0l-.06-.05h0l-.05,0h0l-.07-.06h0l-.06,0,0,0,0,0h0l-.06-.06h0l-.06-.05,0,0,0,0,0,0,0,0,0,0,0,0,0,0,0,0,0,0,0,0,0,0-.05,0,0,0,0,0,0,0,0,0-.13-.11,0,0,0,0,0,0,0,0,0,0-.08-.07h0l0,0,0,0,0,0h0l-.15-.13h0l-.21-.18h0q-2.43-2.09-4.93-4.11Zm-19.59-13.84-.52.85c3.37,2.08,6.72,4.29,10,6.58l.58-.82q-1.62-1.15-3.27-2.26h0l-.23-.16h0l-.23-.15h0l-.05,0h0l-.16-.1h0l0,0h0l0,0h0l-.1-.06,0,0,0,0,0,0,0,0,0,0,0,0,0,0,0,0,0,0,0,0,0,0h0l-.07,0,0,0,0,0,0,0-.06,0h0l-.07,0h0l-.06,0h0l-.06,0h0l-.07,0h0l-.07,0h0l-.06,0h0l-.15-.1h0l-.07,0h0q-2.19-1.44-4.43-2.82ZM428.3,212.2l-.41.91c3.61,1.64,7.21,3.41,10.71,5.27l.47-.88-.14-.07h0l-.05,0h0l0,0,0,0-.07,0,0,0,0,0,0,0,0,0,0,0,0,0-.07,0h0l-.05,0h0l-.06,0h0l-.16-.08h0l-.07,0h0l-.24-.13h0q-3.07-1.6-6.2-3.1h0l-.17-.08h0l-.07,0h0l-.07,0h0l-.08,0h0l-.07,0h0l-.05,0h0l-.06,0h0l-.06,0,0,0,0,0,0,0,0,0-.05,0,0,0,0,0h0l0,0h0l-.18-.08h0l-.06,0h0l-1.83-.84Zm-22.42-8.51-.29,1c3.79,1.17,7.58,2.47,11.29,3.88l.35-.93c-1.24-.47-2.48-.93-3.73-1.37h0l-.27-.1h0l-.07,0h0l-.27-.09h0l-.06,0h0l-.19-.07h0l-.06,0h0l-.06,0h0l-.13,0h0l-.05,0h0l-.05,0h0l-.17-.06h0l-.05,0h0l0,0h0l-.09,0h0l0,0h0l0,0h0l0,0-.07,0h0l0,0h0l0,0h0l-.07,0h0l-.08,0h0l-.05,0h0l-.06,0h0l-.08,0h0l-.07,0h0l-.06,0h0l-.16-.06h0l-.07,0h0l-.07,0h0l-.09,0h0l-.08,0h0l-.08,0h0l-.17-.06h0l-.08,0h0q-1.91-.64-3.84-1.23Zm-23.32-5.6-.17,1c3.91.68,7.84,1.49,11.69,2.42l.23-1q-4.92-1.18-9.93-2.11h0l-.29-.05H384l-.22,0h-.15l-.21,0h-.15l-.21,0h-.16l-.21,0h-.14Zm-23.84-2.62,0,1c4,.19,8,.5,11.9.93l.11-1-1.72-.18h-.6l-.18,0H368l-.28,0h0q-4.47-.42-9-.63Z"/><line class="cls-2" x1="160.14" y1="385.33" x2="350.14" y2="385.75"/><line class="cls-2" x1="349.64" y1="386.25" x2="349.22" y2="575.25"/><line class="cls-2" x1="350.3" y1="90.25" x2="349.64" y2="386.25"/><line class="cls-2" x1="350.14" y1="385.75" x2="541.14" y2="386.18"/><line class="cls-2" x1="350.85" y1="90.27" x2="370.8" y2="110.32"/><line class="cls-2" x1="350.39" y1="89.75" x2="330.35" y2="109.71"/><text class="cls-3" transform="translate(150.93 358.49) rotate(-81.51)"> </text><text class="cls-3" transform="translate(151.66 353.55) rotate(-80.08)"> </text><text class="cls-3" transform="translate(152.52 348.63) rotate(-78.65)"> </text><text class="cls-3" transform="matrix(0.22, -0.98, 0.98, 0.22, 153.5, 343.74)"> </text><text class="cls-3" transform="translate(154.61 338.87) rotate(-75.78)"> </text><text class="cls-3" transform="matrix(0.27, -0.96, 0.96, 0.27, 155.83, 334.03)"> </text><text class="cls-3" transform="translate(157.17 329.23) rotate(-72.9)"> </text><text class="cls-3" transform="translate(158.64 324.47) rotate(-71.47)"> </text><text class="cls-3" transform="translate(160.22 319.75) rotate(-70.04)"> </text><text class="cls-3" transform="translate(161.93 315.04) rotate(-68.59)"> </text><text class="cls-3" transform="translate(163.74 310.41) rotate(-67.16)"> </text><text class="cls-3" transform="translate(165.68 305.81) rotate(-65.73)"> </text><text class="cls-3" transform="translate(167.73 301.26) rotate(-64.3)"> </text><text class="cls-3" transform="translate(169.88 296.78) rotate(-62.87)"> </text><text class="cls-3" transform="translate(172.16 292.32) rotate(-61.44)"> </text><text class="cls-3" transform="matrix(0.5, -0.87, 0.87, 0.5, 174.55, 287.93)"> </text><text class="cls-3" transform="translate(177.04 283.63) rotate(-58.58)"> </text><text class="cls-3" transform="matrix(0.54, -0.84, 0.84, 0.54, 179.65, 279.35)"> </text><text class="cls-3" transform="translate(182.35 275.17) rotate(-55.73)"> </text><text class="cls-3" transform="translate(185.15 271.06) rotate(-54.31)"> </text><text class="cls-3" transform="matrix(0.6, -0.8, 0.8, 0.6, 188.07, 266.99)"> </text><text class="cls-3" transform="translate(191.07 263.02) rotate(-51.47)"> </text><text class="cls-3" transform="translate(194.18 259.11) rotate(-50.05)"> </text><text class="cls-3" transform="translate(197.38 255.29) rotate(-48.64)"> </text><text class="cls-3" transform="translate(200.67 251.55) rotate(-47.22)"> </text><text class="cls-3" transform="matrix(0.7, -0.72, 0.72, 0.7, 204.06, 247.88)"> </text><text class="cls-3" transform="translate(207.55 244.29) rotate(-44.38)"> </text><text class="cls-3" transform="translate(211.09 240.82) rotate(-42.97)"> </text><text class="cls-3" transform="matrix(0.75, -0.66, 0.66, 0.75, 214.75, 237.41)"> </text><text class="cls-3" transform="translate(218.49 234.1) rotate(-40.13)"> </text><text class="cls-3" transform="matrix(0.78, -0.63, 0.63, 0.78, 222.29, 230.89)"> </text><text class="cls-3" transform="matrix(0.8, -0.61, 0.61, 0.8, 226.19, 227.76)"> </text><text class="cls-3" transform="matrix(0.81, -0.59, 0.59, 0.81, 230.16, 224.74)"> </text><text class="cls-3" transform="translate(234.21 221.81) rotate(-34.45)"> </text><text class="cls-3" transform="translate(238.31 218.99) rotate(-33.03)"> </text><text class="cls-3" transform="translate(242.49 216.28) rotate(-31.61)"> </text><text class="cls-3" transform="matrix(0.86, -0.5, 0.5, 0.86, 246.74, 213.66)"> </text><text class="cls-3" transform="translate(250.94 211.11) rotate(-27.66)">R</text><text class="cls-3" transform="translate(262.23 205.18) rotate(-23.96)">o</text><text class="cls-3" transform="translate(274.1 199.98) rotate(-20.98)">t</text><text class="cls-3" transform="matrix(0.95, -0.31, 0.31, 0.95, 281.35, 197.15)">a</text><text class="cls-3" transform="translate(292.07 193.65) rotate(-15.5)">t</text><text class="cls-3" transform="matrix(0.98, -0.22, 0.22, 0.98, 299.38, 191.57)">e</text><text class="cls-3" transform="matrix(0.98, -0.18, 0.18, 0.98, 310.96, 189.02)"> </text><text class="cls-3" transform="translate(315.86 188.13) rotate(-8.89)"> </text><text class="cls-3" transform="translate(320.8 187.36) rotate(-7.45)"> </text><text class="cls-3" transform="matrix(0.99, -0.11, 0.11, 0.99, 325.75, 186.71)"> </text><text class="cls-3" transform="matrix(1, -0.08, 0.08, 1, 330.71, 186.18)"> </text><text class="cls-3" transform="matrix(1, -0.06, 0.06, 1, 335.68, 185.78)"> </text><text class="cls-3" transform="translate(340.67 185.5) rotate(-1.79)"> </text><text class="cls-3" transform="matrix(1, -0.01, 0.01, 1, 345.68, 185.36)"> </text><text class="cls-3" transform="matrix(1, 0.02, -0.02, 1, 350.62, 185.31)"> </text><text class="cls-3" transform="translate(355.63 185.4) rotate(2.41)"> </text><text class="cls-3" transform="translate(360.62 185.61) rotate(3.82)"> </text><text class="cls-3" transform="translate(365.59 185.94) rotate(5.24)"> </text><text class="cls-3" transform="matrix(0.99, 0.12, -0.12, 0.99, 370.57, 186.39)"> </text><text class="cls-3" transform="translate(375.52 186.97) rotate(8.08)"> </text><text class="cls-3" transform="matrix(0.99, 0.17, -0.17, 0.99, 380.47, 187.67)"> </text><text class="cls-3" transform="translate(385.37 188.49) rotate(10.94)"> </text><text class="cls-3" transform="translate(390.28 189.44) rotate(12.38)"> </text><text class="cls-3" transform="translate(395.1 190.4) rotate(14.91)">R</text><text class="cls-3" transform="matrix(0.95, 0.32, -0.32, 0.95, 407.43, 193.68)">o</text><text class="cls-3" transform="translate(419.69 197.87) rotate(21.6)">t</text><text class="cls-3" transform="translate(426.92 200.68) rotate(24.35)">a</text><text class="cls-3" transform="matrix(0.89, 0.46, -0.46, 0.89, 437.18, 205.37)">t</text><text class="cls-3" transform="translate(443.98 208.78) rotate(29.83)">e</text><path class="cls-4" d="M297.5,164.5"/><path class="cls-2" d="M180.92,230a189.51,189.51,0,0,1,123.77-67.51"/><line class="cls-2" x1="182" y1="215" x2="181" y2="230"/><line class="cls-2" x1="194.8" y1="224.24" x2="180.92" y2="230.01"/><path class="cls-2" d="M522.69,231a189.51,189.51,0,0,0-123.77-67.51"/><line class="cls-2" x1="521.61" y1="216" x2="522.61" y2="231"/><line class="cls-2" x1="508.81" y1="225.24" x2="522.69" y2="231.01"/><rect class="cls-4" width="698" height="698"/></g></g></svg>