<svg xmlns="http://www.w3.org/2000/svg" width="1440" height="798" style="cursor: move;"><g transform="translate(78,-12) scale(1)"><line class="link" x1="602" y1="249" x2="740" y2="329" style="stroke-width: 1.18248; stroke-opacity: 1; stroke: rgb(80, 80, 80);"></line><line class="link" x1="602" y1="249" x2="740" y2="369" style="stroke-width: 1.06453; stroke-opacity: 1; stroke: rgb(80, 80, 80);"></line><line class="link" x1="602" y1="249" x2="740" y2="409" style="stroke-width: 1.2873; stroke-opacity: 1; stroke: rgb(80, 80, 80);"></line><line class="link" x1="602" y1="249" x2="740" y2="449" style="stroke-width: 0.856066; stroke-opacity: 1; stroke: rgb(80, 80, 80);"></line><line class="link" x1="602" y1="289" x2="740" y2="329" style="stroke-width: 0.419848; stroke-opacity: 1; stroke: rgb(80, 80, 80);"></line><line class="link" x1="602" y1="289" x2="740" y2="369" style="stroke-width: 1.41936; stroke-opacity: 1; stroke: rgb(80, 80, 80);"></line><line class="link" x1="602" y1="289" x2="740" y2="409" style="stroke-width: 0.124033; stroke-opacity: 1; stroke: rgb(80, 80, 80);"></line><line class="link" x1="602" y1="289" x2="740" y2="449" style="stroke-width: 0.118488; stroke-opacity: 1; stroke: rgb(80, 80, 80);"></line><line class="link" x1="602" y1="329" x2="740" y2="329" style="stroke-width: 1.03696; stroke-opacity: 1; stroke: rgb(80, 80, 80);"></line><line class="link" x1="602" y1="329" x2="740" y2="369" style="stroke-width: 1.41157; stroke-opacity: 1; stroke: rgb(80, 80, 80);"></line><line class="link" x1="602" y1="329" x2="740" y2="409" style="stroke-width: 0.0151771; stroke-opacity: 1; stroke: rgb(80, 80, 80);"></line><line class="link" x1="602" y1="329" x2="740" y2="449" style="stroke-width: 0.0338736; stroke-opacity: 1; stroke: rgb(80, 80, 80);"></line><line class="link" x1="602" y1="369" x2="740" y2="329" style="stroke-width: 0.878428; stroke-opacity: 1; stroke: rgb(80, 80, 80);"></line><line class="link" x1="602" y1="369" x2="740" y2="369" style="stroke-width: 1.156; stroke-opacity: 1; stroke: rgb(80, 80, 80);"></line><line class="link" x1="602" y1="369" x2="740" y2="409" style="stroke-width: 1.3966; stroke-opacity: 1; stroke: rgb(80, 80, 80);"></line><line class="link" x1="602" y1="369" x2="740" y2="449" style="stroke-width: 0.699267; stroke-opacity: 1; stroke: rgb(80, 80, 80);"></line><line class="link" x1="602" y1="409" x2="740" y2="329" style="stroke-width: 0.39425; stroke-opacity: 1; stroke: rgb(80, 80, 80);"></line><line class="link" x1="602" y1="409" x2="740" y2="369" style="stroke-width: 0.32597; stroke-opacity: 1; stroke: rgb(80, 80, 80);"></line><line class="link" x1="602" y1="409" x2="740" y2="409" style="stroke-width: 0.30573; stroke-opacity: 1; stroke: rgb(80, 80, 80);"></line><line class="link" x1="602" y1="409" x2="740" y2="449" style="stroke-width: 0.333651; stroke-opacity: 1; stroke: rgb(80, 80, 80);"></line><line class="link" x1="602" y1="449" x2="740" y2="329" style="stroke-width: 0.13998; stroke-opacity: 1; stroke: rgb(80, 80, 80);"></line><line class="link" x1="602" y1="449" x2="740" y2="369" style="stroke-width: 1.0875; stroke-opacity: 1; stroke: rgb(80, 80, 80);"></line><line class="link" x1="602" y1="449" x2="740" y2="409" style="stroke-width: 0.941735; stroke-opacity: 1; stroke: rgb(80, 80, 80);"></line><line class="link" x1="602" y1="449" x2="740" y2="449" style="stroke-width: 1.27983; stroke-opacity: 1; stroke: rgb(80, 80, 80);"></line><line class="link" x1="602" y1="489" x2="740" y2="329" style="stroke-width: 1.02258; stroke-opacity: 1; stroke: rgb(80, 80, 80);"></line><line class="link" x1="602" y1="489" x2="740" y2="369" style="stroke-width: 0.582842; stroke-opacity: 1; stroke: rgb(80, 80, 80);"></line><line class="link" x1="602" y1="489" x2="740" y2="409" style="stroke-width: 0.618639; stroke-opacity: 1; stroke: rgb(80, 80, 80);"></line><line class="link" x1="602" y1="489" x2="740" y2="449" style="stroke-width: 0.35127; stroke-opacity: 1; stroke: rgb(80, 80, 80);"></line><line class="link" x1="602" y1="529" x2="740" y2="329" style="stroke-width: 0.908921; stroke-opacity: 1; stroke: rgb(80, 80, 80);"></line><line class="link" x1="602" y1="529" x2="740" y2="369" style="stroke-width: 1.045; stroke-opacity: 1; stroke: rgb(80, 80, 80);"></line><line class="link" x1="602" y1="529" x2="740" y2="409" style="stroke-width: 0.0442201; stroke-opacity: 1; stroke: rgb(80, 80, 80);"></line><line class="link" x1="602" y1="529" x2="740" y2="449" style="stroke-width: 0.499348; stroke-opacity: 1; stroke: rgb(80, 80, 80);"></line><line class="link" x1="740" y1="329" x2="878" y2="369" style="stroke-width: 1.02544; stroke-opacity: 1; stroke: rgb(80, 80, 80);"></line><line class="link" x1="740" y1="329" x2="878" y2="409" style="stroke-width: 1.34345; stroke-opacity: 1; stroke: rgb(80, 80, 80);"></line><line class="link" x1="740" y1="369" x2="878" y2="369" style="stroke-width: 1.087; stroke-opacity: 1; stroke: rgb(80, 80, 80);"></line><line class="link" x1="740" y1="369" x2="878" y2="409" style="stroke-width: 1.30632; stroke-opacity: 1; stroke: rgb(80, 80, 80);"></line><line class="link" x1="740" y1="409" x2="878" y2="369" style="stroke-width: 0.915444; stroke-opacity: 1; stroke: rgb(80, 80, 80);"></line><line class="link" x1="740" y1="409" x2="878" y2="409" style="stroke-width: 1.32365; stroke-opacity: 1; stroke: rgb(80, 80, 80);"></line><line class="link" x1="740" y1="449" x2="878" y2="369" style="stroke-width: 1.12132; stroke-opacity: 1; stroke: rgb(80, 80, 80);"></line><line class="link" x1="740" y1="449" x2="878" y2="409" style="stroke-width: 0.190557; stroke-opacity: 1; stroke: rgb(80, 80, 80);"></line><circle r="10" class="node" id="0_0" cx="602" cy="249" style="fill: rgb(255, 255, 255); stroke: rgb(51, 51, 51);"></circle><circle r="10" class="node" id="0_1" cx="602" cy="289" style="fill: rgb(255, 255, 255); stroke: rgb(51, 51, 51);"></circle><circle r="10" class="node" id="0_2" cx="602" cy="329" style="fill: rgb(255, 255, 255); stroke: rgb(51, 51, 51);"></circle><circle r="10" class="node" id="0_3" cx="602" cy="369" style="fill: rgb(255, 255, 255); stroke: rgb(51, 51, 51);"></circle><circle r="10" class="node" id="0_4" cx="602" cy="409" style="fill: rgb(255, 255, 255); stroke: rgb(51, 51, 51);"></circle><circle r="10" class="node" id="0_5" cx="602" cy="449" style="fill: rgb(255, 255, 255); stroke: rgb(51, 51, 51);"></circle><circle r="10" class="node" id="0_6" cx="602" cy="489" style="fill: rgb(255, 255, 255); stroke: rgb(51, 51, 51);"></circle><circle r="10" class="node" id="0_7" cx="602" cy="529" style="fill: rgb(255, 255, 255); stroke: rgb(51, 51, 51);"></circle><circle r="10" class="node" id="0_8" cx="740" cy="329" style="fill: rgb(255, 255, 255); stroke: rgb(51, 51, 51);"></circle><circle r="10" class="node" id="0_9" cx="740" cy="369" style="fill: rgb(255, 255, 255); stroke: rgb(51, 51, 51);"></circle><circle r="10" class="node" id="0_10" cx="740" cy="409" style="fill: rgb(255, 255, 255); stroke: rgb(51, 51, 51);"></circle><circle r="10" class="node" id="0_11" cx="740" cy="449" style="fill: rgb(255, 255, 255); stroke: rgb(51, 51, 51);"></circle><circle r="10" class="node" id="0_12" cx="878" cy="369" style="fill: rgb(255, 255, 255); stroke: rgb(51, 51, 51);"></circle><circle r="10" class="node" id="0_13" cx="878" cy="409" style="fill: rgb(255, 255, 255); stroke: rgb(51, 51, 51);"></circle><text class="text" dy=".35em" x="567" y="569" style="font-size: 12px;"></text><text class="text" dy=".35em" x="705" y="569" style="font-size: 12px;"></text><text class="text" dy=".35em" x="843" y="569" style="font-size: 12px;"></text><text class="text" dy=".35em" x="1011.6666666666667" y="569" style="font-size: 12px;">Output Layer ∈ ℝ¹</text></g></svg>