<svg viewBox="0 0 368.01 387.45" xmlns="http://www.w3.org/2000/svg"><g fill="none" stroke="#505050"><path d="m65.01 29.91 138 80" stroke-width="1.18"/><path d="m65.01 29.91 138 120" stroke-width="1.06"/><path d="m65.01 29.91 138 160" stroke-width="1.29"/><path d="m65.01 29.91 138 200" stroke-width=".86"/><path d="m65.01 69.91 138 40" stroke-width=".42"/><path d="m65.01 69.91 138 80" stroke-width="1.42"/><path d="m65.01 69.91 138 120" stroke-width=".12"/><path d="m65.01 69.91 138 160" stroke-width=".12"/><path d="m65.01 109.91h138" stroke-width="1.04"/><path d="m65.01 109.91 138 40" stroke-width="1.41"/><path d="m65.01 109.91 138 80" stroke-width=".02"/><path d="m65.01 109.91 138 120" stroke-width=".03"/><path d="m65.01 149.91 138-40" stroke-width=".88"/><path d="m65.01 149.91h138" stroke-width="1.16"/><path d="m65.01 149.91 138 40" stroke-width="1.4"/><path d="m65.01 149.91 138 80" stroke-width=".7"/><path d="m65.01 189.91 138-80" stroke-width=".39"/><path d="m65.01 189.91 138-40" stroke-width=".33"/><path d="m65.01 189.91h138" stroke-width=".31"/><path d="m65.01 189.91 138 40" stroke-width=".33"/><path d="m65.01 229.91 138-120" stroke-width=".14"/><path d="m65.01 229.91 138-80" stroke-width="1.09"/><path d="m65.01 229.91 138-40" stroke-width=".94"/><path d="m65.01 229.91h138" stroke-width="1.28"/><path d="m65.01 269.91 138-160" stroke-width="1.02"/><path d="m65.01 269.91 138-120" stroke-width=".58"/><path d="m65.01 269.91 138-80" stroke-width=".62"/><path d="m65.01 269.91 138-40" stroke-width=".35"/><path d="m65.01 309.91 138-200" stroke-width=".91"/><path d="m65.01 309.91 138-160" stroke-width="1.04"/><path d="m65.01 309.91 138-120" stroke-width=".04"/><path d="m65.01 309.91 138-80" stroke-width=".5"/><path d="m203.01 109.91 138 40" stroke-width="1.03"/><path d="m203.01 109.91 138 80" stroke-width="1.34"/><path d="m203.01 149.91h138" stroke-width="1.09"/><path d="m203.01 149.91 138 40" stroke-width="1.31"/><path d="m203.01 189.91 138-40" stroke-width=".92"/><path d="m203.01 189.91h138" stroke-width="1.32"/><path d="m203.01 229.91 138-80" stroke-width="1.12"/><path d="m203.01 229.91 138-40" stroke-width=".19"/></g><circle cx="65.01" cy="29.91" fill="#fff" r="10" stroke="#333"/><circle cx="65.01" cy="69.91" fill="#fff" r="10" stroke="#333"/><circle cx="65.01" cy="109.91" fill="#fff" r="10" stroke="#333"/><circle cx="65.01" cy="149.91" fill="#fff" r="10" stroke="#333"/><circle cx="65.01" cy="189.91" fill="#fff" r="10" stroke="#333"/><circle cx="65.01" cy="229.91" fill="#fff" r="10" stroke="#333"/><circle cx="65.01" cy="269.91" fill="#fff" r="10" stroke="#333"/><circle cx="65.01" cy="309.91" fill="#fff" r="10" stroke="#333"/><circle cx="203.01" cy="109.91" fill="#fff" r="10" stroke="#333"/><circle cx="203.01" cy="149.91" fill="#fff" r="10" stroke="#333"/><circle cx="203.01" cy="189.91" fill="#fff" r="10" stroke="#333"/><circle cx="203.01" cy="229.91" fill="#fff" r="10" stroke="#333"/><circle cx="341.01" cy="149.91" fill="#fff" r="10" stroke="#333"/><circle cx="341.01" cy="189.91" fill="#fff" r="10" stroke="#333"/><text font-family="MyriadPro-Regular, Myriad Pro" font-size="12" transform="matrix(.76 -.65 .65 .76 326.53 135.98)">t</text><text font-family="MyriadPro-Regular, Myriad Pro" font-size="12" transform="matrix(.8934498 -.44916307 .44916307 .8934498 329.09 133.51)">u</text><text font-family="MyriadPro-Regular, Myriad Pro" font-size="12" transform="matrix(.97 -.22 .22 .97 334.61 130.85)">r</text><text font-family="MyriadPro-Regular, Myriad Pro" font-size="12" transform="matrix(.99986827 .01623085 -.01623085 .99986827 338.01 129.86)">n</text><text transform="matrix(.97 .22 -.22 .97 344.26 130.13)"/><text font-family="MyriadPro-Regular, Myriad Pro" font-size="12" transform="matrix(.94010978 .34087184 -.34087184 .94010978 346.5 130.62)">l</text><text font-family="MyriadPro-Regular, Myriad Pro" font-size="12" transform="matrix(.85227518 .52309369 -.52309369 .85227518 348.9 131.28)">e</text><text font-family="MyriadPro-Regular, Myriad Pro" font-size="12" transform="matrix(.72067212 .69327606 -.69327606 .72067212 353.62 134.28)">f</text><text font-family="MyriadPro-Regular, Myriad Pro" font-size="12" transform="matrix(.59 .81 -.81 .59 356.01 136.53)">t</text><text font-family="MyriadPro-Regular, Myriad Pro" font-size="12" transform="matrix(.35 .94 -.94 .35 321.69 200.5)">t</text><text font-family="MyriadPro-Regular, Myriad Pro" font-size="12" transform="matrix(.62018985 .78445175 -.78445175 .62018985 323.7 205.78)">u</text><text font-family="MyriadPro-Regular, Myriad Pro" font-size="12" transform="matrix(.83030421 .55731044 -.55731044 .83030421 329.15 211.93)">r</text><text font-family="MyriadPro-Regular, Myriad Pro" font-size="12" transform="matrix(.96 .27 -.27 .96 333.88 215.04)">n</text><text transform="matrix(.99986827 -.01623085 .01623085 .99986827 341.77 216.77)"/><text font-family="MyriadPro-Regular, Myriad Pro" font-size="12" transform="matrix(.98215619 -.18806703 .18806703 .98215619 345.28 216.73)">r</text><text font-family="MyriadPro-Regular, Myriad Pro" font-size="12" transform="matrix(.92 -.38 .38 .92 350.19 215.61)">i</text><text font-family="MyriadPro-Regular, Myriad Pro" font-size="12" transform="matrix(.78 -.63 .63 .78 354.2 214.01)">g</text><text font-family="MyriadPro-Regular, Myriad Pro" font-size="12" transform="matrix(.47869186 -.87798298 .87798298 .47869186 360.79 208.18)">h</text><text font-family="MyriadPro-Regular, Myriad Pro" font-size="12" transform="matrix(.18206391 -.9832867 .9832867 .18206391 364.33 200.71)">t</text><text fill="#282828" font-family="Palatino-Roman, Palatino" font-size="291.35" transform="matrix(.17 0 0 1 21.55 246.9)">{</text><text font-family="MyriadPro-Regular, Myriad Pro" font-size="18" transform="matrix(0 -1 1 0 15.07 219.91)"><tspan letter-spacing=".01em">S</tspan><tspan letter-spacing="0em" x="8.98" y="0">enso</tspan><tspan letter-spacing=".03em" x="45" y="0">r</tspan><tspan letter-spacing="0em" x="51.34" y="0">y</tspan><tspan letter-spacing=".01em" x="63.63" y="0">I</tspan><tspan x="68.11" y="0">nput</tspan></text><text font-family="MyriadPro-Regular, Myriad Pro" font-size="14" transform="translate(164.81 59.91)"><tspan letter-spacing=".01em">H</tspan><tspan x="9.27" y="0">idden L</tspan><tspan letter-spacing="-.01em" x="52.7" y="0">a</tspan><tspan letter-spacing="-.01em" x="59.33" y="0">y</tspan><tspan x="65.79" y="0">er</tspan></text></svg>