<svg xmlns="http://www.w3.org/2000/svg" viewBox="0 0 372.46 301"><defs><style>.cls-1,.cls-10,.cls-11,.cls-12,.cls-13,.cls-14,.cls-15,.cls-16,.cls-17,.cls-18,.cls-19,.cls-2,.cls-20,.cls-21,.cls-22,.cls-23,.cls-24,.cls-25,.cls-26,.cls-27,.cls-28,.cls-29,.cls-3,.cls-30,.cls-31,.cls-32,.cls-33,.cls-34,.cls-35,.cls-36,.cls-37,.cls-38,.cls-39,.cls-4,.cls-40,.cls-5,.cls-6,.cls-7,.cls-8,.cls-9{fill:none;stroke:#505050;}.cls-1{stroke-width:1.18px;}.cls-2{stroke-width:1.06px;}.cls-3{stroke-width:1.29px;}.cls-4{stroke-width:0.86px;}.cls-5{stroke-width:0.42px;}.cls-6{stroke-width:1.42px;}.cls-7{stroke-width:0.12px;}.cls-8{stroke-width:0.12px;}.cls-9{stroke-width:1.04px;}.cls-10{stroke-width:1.41px;}.cls-11{stroke-width:0.02px;}.cls-12{stroke-width:0.03px;}.cls-13{stroke-width:0.88px;}.cls-14{stroke-width:1.16px;}.cls-15{stroke-width:1.4px;}.cls-16{stroke-width:0.7px;}.cls-17{stroke-width:0.39px;}.cls-18{stroke-width:0.33px;}.cls-19{stroke-width:0.31px;}.cls-20{stroke-width:0.33px;}.cls-21{stroke-width:0.14px;}.cls-22{stroke-width:1.09px;}.cls-23{stroke-width:0.94px;}.cls-24{stroke-width:1.28px;}.cls-25{stroke-width:1.02px;}.cls-26{stroke-width:0.58px;}.cls-27{stroke-width:0.62px;}.cls-28{stroke-width:0.35px;}.cls-29{stroke-width:0.91px;}.cls-30{stroke-width:1.04px;}.cls-31{stroke-width:0.04px;}.cls-32{stroke-width:0.5px;}.cls-33{stroke-width:1.03px;}.cls-34{stroke-width:1.34px;}.cls-35{stroke-width:1.09px;}.cls-36{stroke-width:1.31px;}.cls-37{stroke-width:0.92px;}.cls-38{stroke-width:1.32px;}.cls-39{stroke-width:1.12px;}.cls-40{stroke-width:0.19px;}.cls-41{fill:#fff;stroke:#333;}.cls-42{font-size:12px;}.cls-42,.cls-44{font-family:MyriadPro-Regular, Myriad Pro;}.cls-43{fill:#282828;}.cls-44{font-size:18px;}.cls-45{letter-spacing:0.01em;}.cls-46{letter-spacing:0em;}.cls-47{letter-spacing:0.03em;}.cls-48{letter-spacing:0.01em;}</style></defs><title>nn-model_2</title><g id="Layer_2" data-name="Layer 2"><g id="Layer_1-2" data-name="Layer 1"><line class="cls-1" x1="69.47" y1="10.5" x2="207.47" y2="90.5"/><line class="cls-2" x1="69.47" y1="10.5" x2="207.47" y2="130.5"/><line class="cls-3" x1="69.47" y1="10.5" x2="207.47" y2="170.5"/><line class="cls-4" x1="69.47" y1="10.5" x2="207.47" y2="210.5"/><line class="cls-5" x1="69.47" y1="50.5" x2="207.47" y2="90.5"/><line class="cls-6" x1="69.47" y1="50.5" x2="207.47" y2="130.5"/><line class="cls-7" x1="69.47" y1="50.5" x2="207.47" y2="170.5"/><line class="cls-8" x1="69.47" y1="50.5" x2="207.47" y2="210.5"/><line class="cls-9" x1="69.47" y1="90.5" x2="207.47" y2="90.5"/><line class="cls-10" x1="69.47" y1="90.5" x2="207.47" y2="130.5"/><line class="cls-11" x1="69.47" y1="90.5" x2="207.47" y2="170.5"/><line class="cls-12" x1="69.47" y1="90.5" x2="207.47" y2="210.5"/><line class="cls-13" x1="69.47" y1="130.5" x2="207.47" y2="90.5"/><line class="cls-14" x1="69.47" y1="130.5" x2="207.47" y2="130.5"/><line class="cls-15" x1="69.47" y1="130.5" x2="207.47" y2="170.5"/><line class="cls-16" x1="69.47" y1="130.5" x2="207.47" y2="210.5"/><line class="cls-17" x1="69.47" y1="170.5" x2="207.47" y2="90.5"/><line class="cls-18" x1="69.47" y1="170.5" x2="207.47" y2="130.5"/><line class="cls-19" x1="69.47" y1="170.5" x2="207.47" y2="170.5"/><line class="cls-20" x1="69.47" y1="170.5" x2="207.47" y2="210.5"/><line class="cls-21" x1="69.47" y1="210.5" x2="207.47" y2="90.5"/><line class="cls-22" x1="69.47" y1="210.5" x2="207.47" y2="130.5"/><line class="cls-23" x1="69.47" y1="210.5" x2="207.47" y2="170.5"/><line class="cls-24" x1="69.47" y1="210.5" x2="207.47" y2="210.5"/><line class="cls-25" x1="69.47" y1="250.5" x2="207.47" y2="90.5"/><line class="cls-26" x1="69.47" y1="250.5" x2="207.47" y2="130.5"/><line class="cls-27" x1="69.47" y1="250.5" x2="207.47" y2="170.5"/><line class="cls-28" x1="69.47" y1="250.5" x2="207.47" y2="210.5"/><line class="cls-29" x1="69.47" y1="290.5" x2="207.47" y2="90.5"/><line class="cls-30" x1="69.47" y1="290.5" x2="207.47" y2="130.5"/><line class="cls-31" x1="69.47" y1="290.5" x2="207.47" y2="170.5"/><line class="cls-32" x1="69.47" y1="290.5" x2="207.47" y2="210.5"/><line class="cls-33" x1="207.47" y1="90.5" x2="345.47" y2="130.5"/><line class="cls-34" x1="207.47" y1="90.5" x2="345.47" y2="170.5"/><line class="cls-35" x1="207.47" y1="130.5" x2="345.47" y2="130.5"/><line class="cls-36" x1="207.47" y1="130.5" x2="345.47" y2="170.5"/><line class="cls-37" x1="207.47" y1="170.5" x2="345.47" y2="130.5"/><line class="cls-38" x1="207.47" y1="170.5" x2="345.47" y2="170.5"/><line class="cls-39" x1="207.47" y1="210.5" x2="345.47" y2="130.5"/><line class="cls-40" x1="207.47" y1="210.5" x2="345.47" y2="170.5"/><circle id="_0_0" data-name="0_0" class="cls-41" cx="69.47" cy="10.5" r="10"/><circle id="_0_1" data-name="0_1" class="cls-41" cx="69.47" cy="50.5" r="10"/><circle id="_0_2" data-name="0_2" class="cls-41" cx="69.47" cy="90.5" r="10"/><circle id="_0_3" data-name="0_3" class="cls-41" cx="69.47" cy="130.5" r="10"/><circle id="_0_4" data-name="0_4" class="cls-41" cx="69.47" cy="170.5" r="10"/><circle id="_0_5" data-name="0_5" class="cls-41" cx="69.47" cy="210.5" r="10"/><circle id="_0_6" data-name="0_6" class="cls-41" cx="69.47" cy="250.5" r="10"/><circle id="_0_7" data-name="0_7" class="cls-41" cx="69.47" cy="290.5" r="10"/><circle id="_0_8" data-name="0_8" class="cls-41" cx="207.47" cy="90.5" r="10"/><circle id="_0_9" data-name="0_9" class="cls-41" cx="207.47" cy="130.5" r="10"/><circle id="_0_10" data-name="0_10" class="cls-41" cx="207.47" cy="170.5" r="10"/><circle id="_0_11" data-name="0_11" class="cls-41" cx="207.47" cy="210.5" r="10"/><circle id="_0_12" data-name="0_12" class="cls-41" cx="345.47" cy="130.5" r="10"/><circle id="_0_13" data-name="0_13" class="cls-41" cx="345.47" cy="170.5" r="10"/><text class="cls-42" transform="matrix(0.76, -0.65, 0.65, 0.76, 330.99, 116.57)">t</text><text class="cls-42" transform="translate(333.55 114.1) rotate(-26.69)">u</text><text class="cls-42" transform="matrix(0.97, -0.22, 0.22, 0.97, 339.07, 111.44)">r</text><text class="cls-42" transform="translate(342.46 110.45) rotate(0.93)">n</text><text class="cls-42" transform="matrix(0.97, 0.22, -0.22, 0.97, 348.72, 110.72)"> </text><text class="cls-42" transform="translate(350.96 111.21) rotate(19.93)">l</text><text class="cls-42" transform="translate(353.36 111.87) rotate(31.54)">e</text><text class="cls-42" transform="translate(358.07 114.87) rotate(43.89)">f</text><text class="cls-42" transform="matrix(0.59, 0.81, -0.81, 0.59, 360.47, 117.12)">t</text><text class="cls-42" transform="matrix(0.35, 0.94, -0.94, 0.35, 326.14, 181.09)">t</text><text class="cls-42" transform="translate(328.16 186.38) rotate(51.67)">u</text><text class="cls-42" transform="translate(333.61 192.53) rotate(33.87)">r</text><text class="cls-42" transform="matrix(0.96, 0.27, -0.27, 0.96, 338.34, 195.64)">n</text><text class="cls-42" transform="translate(346.22 197.37) rotate(-0.93)"> </text><text class="cls-42" transform="translate(349.74 197.32) rotate(-10.84)">r</text><text class="cls-42" transform="matrix(0.92, -0.38, 0.38, 0.92, 354.65, 196.2)">i</text><text class="cls-42" transform="matrix(0.78, -0.63, 0.63, 0.78, 358.66, 194.6)">g</text><text class="cls-42" transform="translate(365.25 188.77) rotate(-61.4)">h</text><text class="cls-42" transform="translate(368.79 181.31) rotate(-79.51)">t</text><path class="cls-43" d="M32.23,151a30,30,0,0,0,1.61-6.12,76.51,76.51,0,0,0,.78-8.68q.39-8.54.39-19.92V62.37q0-13.23.3-21.13t1-12.87a27.62,27.62,0,0,1,1.58-7q.91-2,2.48-2V23q-.92-.43-1.51,3.63t-.89,11.1q-.3,7-.3,20v53.77q0,11-.22,17.85t-.59,10.81a64.91,64.91,0,0,1-.92,6.62A27.61,27.61,0,0,1,34.65,151a32.3,32.3,0,0,1,1.79,7.26q.61,4.27.85,10.1.35,7.54.35,22.62v52.78q0,13.51.37,21a92.62,92.62,0,0,0,1,11q.6,2.56,1.32,2.42v3.42a2.51,2.51,0,0,1-2.27-1.42,21.63,21.63,0,0,1-1.75-6.69q-.67-4.69-1-13.09T35,235.79V186.71q0-12.8-.25-18.92T34,157.9A32.19,32.19,0,0,0,32.23,151Z"/><text class="cls-44" transform="translate(15.07 206.14) rotate(-90)"><tspan class="cls-45">S</tspan><tspan class="cls-46" x="8.98" y="0">enso</tspan><tspan class="cls-47" x="45" y="0">r</tspan><tspan class="cls-46" x="51.34" y="0">y </tspan><tspan class="cls-48" x="63.63" y="0">I</tspan><tspan x="68.11" y="0">nput</tspan></text></g></g></svg>