<svg xmlns="http://www.w3.org/2000/svg" viewBox="0 0 671.36 461.24"><defs><style>.cls-1{font-size:36px;font-family:MyriadPro-Regular, Myriad Pro;}.cls-2{fill:#0074ff;}.cls-3{fill:none;stroke:#000;stroke-miterlimit:10;}.cls-4{letter-spacing:-0.01em;}.cls-5{letter-spacing:0em;}.cls-6{letter-spacing:-0.01em;}.cls-7{letter-spacing:0em;}.cls-8{letter-spacing:-0.04em;}.cls-9{letter-spacing:-0.04em;}</style></defs><title>Asset 4</title><g id="Layer_2" data-name="Layer 2"><g id="Layer_1-2" data-name="Layer 1"><text class="cls-1" transform="translate(28.98 177.32) rotate(-73.52)"> </text><text class="cls-1" transform="translate(31.08 170.19) rotate(-71.38)"> </text><text class="cls-1" transform="translate(33.06 163.28) rotate(-66.97)">D</text><text class="cls-1" transform="translate(42.52 141.77) rotate(-62.45)">i</text><text class="cls-1" transform="matrix(0.51, -0.86, 0.86, 0.51, 46.24, 134.53)">r</text><text class="cls-1" transform="matrix(0.56, -0.83, 0.83, 0.56, 51.68, 124.97)">e</text><text class="cls-1" transform="translate(61.6 110.51) rotate(-50.9)">c</text><text class="cls-1" transform="translate(71.87 97.99) rotate(-46.89)">t</text><text class="cls-1" transform="matrix(0.72, -0.7, 0.7, 0.72, 79.83, 89.54)">i</text><text class="cls-1" transform="translate(85.46 83.79) rotate(-40.2)">o</text><text class="cls-1" transform="matrix(0.82, -0.57, 0.57, 0.82, 100.11, 71.38)">n</text><text class="cls-1" transform="matrix(0.86, -0.51, 0.51, 0.86, 116.31, 60.39)"> </text><text class="cls-1" transform="translate(122.46 56.5) rotate(-27.25)">1</text><text class="cls-1" transform="translate(138.61 48.36) rotate(-23.62)"> </text><text class="cls-1" transform="translate(145.39 45.39) rotate(-21.49)"> </text><text class="cls-1" transform="translate(152.27 42.68) rotate(-19.36)"> </text><text class="cls-1" transform="translate(159.27 40.21) rotate(-17.22)"> </text><text class="cls-1" transform="matrix(0.97, -0.26, 0.26, 0.97, 166.35, 38.01)"> </text><text class="cls-1" transform="matrix(0.97, -0.22, 0.22, 0.97, 173.51, 36.08)"> </text><text class="cls-1" transform="translate(180.73 34.41) rotate(-10.82)"> </text><text class="cls-1" transform="matrix(0.99, -0.15, 0.15, 0.99, 188.01, 33.02)"> </text><text class="cls-1" transform="translate(195.32 31.89) rotate(-6.58)"> </text><text class="cls-1" transform="translate(202.69 31.04) rotate(-4.48)"> </text><text class="cls-1" transform="matrix(1, -0.04, 0.04, 1, 210.07, 30.46)"> </text><text class="cls-1" transform="matrix(1, -0.02, 0.02, 1, 217.57, 30.19)"> </text><text class="cls-1" transform="translate(224.88 30.1) rotate(1.78)"> </text><text class="cls-1" transform="translate(232.3 30.33) rotate(3.88)"> </text><text class="cls-1" transform="translate(239.69 30.83) rotate(5.98)"> </text><text class="cls-1" transform="translate(247.08 31.6) rotate(8.1)"> </text><text class="cls-1" transform="translate(254.4 32.64) rotate(10.22)"> </text><text class="cls-1" transform="translate(261.7 33.95) rotate(12.35)"> </text><text class="cls-1" transform="matrix(0.97, 0.25, -0.25, 0.97, 268.95, 35.53)"> </text><text class="cls-1" transform="matrix(0.96, 0.29, -0.29, 0.96, 276.11, 37.37)"> </text><text class="cls-1" transform="translate(283.23 39.49) rotate(18.75)"> </text><text class="cls-1" transform="translate(290.24 41.87) rotate(20.88)"> </text><text class="cls-1" transform="translate(297.17 44.51) rotate(23.01)"> </text><text class="cls-1" transform="translate(303.9 47.01) rotate(27.41)">D</text><text class="cls-1" transform="matrix(0.85, 0.53, -0.53, 0.85, 324.64, 58.09)">i</text><text class="cls-1" transform="translate(331.58 62.36) rotate(34.72)">r</text><text class="cls-1" transform="matrix(0.78, 0.63, -0.63, 0.78, 340.7, 68.51)">e</text><text class="cls-1" transform="translate(354.37 79.5) rotate(43.45)">c</text><text class="cls-1" transform="matrix(0.68, 0.74, -0.74, 0.68, 366.05, 90.68)">t</text><text class="cls-1" transform="translate(373.9 99.27) rotate(50.25)">i</text><text class="cls-1" transform="translate(379.19 105.31) rotate(54.15)">o</text><text class="cls-1" transform="translate(390.46 120.86) rotate(59.66)">n</text><text class="cls-1" transform="matrix(0.45, 0.89, -0.89, 0.45, 400.18, 137.85)"> </text><text class="cls-1" transform="translate(403.58 144.25) rotate(67.13)">2</text><text class="cls-1" transform="translate(410.46 160.97) rotate(70.77)"> </text><text class="cls-1" transform="translate(412.91 167.98) rotate(72.91)"> </text><text class="cls-1" transform="matrix(0.26, 0.97, -0.97, 0.26, 415.1, 175.07)"> </text><text class="cls-1" transform="translate(417.01 182.23) rotate(77.18)"> </text><text class="cls-1" transform="matrix(0.19, 0.98, -0.98, 0.19, 418.66, 189.46)"> </text><text class="cls-1" transform="matrix(0.15, 0.99, -0.99, 0.15, 420.04, 196.73)"> </text><text class="cls-1" transform="translate(421.14 204.05) rotate(83.55)"> </text><text class="cls-1" transform="translate(421.98 211.41) rotate(85.65)"> </text><text class="cls-1" transform="matrix(0.04, 1, -1, 0.04, 422.55, 218.82)"> </text><text class="cls-1" transform="translate(422.79 226.16) rotate(89.07)"> </text><text class="cls-1" transform="matrix(-0.03, 1, -1, -0.03, 422.87, 233.64)"> </text><text class="cls-1" transform="matrix(-0.07, 1, -1, -0.07, 422.62, 241.05)"> </text><text class="cls-1" transform="translate(422.11 248.44) rotate(96.12)"> </text><text class="cls-1" transform="translate(421.32 255.81) rotate(98.23)"> </text><text class="cls-1" transform="matrix(-0.18, 0.98, -0.98, -0.18, 420.27, 263.13)"> </text><text class="cls-1" transform="matrix(-0.22, 0.98, -0.98, -0.22, 418.94, 270.43)"> </text><text class="cls-1" transform="translate(417.34 277.68) rotate(104.62)"> </text><text class="cls-1" transform="translate(415.48 284.82) rotate(106.74)"> </text><text class="cls-1" transform="translate(413.34 291.94) rotate(108.88)"> </text><text class="cls-1" transform="translate(410.95 298.94) rotate(111.01)"> </text><text class="cls-1" transform="matrix(-0.43, 0.9, -0.9, -0.43, 408.69, 305.76)">D</text><text class="cls-1" transform="translate(398.33 326.87) rotate(119.93)">i</text><text class="cls-1" transform="matrix(-0.54, 0.84, -0.84, -0.54, 394.32, 333.95)">r</text><text class="cls-1" transform="translate(388.49 343.27) rotate(126.76)">e</text><text class="cls-1" transform="translate(377.96 357.32) rotate(131.48)">c</text><text class="cls-1" transform="translate(367.2 369.39) rotate(135.47)">t</text><text class="cls-1" transform="matrix(-0.75, 0.67, -0.67, -0.75, 358.88, 377.52)">i</text><text class="cls-1" transform="translate(353.02 383.02) rotate(142.17)">o</text><text class="cls-1" transform="translate(337.88 394.82) rotate(147.67)">n</text><text class="cls-1" transform="translate(321.24 405.12) rotate(151.5)"> </text><text class="cls-1" transform="matrix(-0.91, 0.42, -0.42, -0.91, 314.94, 408.75)">3</text><text class="cls-1" transform="translate(298.47 416.21) rotate(158.78)"> </text><text class="cls-1" transform="translate(291.56 418.9) rotate(160.91)"> </text><text class="cls-1" transform="translate(284.56 421.33) rotate(163.04)"> </text><text class="cls-1" transform="translate(277.46 423.49) rotate(165.18)"> </text><text class="cls-1" transform="matrix(-0.98, 0.22, -0.22, -0.98, 270.31, 425.39)"> </text><text class="cls-1" transform="matrix(-0.98, 0.18, -0.18, -0.98, 263.08, 427.02)"> </text><text class="cls-1" transform="translate(255.81 428.38) rotate(171.56)"> </text><text class="cls-1" transform="translate(248.46 429.48) rotate(173.68)"> </text><text class="cls-1" transform="translate(241.11 430.3) rotate(175.79)"> </text><text class="cls-1" transform="matrix(-1, 0.04, -0.04, -1, 233.72, 430.84)"> </text><text class="cls-1" transform="translate(226.33 431.06) rotate(179.07)"> </text><text class="cls-1" transform="translate(218.9 431.13) rotate(-177.96)"> </text><text class="cls-1" transform="translate(211.49 430.87) rotate(-175.86)"> </text><text class="cls-1" transform="matrix(-0.99, -0.11, 0.11, -0.99, 204.07, 430.34)"> </text><text class="cls-1" transform="matrix(-0.99, -0.15, 0.15, -0.99, 196.72, 429.54)"> </text><text class="cls-1" transform="translate(189.38 428.46) rotate(-169.51)"> </text><text class="cls-1" transform="translate(182.09 427.12) rotate(-167.38)"> </text><text class="cls-1" transform="matrix(-0.97, -0.25, 0.25, -0.97, 174.87, 425.51)"> </text><text class="cls-1" transform="matrix(-0.96, -0.29, 0.29, -0.96, 167.71, 423.63)"> </text><text class="cls-1" transform="translate(160.6 421.47) rotate(-160.98)"> </text><text class="cls-1" transform="translate(153.6 419.07) rotate(-158.85)"> </text><text class="cls-1" transform="translate(146.69 416.4) rotate(-156.72)"> </text><text class="cls-1" transform="translate(139.96 413.86) rotate(-152.32)">D</text><text class="cls-1" transform="matrix(-0.85, -0.53, 0.53, -0.85, 119.29, 402.69)">i</text><text class="cls-1" transform="translate(112.37 398.4) rotate(-145.02)">r</text><text class="cls-1" transform="translate(103.28 392.21) rotate(-141)">e</text><text class="cls-1" transform="translate(89.65 381.14) rotate(-136.29)">c</text><text class="cls-1" transform="matrix(-0.67, -0.74, 0.74, -0.67, 78, 369.9)">t</text><text class="cls-1" transform="matrix(-0.64, -0.77, 0.77, -0.64, 70.21, 361.28)">i</text><text class="cls-1" transform="matrix(-0.58, -0.81, 0.81, -0.58, 64.95, 355.22)">o</text><text class="cls-1" transform="translate(53.75 339.63) rotate(-120.08)">n</text><text class="cls-1" transform="translate(44.09 322.58) rotate(-116.24)"> </text><text class="cls-1" transform="translate(40.72 316.16) rotate(-112.6)">4</text><path class="cls-2" d="M221.85,292.63a62.5,62.5,0,1,1,62.5-62.5A62.57,62.57,0,0,1,221.85,292.63Z"/><path d="M221.85,168.13a62,62,0,1,1-62,62,62.07,62.07,0,0,1,62-62m0-1a63,63,0,1,0,63,63,63,63,0,0,0-63-63Z"/><path d="M221.35,39.13h-4q-3.76.08-7.48.3h0l-.3,0h-.22l.06,1c3.95-.25,8-.37,11.93-.37v-1Zm-23.94,1.49q-2.71.34-5.4.76h-.1l-.18,0h-1l-.14,0h-.16l-.28,0h0q-2.33.38-4.64.82l.19,1c3.89-.74,7.86-1.36,11.79-1.86l-.12-1ZM173.85,45.1q-2.44.63-4.86,1.32h0l-.07,0h0l-.27.08h0l-.06,0h0l-.19.06h0l-.06,0h0l-.06,0h0l-.12,0h0l-.05,0h-.11l-.17,0h-.2l-.06,0-.05,0h-.2l-.07,0h0l-.05,0H167l-.06,0h0l-.08,0h0l-.05,0h-.12l-.07,0h0l-.07,0h0l-.05,0h0l-.06,0h0l-.08,0h0l-.06,0h0l-.05,0h0l-.06,0h0l-.08,0h0l-.05,0h0l-.05,0h0l-.08,0h0l-.05,0h-.2l-.07,0h-.25l-.07,0h-.25l-.13,0h0l-.05,0h0l-.06,0h0l-.19.06h0l-.06,0h0l-1.74.56.31,1c3.77-1.23,7.62-2.35,11.46-3.33l-.25-1ZM151,52.52,150,53h0l-.07,0h0l-.19.08h0l-.06,0h0l-.17.07h0l0,0h0l0,0,0,0,0,0-.06,0h0l0,0h0l-.05,0h0l-.08,0h0l-.07,0h0l-.06,0h0l-.16.07h0l-.07,0h0l-.25.1h0Q144.06,55.4,140,57.3l.43.9c3.58-1.69,7.27-3.29,10.95-4.76l-.37-.93ZM129.36,62.77Q124.1,65.67,119,68.9l.54.84c3.34-2.13,6.79-4.18,10.26-6.1l-.48-.88Zm-20.22,12.9-.53.39h0l-.22.16h0l-.06,0h0l-.07.05h0l-.06,0,0,0,0,0,0,0-.05,0,0,0,0,0,0,0,0,0,0,0,0,0-.06,0,0,0,0,0,0,0,0,0,0,0-.14.1,0,0,0,0h0l-.16.12h0l-.05,0h0l-.22.17h0L104.76,79h0l-.22.17h0l-.22.17h0l-.05,0h0l-.16.12h0l0,0h0l0,0h0l-.09.07,0,0,0,0,0,0,0,0,0,0-.06,0,0,0,0,0,0,0,0,0,0,0,0,0,0,0,0,0,0,0,0,0,0,0h0l-.06.05,0,0,0,0,0,0-.05,0h0l-.07.06h0l-.07.05h0l-.06.05h0l-.14.11h0l-.07.05h0q-1.46,1.17-2.9,2.37l.64.77c3-2.53,6.22-5,9.41-7.34l-.59-.81ZM90.69,91q-4.37,4.12-8.47,8.5l.73.68c2.71-2.89,5.54-5.74,8.42-8.46L90.69,91ZM74.31,108.51q-3,3.67-5.86,7.48h0l-.17.22h0l-.12.16h0l0,0v0l0,0h0l-.08.1h0l0,0,0,0,0,0,0,0-.06.09h0l0,0,0,0,0,0,0,0,0,0,0,.06,0,0,0,0,0,0,0,0,0,0,0,.07h0l0,.06,0,0,0,.05v0l-.1.14h0l0,.06h0l-.11.15h0l-.05.07h0L67,118l.81.59c2.32-3.21,4.78-6.38,7.3-9.44l-.77-.64ZM60.24,127.93h0l0,.05v0l0,.06v0l0,.07,0,0,0,0,0,0,0,0,0,0,0,.06,0,0,0,0,0,0,0,0,0,0v0l-.06.09v0l0,0v0l0,0v0l-.1.16h0l0,.06h0l-.15.24h0Q57.69,132,56.1,134.8h0l0,.06h0L56,135h0l0,.06h0l-.1.18h0l0,.05v0l0,.05h0l-.06.11h0l0,0v0l0,0v0l-.09.15,0,0,0,0,0,0,0,0,0,0,0,.06,0,0,0,0,0,0,0,0,0,0,0,0,0,.06,0,0,0,0,0,0,0,.05v0l0,.07v0l0,.06v0l0,.06h0l0,.08h0l0,.07v0l0,.06h0l-.09.16h0l0,.07h0l-.09.16h0l0,.08h0l-.41.74.88.48c1.9-3.47,3.94-6.93,6.06-10.28l-.85-.53ZM48.72,149v0l0,.08,0,0,0,0,0,0,0,0,0,0,0,0,0,.07v0l0,0,0,0,0,0v0l0,.07h0l0,.07v0l0,.06v0l0,.07h0l0,.08v0l0,.07v0l0,.07h0l-.07.16v0l0,.07h0l-.07.16h0l0,.07h0l-.11.25h0l0,.07h0l-.08.17h0l0,.08h0l-.11.25h0l0,.08h0l-.07.17h0l0,.07h0l-.07.16h0l0,.07h0l0,.08h0l-.07.16v0l0,.07v0l-.07.16v0l0,.06v0l0,.07h0l0,.08v0l0,.06v0l0,.06v0l0,.08h0l0,.07v0l0,.05v0l0,.06v0l0,.07v0l0,0v0l0,0v0l0,.07v0l0,0,0,0,0,0,0,0,0,0,0,.07,0,0,0,0v0l0,0v0l-.07.16v0l0,0v0l0,.05h0l0,.11v0l0,.05v0l0,.05v0L46,155v0l0,.06h0l-.08.19h0l0,.06h0l-.11.26h0q-.75,1.77-1.46,3.56h0l-.11.27h0l0,.06h0l-.07.18v0l0,0v0l0,0v0l0,.1v0l.93.37c1.45-3.69,3-7.37,4.71-11l-.91-.42Zm-8.77,22.32q-.49,1.51-.95,3h0l0,.08h0l0,.08h0l0,.09h0l0,.08v0l0,.06v0l0,.08h0l0,.08v0l0,.06v0l0,.06v0l0,.08v0l0,.05v.16l0,.08v.26l0,.11v0l0,.06v0l0,.06v0l-.06.19h0l0,.06h0l-.08.27h0q-.38,1.3-.74,2.61h0l-.08.28h0l0,.07h0l0,.06h0l-.05.2v0l0,.06v0l0,.18v.19l0,.08v.25l0,.06v0l0,.07v0l0,.06v0l0,.07v0l0,.09h0l0,.08h0l0,.08h0l-.4,1.54,1,.24c1-3.84,2.08-7.7,3.29-11.47l-1-.31Zm-5.87,23.25q-.43,2.32-.81,4.66h0v.07h0l0,.27v.6h0v.28l0,.18h0v.09h0q-.43,2.83-.78,5.68l1,.12c.48-3.94,1.09-7.91,1.81-11.8l-1-.18Zm-2.89,23.81,0,.35h0v.08h0v.08h0V219h0v.69h0v1.07h0V221h0v.22h0v.07h0l0,.37h0v.07h0v.07h0v.38h0v.07h0v.07h0v.07h0v.38h0v.07h0v.07h0l0,.45h0v.07h0v.07h0v.38h0V224h0v.07h0v.45h0v.07h0v.14h0v.29h0v.3h0v.22h0V226h0v.75h0v2.85h0v.3h0c0,.14,0,.27,0,.41h1v-.73c0-3.73.11-7.5.33-11.21l-1-.06Zm1.09,23.92-1,.07c.1,1.55.22,3.11.36,4.65h0l0,.37h0v.07h0l0,.29h0v.15h0l0,.21h0v.15h0l0,.21h0v.14h0l0,.21h0V249h0l0,.21h0v.16l0,.28v.08h0l0,.29h0v.07h0l0,.29h0v.07h0l0,.37h0c.13,1.14.26,2.26.41,3.39l1-.13c-.51-3.92-.9-7.92-1.16-11.88Zm3.06,23.66-1,.19,0,.09h0l0,.08h0l0,.18v.2l0,.08h0l0,.08v.89l0,.11v.25l0,.11h0v.16l0,.19v.18l0,.19v.18l0,.18v.18l0,.1v.24h0l0,.1v.25l0,.08v.57l0,.08h0l0,.07v.11l0,.07h0l0,.09h0l0,.08v0l0,.07h0l0,.18h0l0,.09h0l0,.08h0q.68,3,1.46,6l1-.25c-1-3.83-1.89-7.75-2.64-11.64Zm6,23.08-.95.31.36,1.07h0l.09.26h0l0,.07v0l0,.08h0l0,.08v0l0,.06v0l0,.05v0l0,.08v0l0,.06v0l0,0v.08l0,.07v0l0,0v0l0,0v0l0,0h0l0,.11v0l0,.05v0l0,.06h0l.07.19h0l0,.06h0l.09.27h0c.29.83.58,1.64.88,2.47h0l.1.27h0l0,.06h0l.07.19h0l0,.06v0l.07.19h0l0,.05v0l0,.05v0l.06.16v0l0,0v0l0,0v0l0,.07,0,0v0l0,0v0l0,.05v0l0,.08v0l0,.06v0l0,.06v0l.06.16v0l0,.07h0l.1.26h0q.6,1.57,1.23,3.13l.93-.37c-1.48-3.68-2.86-7.45-4.1-11.21Zm8.89,22.14-.9.43.82,1.69h0l.12.25h0l0,.07h0l.08.16v0l0,.06v0l0,.07h0l0,.08v0l0,.06v0l0,.06v0l0,.07v0l0,.05,0,0,0,0,0,0,0,.06,0,0,0,.05,0,0,0,0,0,0,0,0,0,.05,0,0,0,0,0,0,0,0v0l0,0h0l.06.11v0l0,0v0l0,.05h0l.06.11h0l0,.06v0l0,.06h0l.09.18h0l0,.06h0l.13.25h0l.13.25h0q1.28,2.5,2.63,5h0l.13.24h0l0,.06h0l.09.17v0l0,0v0l0,0v0l0,.09,0,0,0,0,0,0,0,0,0,0,0,0,.87-.49c-1.93-3.46-3.77-7-5.48-10.6ZM61.86,332l-.84.54q2,3.14,4.15,6.19h0l.16.22v0l0,0h0l.11.16v0l0,0v0l.1.14,0,0,0,0,0,0,0,0,0,.05,0,0,0,0,0,0,0,0,0,0,0,.06,0,0,0,.05,0,0,0,0,0,0,0,.05h0l0,.07v0l0,.05,0,0,0,.05v0l0,.07h0l0,.06v0l0,.06h0l.05.07h0l0,.07v0l0,.06h0l.1.14h0l0,.06h0l.11.15h0l0,.07h0l.16.22h0l.16.22h0l.55.75h0l.81-.59c-2.35-3.19-4.63-6.5-6.77-9.83ZM76,351.22l-.77.64c1.1,1.31,2.21,2.6,3.34,3.88h0l0,0h0l.12.14,0,0,0,0,0,0,0,0,0,0,.05.06,0,0,0,0,0,0,0,0,0,0,0,0,0,.05,0,0,0,0,0,0,0,.05h0l.06.06h0l0,.05h0l.18.2h0q1.78,2,3.62,3.92l.72-.69c-2.73-2.87-5.4-5.87-7.95-8.91Zm16.43,17.3-.68.73.93.86h0l.21.19h0l.2.19h0l0,0h0l.15.13h0l0,0h0l.14.13h0l0,0h0l.14.13h0l0,0h0l0,0h0l.15.13h0l0,0h0l.09.08h0l0,0,0,0,0,0,0,0,.13.12,0,0,0,0,0,0,0,0,0,0,.07.06,0,0,0,0,0,0,0,0,0,0,.05,0,0,0,0,0,0,0,0,0,0,0,0,0,0,0,0,0,0,0,0,0,0,0,0,0,.05,0,0,0,0,0,0,0,0,0,0,0,.06.05,0,0,0,0,0,0,0,0,0,0,.06.05h0l0,0,0,0,0,0,0,0,.06.06h0l.06,0,0,0,0,0,0,0,.13.11,0,0,0,0h0l.06.05h0l.07.06h0l.06,0h0l.06.05h0l.07.06h0l.07.06h0l.06.06h0l.14.12h0l.06.06h0l.14.12h0l.07.06h0l.14.12h0l.07.06h0l.21.18h0q1.57,1.34,3.16,2.65l.63-.77c-3.07-2.51-6.09-5.15-9-7.84Zm18.47,15.11-.58.81q1.31.94,2.63,1.86h0l.17.12h0l.05,0h0l.17.12h0l.05,0h0l.05,0h0l.16.11h0l0,0h0l.15.1,0,0,0,0,0,0,.14.1,0,0,0,0,0,0,0,0,0,0,.06,0,0,0,0,0,0,0,0,0,0,0,0,0,0,0,0,0,0,0,0,0,0,0,0,0,.07,0,0,0,0,0,0,0,0,0,0,0,.07,0,0,0,0,0,0,0,0,0,0,0,.07,0h0l.05,0,0,0,0,0,0,0,.06,0h0l.07,0,0,0,0,0,0,0,.06,0h0l.07,0h0l.05,0,0,0,.05,0h0l.07,0h0l.06,0h0l.05,0h0l.07,0h0l.06,0h0l.05,0h0l.07,0h0l.07,0h0l.06,0h0l.07,0h0l.07,0h0l.06,0h0l.06,0h0l.07,0h0l.06,0h0l.06,0h0l.15.09h0l.06,0h0l.15.1h0l.06,0h0l.07,0h0l.08,0h0l.06,0h0l.06,0h0l.08,0h0l.07,0h0l.07,0h0l.15.1h0l.07,0h0l.15.1h0l.07,0h0l.15.1h0l.07,0h0l.07,0h0l.15.1h0l.07,0h0l.16.1h0l.07,0h0l.16.1h0l.07,0h0l.16.1h0l.08,0h0l.23.15h0l.53-.85c-3.35-2.1-6.69-4.34-9.91-6.66Zm20.21,12.68-.48.88,0,0h0l.05,0h0l.11.06h0l0,0h0l0,0h0l.09.05h0l0,0,0,0,0,0,0,0,0,0,0,0,.07,0,0,0,0,0,0,0,0,0,0,0,.06,0,0,0,0,0,0,0,0,0,0,0,0,0,.07,0,0,0,0,0,0,0,0,0h0l.07,0h0l.05,0,0,0,0,0h0l.07,0h0l.07,0h0l.05,0h0l.06,0h0l.07,0h0l.05,0h0l.05,0h0l.07,0h0l.06,0h0l.05,0h0l.07,0h0l.07,0h0l.05,0h0l.06,0h0l.08,0h0l.06,0h0l.06,0h0l.08,0h0l.07,0h0l.06,0h0l.15.08h0l.06,0h0l.06,0h0l.08,0h0l.06,0h0l.06,0h0l.08,0h0l.07,0h0l.05,0h0l.06,0h0l.07,0h0l.05,0h0l.06,0h0l.07,0h0l0,0h0l0,0h0l.07,0h0l.05,0,0,0,0,0,0,0,0,0,0,0,0,0,0,0,0,0,0,0,0,0,0,0,.07,0,0,0,0,0,0,0,0,0,0,0,0,0,.07,0,0,0,0,0h0l0,0h0l.09,0h0l0,0h0l.05,0h0l.17.09h0l.06,0h0l.25.12h0q2,1,4,1.92l.42-.91c-3.59-1.66-7.18-3.47-10.67-5.36Zm21.65,10-.36.93.7.27h0l.26.1h0l.09,0h0l.26.1h0l.26.1h0l.08,0h0l.17.06h0l.08,0h0l.08,0h0l.09,0h0l.08,0h0l.07,0h0l.17.06h0l.07,0h0l.08,0h0l.08,0h0l.07,0h0l.07,0h0l.17.06h0l.07,0h0l.07,0h0l.09,0h0l.08,0h0l.07,0h0l.16.06h0l.07,0h0l.07,0h0l.08,0h0l.07,0h0l.06,0h0l.07,0h0l.07,0h0l.06,0h0l.06,0h0l.08,0h0l.06,0h0l.05,0h0l.08,0h0l.08,0h0l0,0h0l.05,0h0l.08,0h0l.05,0h0l0,0h0l.06,0h0l.06,0h0l0,0h0l0,0h0l.07,0h0l0,0h0l0,0h0l0,0,.06,0,0,0h.2l.07,0H159l.08,0h0l0,0h0l0,0h0l.17.06h0l.05,0h0l.05,0h0l.12,0h0l.06,0h0l.06,0h0l.19.06h0l.06,0h0l.26.09h0l.07,0h0c1.06.36,2.12.7,3.19,1l.3-1c-3.78-1.2-7.56-2.53-11.26-4Zm22.74,7.21-.24,1q1.9.47,3.82.91h0l.09,0h0l.18,0h0l.09,0h0l.08,0h0l.18,0h0l.07,0h0l.08,0h0l.09,0h0l.08,0h.11l.07,0h0l.09,0h.2l.08,0h0l.08,0h.2l.08,0h.29l.08,0h.29l.08,0h.61l.08,0h.26l.11,0H183l.18,0h.17l.2,0h.09l.28.06H184l.29.06h0L187,417l.18-1c-3.9-.71-7.82-1.55-11.67-2.51ZM199,417.82l-.12,1q3.42.4,6.89.68h.09l.28,0h2.48l.29,0H209l1.84.11.05-1c-4-.22-8-.56-11.89-1Zm35.76.84c-3.94.28-8,.43-11.93.46v1q2.17,0,4.33-.08h1.74q3-.12,5.93-.32l-.07-1Zm23.65-3.15c-3.88.77-7.84,1.42-11.77,1.95l.13,1h.19q5.88-.79,11.64-1.93l-.19-1Zm23.06-6.11c-3.76,1.26-7.6,2.41-11.43,3.42l.26,1h0l.09,0h0q2.91-.77,5.78-1.63h0l.35-.11h0l.26-.08h0l.09,0h0l.26-.08h0l.26-.08h0l.09,0h0l.27-.08h0q2-.62,4-1.29l-.32-.95Zm22.1-9c-3.57,1.72-7.24,3.35-10.91,4.84l.38.93h0l0,0,.06,0h0l0,0,0,0,0,0,0,0,.06,0,0,0,0,0,0,0,0,0,0,0,0,0,.07,0,0,0h0l0,0,0,0,0,0,.05,0,.05,0,0,0,0,0,0,0,0,0,0,0,.06,0,0,0,0,0,0,0,0,0,0,0h0l.07,0h0l0,0h0l0,0h0l.06,0,0,0,.05,0h0l0,0h0l.05,0h0l.07,0h0l.05,0h0l.05,0h0l.08,0h0l.06,0h0l.06,0h0l.07,0h0l.08,0h0l.05,0h0l.06,0h0l.08,0h0l.07,0h0l.06,0h0l.16-.07h0l.06,0h0l.16-.07h0l.07,0h0l.07,0h0l.08,0h0l.07,0h0l.07,0h0l.16-.07h0l.07,0h0l.08,0h0l.08,0h0l.08,0h0l.08,0h0l.17-.07h0l.07,0h0l.17-.07h0l.08,0h0l.08,0h0l.16-.07h0l.07,0h0l.16-.07h0l.07,0h0l.17-.07h0l.08,0h0l.07,0h0l.16-.07h0l.07,0h0l.16-.07h0l.07,0h0l.08,0h0l.08,0h0l.08,0h0l.06,0h0l.16-.07h0l.06,0h0l.07,0h0l.08,0h0l.06,0h0l.05,0h0l.07,0h0l.06,0h0l.05,0h0l.05,0,0,0,.06,0,0,0,0,0,0,0,0,0,0,0,0,0,.06,0,0,0,0,0h0l0,0h0l.1,0h0l.05,0h0l.05,0h0l.18-.08h0l.06,0h0l2-.95-.43-.9Zm20.79-11.7c-3.33,2.16-6.76,4.23-10.21,6.18l.49.87q3-1.68,5.91-3.46h0l.08,0h0l.16-.1h0l.07,0h0L321,392h0l.06,0h0l.06,0h0l.07,0h0l.06,0h0l.05,0h0l.07,0h0l.06,0,0,0,0,0,0,0,0,0,0,0,.05,0,0,0,0,0,0,0,0,0,0,0,.06,0,0,0,0,0,0,0,0,0,0,0,0,0,.08,0,0,0,0,0h0l0,0h0l.09-.05h0l0,0h0l0,0h0l.16-.1h0l0,0h0l.16-.1h0l.05,0h0l.17-.11h0l.05,0h0l.23-.15h0l.24-.15h0l.06,0h0l.24-.15h0l.24-.15h0l.43-.28-.54-.84Zm19.16-14.22c-3,2.56-6.18,5-9.36,7.41l.6.8q2.26-1.68,4.47-3.42h0l.07-.06h0l.14-.11h0l.06,0h0l.07-.05h0l.07-.06h0l.06,0h0l.05,0h0l.07-.05h0l.05,0,0,0,0,0,0,0,.06,0,0,0,0,0,0,0,0,0,0,0,0,0,0,0,0,0,0,0,0,0,0,0,0,0,.09-.07h0l0,0h0l0,0h0l.15-.12h0l.05,0h0c1.08-.87,2.13-1.74,3.19-2.63h0l0,0-.64-.76ZM360.74,358c-2.68,2.91-5.5,5.78-8.36,8.52l.69.72,1.51-1.46h0l0,0h0l.08-.08h0l0,0,0,0,0,0,0,0,0,0,0,0,0,0,0,0,0,0,0,0,0,0,.06-.06h0l0,0,0,0,.05-.05h0l.06-.06h0l.06-.06h0l.06-.06h0l.13-.13h0q1.39-1.39,2.76-2.8h0l.19-.19h0l.05-.06h0l.12-.13v0l0,0h0l.06-.06h0l.06-.06,0,0,0,0,0,0,0,0h0l.06-.06,0,0,0,0,0,0,0,0,0,0,0,0,0,0,0,0,0,0,0,0,.13-.13h0l0,0h0l.19-.2h0l1.63-1.75-.74-.68Zm15-18.52c-2.3,3.23-4.73,6.42-7.23,9.5l.78.63,0,0h0l.12-.14,0,0,0,0,0,0,0,0,0,0,0,0,0,0,0,0,0,0,0,0,0-.06h0l.06-.07h0l0-.06h0l.17-.21h0q3.37-4.2,6.5-8.6l-.81-.58Zm12.6-20.26c-1.87,3.49-3.89,7-6,10.33l.85.53q2.42-3.89,4.64-7.88h0l0-.05v0l0-.05h0L388,322l0,0,0,0,0,0,0,0,0,0v0l0-.07v0l0-.05v0l0-.07h0l.09-.16h0l.9-1.65-.88-.47Zm9.95-21.69c-1.42,3.7-3,7.4-4.63,11l.91.42c.42-.93.84-1.85,1.25-2.79h0l0-.06h0l.08-.19h0l0-.06v0l0-.06h0l.05-.12h0l0-.05v0l0-.05v0l.07-.16v0l0,0v0l0,0,0,0,0-.06,0,0,0,0,0,0,0,0,0,0v0l0-.07v0l0-.05v0l0-.05v0l0-.08h0l0-.07v0l0-.06v0l0-.08h0l0-.08v0l0-.06v0l0-.07h0l.07-.16h0l0-.07h0l.07-.17h0l0-.07v0l.1-.25h0l0-.08h0l.07-.17h0l0-.08h0l.11-.26h0q1-2.34,1.88-4.71l-.93-.36Zm7.12-22.77c-.94,3.85-2,7.72-3.2,11.5l1,.3q1.79-5.71,3.22-11.56l-1-.24Zm4.19-23.49c-.45,3.94-1,7.91-1.72,11.81l1,.18,0-.09h0v-.08h0l0-.27h0v-.08h0l0-.09h0l0-.18h0v-.18h0l0-.18h0V262h0l0-.18h0v-.09h0v-.07h0l0-.27h0v-.08h0l0-.27h0v-.08h0l0-.27h0v-.08h0l0-.27h0v-.09h0q.7-4.34,1.2-8.74l-1-.11Zm2.21-23.85h-1q0,1.09,0,2.18c0,3.25-.08,6.53-.25,9.76l1,.05c0-.46,0-.92.07-1.38h0V238h0v-.59h0v-.07h0q.13-3.24.15-6.51h0v-.22h0v-.45h0v-.46h0v-.46h0c0-.58,0-1.15,0-1.72Zm-1.76-23.92-1,.14c.54,3.92,1,7.92,1.25,11.87l1-.07v0h0c-.11-1.51-.24-3-.39-4.52h0v-.07h0l0-.21h0v-1l0-.17v-.18h0l0-.27h0v-.09h0q-.29-2.7-.66-5.38ZM405.33,180l-1,.26c1,3.82,1.95,7.73,2.73,11.62l1-.2q-.34-1.66-.7-3.31h0l0-.08h0l0-.18v0l0-.07v-.11l0-.08v-.33l0-.08v-.18l0-.19h0V187h0l-.06-.28h0q-.77-3.36-1.66-6.67Zm-7.69-22.72-.92.38c1.51,3.67,2.91,7.43,4.18,11.18l.95-.32Q400,163,397.78,157.64h0l-.07-.17h0l0-.08h0l0-.08Zm-10.5-21.57-.87.49c2,3.45,3.83,7,5.56,10.56l.9-.44q-.53-1.1-1.08-2.18h0l-.12-.24h0l0-.07v0l-.08-.15v0l0-.05v0l0-.05v0l0-.07v0l0,0,0,0,0,0,0,0,0-.07,0,0,0,0,0,0,0,0,0,0v0l0-.09v0l0,0v0l0-.05h0l-.09-.18h0l0-.06h0l-.13-.25h0q-1.08-2.08-2.2-4.13h0l-.1-.19h0l0-.05v0l0-.05h0l-.07-.12h0l0,0v0l0,0v0l-.05-.09h0l0,0,0,0,0,0,0,0,0,0,0-.07v0l0,0,0,0,0,0v0l-.08-.15h0l0-.06h0l-.13-.24h0l-.41-.73ZM374,115.65l-.8.6c2.37,3.17,4.68,6.46,6.84,9.78l.84-.55v0l0,0,0,0,0,0,0-.06,0,0,0,0,0,0,0,0,0,0-.1-.15v0l0,0v0l-.11-.17h0l0-.06h0l-.15-.23h0q-1.35-2-2.74-4h0l-.16-.23h0l0-.05h0l-.12-.17h0l0,0h0l-.11-.15,0,0,0,0,0,0,0,0v0l-.06-.08,0,0,0,0,0,0,0,0,0,0,0-.05,0,0,0,0,0,0,0,0,0,0,0,0,0-.06,0,0,0,0,0,0,0,0v0l0-.07v0l0,0,0,0,0-.05v0l-.05-.07h0l0-.06v0l0-.06h0l-.1-.14h0l0-.06h0l-.11-.15h0l-.05-.07h0q-.82-1.14-1.66-2.26ZM358.48,97.38l-.72.69c2.75,2.85,5.45,5.83,8,8.85l.76-.65-.36-.43h0l-.18-.21h0l-.18-.2h0l-.05-.06h0l-.12-.14h0l0-.06h0l-.12-.13h0l-.05-.06h0l-.12-.13h0l0-.06h0l-.05-.06h0l-.06-.07h0l0-.05v0l0-.05h0l-.06-.07h0l0-.06,0,0,0-.05h0l-.06-.07h0l-.05-.06v0l0,0,0,0-.11-.13v0l0-.05v0l-.05-.06h0l-.06-.07h0l0-.05v0l-.05-.06h0l-.06-.07h0l0-.06h0l-.05-.06h0l-.12-.13h0l-.05-.06h0l-.12-.13h0l0-.06h0l-.12-.13h0l-.05-.06h0l-.12-.13h0l-.06-.06h0l-.18-.2h0l-.18-.2h0q-2.13-2.37-4.35-4.66ZM340.78,81.2l-.63.78c3.08,2.48,6.13,5.1,9.06,7.78l.67-.74h0l0,0-.07-.06,0,0,0,0,0,0,0,0,0,0,0,0,0,0,0,0,0,0,0,0,0,0,0,0-.06-.05,0,0,0,0,0,0,0,0,0,0-.06-.05,0,0,0,0,0,0,0,0,0,0-.06-.06h0l-.05,0,0,0,0,0,0,0-.06-.06h0l-.06-.06,0,0,0,0,0,0-.06,0h0l-.06-.06,0,0,0,0,0,0-.05,0h0l-.06-.06,0,0,0,0,0,0,0,0h0l-.06-.06h0l-.05,0,0,0,0,0,0,0-.06-.06h0l-.05,0,0,0,0,0,0,0-.06,0h0l-.05,0,0,0,0,0,0,0,0,0,0,0-.06-.05,0,0,0,0,0,0,0,0,0,0-.06-.05,0,0,0,0,0,0,0,0,0,0-.06-.05,0,0,0,0,0,0,0,0,0,0,0,0-.06-.05,0,0,0,0,0,0,0,0,0,0-.08-.07h0l0,0,0,0,0,0,0,0-.09-.08h0l0,0,0,0,0,0h0l-.14-.12h0l0,0h0l-.21-.18h0q-2.4-2.07-4.87-4.05ZM321.19,67.35l-.52.85c3.37,2.08,6.72,4.29,10,6.58l.58-.82,0,0,0,0,0,0,0,0-.08-.06h0l0,0,0,0,0,0h0l-.15-.1,0,0,0,0h0l-.15-.11h0l0,0h0l-.16-.11h0l0,0h0l-.05,0h0l-.17-.12h0l-.05,0h0l-.16-.11h0l0,0h0l-.16-.11h0l0,0h0l-.16-.11h0l0,0h0l0,0h0l-.11-.08h0l0,0h0l0,0h0l-.15-.1h0l0,0h0l-.15-.1,0,0,0,0,0,0,0,0,0,0-.07-.05,0,0,0,0,0,0,0,0,0,0-.06,0,0,0,0,0,0,0,0,0,0,0,0,0-.06,0,0,0,0,0,0,0,0,0,0,0-.06,0,0,0,0,0,0,0,0,0,0,0-.07,0h0l-.05,0,0,0,0,0,0,0-.06,0h0l-.07,0h0l-.05,0h0l-.06,0h0l-.07,0h0l-.06,0h0l-.06,0h0l-.07,0h0l-.07,0h0l-.06,0h0l-.15-.1h0l-.07,0h0l-.15-.1h0l-.07,0h0l-.23-.15h0l-.23-.15h0q-1.69-1.1-3.4-2.17h0l-.16-.1h0l-.07,0h0l-.16-.1h0l-.07,0h0l-.07,0h0l-.08,0h0l-.06,0h0l-.05,0ZM300,56.08l-.41.91c3.61,1.64,7.21,3.41,10.71,5.28l.47-.88q-4.25-2.26-8.63-4.32h0l-.07,0h0l-.16-.07h0l-.05,0h0l0,0,0,0-.06,0,0,0h0l0,0h0L300,56.08ZM277.6,47.56l-.29,1c3.78,1.17,7.58,2.47,11.29,3.88l.35-.93h0l-.05,0h0l-.06,0h0l-.07,0h0l0,0,0,0h0l0,0h0l-.1,0h0l-.06,0h0l-.06,0h0l-.27-.1h0q-5.11-1.91-10.35-3.52ZM254.28,42l-.17,1c3.91.68,7.84,1.49,11.69,2.42l.23-1-1.18-.28h0l-.09,0h0l-.18,0h0l-.09,0h0l-.27-.06h0l-.08,0h0l-.08,0h0l-.18,0h0l-.07,0h0l-.08,0h0l-.09,0h0l-.08,0h0l-.07,0h0l-.17,0h0l-.07,0H263l-.17,0h-.19l-.09,0h0l-.07,0h-.2l-.08,0h0l-.07,0H262l-.07,0h0l-.08,0h-.2l-.08,0h0l-.08,0h-.2l-.17,0h-.2l-.08,0h0l-.07,0h-.2l-.08,0h-.28l-.08,0h-.2l-.08,0h0l-.08,0h-.2l-.08,0h-.29l-.08,0h-.29l-.08,0h-.61l-.08,0h-.26l-.12,0h-.18l-.19,0h-.16l-.22,0h-.08L254.28,42Zm-23.84-2.62,0,1c4,.19,8,.5,11.9.93l.11-1-.18,0h0l-.28,0h-.19l-.18,0h-7.28l-.28,0h0q-1.78-.12-3.57-.2Z"/><line class="cls-3" x1="221.35" y1="40.13" x2="221.35" y2="230.13"/><line class="cls-3" x1="220.85" y1="229.63" x2="31.85" y2="229.63"/><line class="cls-3" x1="516.85" y1="229.63" x2="220.85" y2="229.63"/><line class="cls-3" x1="221.35" y1="230.13" x2="221.35" y2="421.13"/><line class="cls-3" x1="516.83" y1="230.17" x2="496.83" y2="250.17"/><line class="cls-3" x1="517.35" y1="229.71" x2="497.35" y2="209.71"/><circle class="cls-3" cx="491.85" cy="107.12" r="18"/><text class="cls-1" transform="translate(483.85 119.13)">L</text><circle class="cls-3" cx="491.35" cy="156.62" r="18"/><text class="cls-1" transform="translate(480.35 168.63)">D</text><circle class="cls-3" cx="142.34" cy="189.2" r="18" transform="translate(-93.35 166.62) rotate(-47.57)"/><text class="cls-1" transform="translate(145.8 203.2) rotate(-47.57)">L</text><circle class="cls-3" cx="174.75" cy="154.48" r="18" transform="translate(-57.17 179.25) rotate(-47.57)"/><text class="cls-1" transform="translate(176.19 170.69) rotate(-47.57)">D</text><circle class="cls-3" cx="182.09" cy="310.16" r="18" transform="translate(-170.9 241.24) rotate(-48.54)"/><text class="cls-1" transform="translate(196.03 306.46) rotate(-138.54)">L</text><circle class="cls-3" cx="146.83" cy="278.33" r="18" transform="translate(-158.96 204.06) rotate(-48.54)"/><text class="cls-1" transform="translate(163.02 276.62) rotate(-138.54)">D</text><circle class="cls-3" cx="302.03" cy="268.97" r="18" transform="translate(-99.84 314.44) rotate(-48.14)"/><text class="cls-1" transform="translate(298.43 255) rotate(131.86)">L</text><circle class="cls-3" cx="269.96" cy="304.01" r="18" transform="matrix(0.67, -0.74, 0.74, 0.67, -136.61, 302.22)"/><text class="cls-1" transform="translate(268.37 287.81) rotate(131.86)">D</text><circle class="cls-3" cx="261.46" cy="149.32" r="18" transform="translate(-25.12 241.7) rotate(-47.6)"/><text class="cls-1" transform="translate(247.46 152.79) rotate(42.4)">L</text><circle class="cls-3" cx="296.2" cy="181.72" r="18" transform="translate(-37.73 277.9) rotate(-47.6)"/><text class="cls-1" transform="translate(279.98 183.17) rotate(42.4)">D</text><text class="cls-1" transform="translate(523.54 119.38)">like</text><text class="cls-1" transform="translate(524.04 168.55)">di<tspan class="cls-4" x="28.73" y="0">ff</tspan><tspan class="cls-5" x="49.25" y="0">e</tspan><tspan class="cls-6" x="67.28" y="0">r</tspan><tspan x="78.7" y="0">e</tspan><tspan class="cls-7" x="96.73" y="0">n</tspan><tspan class="cls-5" x="116.57" y="0">t</tspan></text><text class="cls-1" transform="translate(463.36 69.47)">Neu<tspan class="cls-6" x="61.56" y="0">r</tspan><tspan x="72.97" y="0">on</tspan><tspan class="cls-8" x="112.71" y="0"> </tspan><tspan class="cls-9" x="118.87" y="0">T</tspan><tspan class="cls-5" x="135.32" y="0">ypes</tspan></text><line class="cls-3" x1="468.35" y1="71.63" x2="671.35" y2="72.63"/></g></g></svg>