<?xml version="1.0" standalone="no"?>
<!DOCTYPE svg PUBLIC "-//W3C//DTD SVG 20010904//EN"
 "http://www.w3.org/TR/2001/REC-SVG-20010904/DTD/svg10.dtd">
<svg version="1.0" xmlns="http://www.w3.org/2000/svg"
 width="605.000000pt" height="242.000000pt" viewBox="0 0 605.000000 242.000000"
 preserveAspectRatio="xMidYMid meet">
 <style>.white{fill:#fff;}</style>
<g transform="translate(0.000000,242.000000) scale(0.100000,-0.100000)"
fill="#c8352b" stroke="none">
<path d="M0 1210 l0 -1210 3025 0 3025 0 0 1210 0 1210 -3025 0 -3025 0 0
-1210z m1182 605 c93 -19 148 -46 203 -96 88 -81 121 -192 95 -321 -23 -119
-88 -209 -180 -252 l-47 -22 123 -202 c147 -245 171 -280 195 -287 31 -10 22
-33 -18 -51 -50 -21 -157 -20 -212 2 -61 24 -106 82 -237 305 l-117 199 -54 0
-53 0 0 -210 0 -210 -126 0 -126 0 8 23 c13 35 17 1045 4 1090 -6 20 -8 43 -4
49 10 16 457 3 546 -17z m1103 -230 l0 -80 -202 -3 -203 -2 0 -120 0 -120 130
0 130 0 0 -85 0 -85 -130 0 -130 0 0 -125 0 -125 203 -2 202 -3 3 -82 3 -83
-326 0 -325 0 0 493 c0 272 3 497 7 500 4 4 149 6 322 5 l316 -3 0 -80z m688
61 c172 -48 267 -153 298 -330 17 -100 7 -295 -20 -371 -42 -120 -131 -204
-259 -247 -60 -20 -93 -22 -309 -26 l-243 -4 0 502 0 502 238 -5 c174 -3 252
-9 295 -21z m1087 -61 l0 -85 -205 0 -205 0 0 -120 0 -120 135 0 135 0 0 -85
0 -85 -135 0 -135 0 0 -210 0 -210 -115 0 -115 0 0 500 0 500 320 0 320 0 0
-85z m380 -415 l0 -500 -120 0 -120 0 0 493 c0 272 3 497 7 500 3 4 57 7 120
7 l113 0 0 -500z m556 219 l209 -281 3 282 2 281 118 -3 117 -3 3 -497 2 -498
-99 0 -99 0 -203 284 -204 285 -3 -285 -2 -284 -120 0 -120 0 0 500 0 500 94
0 94 0 208 -281z"/>
<path d="M880 1461 l0 -201 101 0 c121 0 172 13 214 56 80 79 70 252 -18 318
-25 18 -45 21 -163 24 l-134 4 0 -201z"/>
<path d="M2670 1165 l0 -338 99 6 c111 7 161 23 208 69 52 50 68 112 68 263 0
255 -56 323 -271 333 l-104 5 0 -338z"/>
</g>
</svg>
