<svg id="Layer_1" data-name="Layer 1" xmlns="http://www.w3.org/2000/svg" viewBox="0 0 800 800"><defs><style>.cls-1{fill:#fff;}.cls-2{fill:#00657b;}.cls-3{fill:#ff7800;}</style></defs><title>Artboard 1</title><g id="Layer_2" data-name="Layer 2"><g id="Layer_3" data-name="Layer 3"><path class="cls-1" d="M372.3,464c-59.06-17-94.39-74.5-71.62-153.76s95-150.33,154.07-133.38,82.62,115.49,59.86,194.8S431.38,481,372.3,464Z"/><path class="cls-2" d="M174.64,622.51q-19.85,0-30.24-11T134,580.1a48.23,48.23,0,0,1,3.17-18,38.85,38.85,0,0,1,8.69-13.39A36.31,36.31,0,0,1,159,540.4a47.43,47.43,0,0,1,16.56-2.82,53.12,53.12,0,0,1,9.4.76,61.23,61.23,0,0,1,7.4,1.76,36.56,36.56,0,0,1,5.29,2h0a3.91,3.91,0,0,1,2,4.76l-2.74,7.69a3.91,3.91,0,0,1-5,2.44l-.1,0a50.9,50.9,0,0,0-5.13-1.74,41.81,41.81,0,0,0-11.33-1.41,25.06,25.06,0,0,0-8.28,1.41,18.73,18.73,0,0,0-7.16,4.52,22.53,22.53,0,0,0-5,8,33.77,33.77,0,0,0-2,12,42.77,42.77,0,0,0,1.23,10.51,22.28,22.28,0,0,0,3.91,8.4,19.14,19.14,0,0,0,7.22,5.58,25.7,25.7,0,0,0,10.8,2,49.23,49.23,0,0,0,7.16-.47,52.85,52.85,0,0,0,5.64-1.12,29.48,29.48,0,0,0,4.35-1.47h0a3.39,3.39,0,0,1,4.48,1.7q.06.13.1.26l3.07,8.61a3.41,3.41,0,0,1-1.84,4.21,53.77,53.77,0,0,1-8.12,2.78A63.69,63.69,0,0,1,174.64,622.51Z"/><path class="cls-2" d="M268.83,589.86a40.13,40.13,0,0,1-2.11,13.33,29,29,0,0,1-6.11,10.34,27.4,27.4,0,0,1-9.57,6.64,34.16,34.16,0,0,1-24.9,0,27.4,27.4,0,0,1-9.57-6.64,30.38,30.38,0,0,1-6.22-10.34,38.25,38.25,0,0,1-2.23-13.33,36.88,36.88,0,0,1,2.23-13.37,30.09,30.09,0,0,1,6.34-10.22,28.48,28.48,0,0,1,9.63-6.58,31,31,0,0,1,12.16-2.35,31.32,31.32,0,0,1,12.27,2.35,27.89,27.89,0,0,1,9.57,6.58,29.87,29.87,0,0,1,6.28,10.22A37.78,37.78,0,0,1,268.83,589.86Zm-17.85,0a22,22,0,0,0-3.23-12.74,10.57,10.57,0,0,0-9.22-4.64,10.71,10.71,0,0,0-9.28,4.64A21.71,21.71,0,0,0,226,589.86a22.28,22.28,0,0,0,3.29,12.86,10.63,10.63,0,0,0,9.28,4.76,10.49,10.49,0,0,0,9.22-4.76A22.59,22.59,0,0,0,251,589.86Z"/><path class="cls-2" d="M282.34,565.51a5.52,5.52,0,0,1,4.35-5.4q3.17-.69,7.18-1.33a94.6,94.6,0,0,1,14.8-1.12,36.09,36.09,0,0,1,13.1,2,19.69,19.69,0,0,1,8.28,5.87,22.67,22.67,0,0,1,4.35,8.93,47.55,47.55,0,0,1,1.29,11.51v29.36a5.58,5.58,0,0,1-5.58,5.58h-6.36a5.58,5.58,0,0,1-5.58-5.58h0V588.1q0-8.46-2.23-12t-8.34-3.54q-2,0-3.91.18h0a4.07,4.07,0,0,0-3.72,4.07v38.44a5.58,5.58,0,0,1-5.58,5.58h-6.46a5.58,5.58,0,0,1-5.58-5.58h0Z"/><path class="cls-2" d="M355.51,543l6.6-1.06a5.44,5.44,0,0,1,6.32,5.38v9.06a2.76,2.76,0,0,0,2.76,2.76H381.4a5.44,5.44,0,0,1,5.07,7.48L385,570.25a5.44,5.44,0,0,1-5.07,3.43h-8.77a2.76,2.76,0,0,0-2.76,2.76h0v19a17.28,17.28,0,0,0,2,8.81q2,3.29,7.83,3.29a33.28,33.28,0,0,0,5.87-.53h0a5.5,5.5,0,0,1,6.45,4.34v0l.59,3.19a5.42,5.42,0,0,1-3.8,6.21l-2.41.65a41.11,41.11,0,0,1-9.51.94,31.32,31.32,0,0,1-11.86-2A18.6,18.6,0,0,1,356,615a20.06,20.06,0,0,1-3.91-8.4A49.58,49.58,0,0,1,351,595.64V548.35A5.44,5.44,0,0,1,355.51,543Z"/><path class="cls-2" d="M422.8,541.26a9.61,9.61,0,0,1-3.11,7.58,11.14,11.14,0,0,1-14.68,0,10.79,10.79,0,0,1,0-15.15,11.14,11.14,0,0,1,14.68,0A9.61,9.61,0,0,1,422.8,541.26Zm-7.18,79.63h-6.44a5.54,5.54,0,0,1-5.54-5.54h0V564.61a5.54,5.54,0,0,1,5.54-5.54h6.44a5.54,5.54,0,0,1,5.54,5.54h0v50.72a5.54,5.54,0,0,1-5.54,5.54h0Z"/><path class="cls-2" d="M490.92,613.12q0,15.15-7.69,22.49T459.45,643a64.6,64.6,0,0,1-11.27-1q-2.82-.51-5.44-1.15a5.5,5.5,0,0,1-3.91-6.48l.74-3.6a5.54,5.54,0,0,1,6.56-4.29l.33.08q1.47.39,3,.72a50.89,50.89,0,0,0,10.28.94q7.52,0,10.63-3.29a11.74,11.74,0,0,0,3.11-8.46V614.2a28.11,28.11,0,0,1-5.87,2,31,31,0,0,1-6.52.65q-12.8,0-19.57-7.58T434.69,588a34.71,34.71,0,0,1,2.11-12.39,26.35,26.35,0,0,1,6.17-9.57,27.52,27.52,0,0,1,9.92-6.17,38,38,0,0,1,13.27-2.17q3.17,0,6.52.29t6.64.76q3.29.47,6.28,1.12h0a6.77,6.77,0,0,1,5.34,6.64ZM452.52,588q0,14.68,11.86,14.68a17.48,17.48,0,0,0,5.05-.7q1-.29,1.82-.63a3.41,3.41,0,0,0,2.17-3.17V575.32a3.39,3.39,0,0,0-3-3.37h0q-1.76-.18-4.11-.18A12,12,0,0,0,456,576.36,19,19,0,0,0,452.52,588Z"/><path class="cls-2" d="M565.15,589.86A40.13,40.13,0,0,1,563,603.19a29,29,0,0,1-6.11,10.34,27.4,27.4,0,0,1-9.57,6.64,34.16,34.16,0,0,1-24.9,0,27.4,27.4,0,0,1-9.57-6.64,30.38,30.38,0,0,1-6.22-10.34,38.25,38.25,0,0,1-2.23-13.33,36.88,36.88,0,0,1,2.29-13.27,30.09,30.09,0,0,1,6.34-10.22,28.48,28.48,0,0,1,9.63-6.58,31,31,0,0,1,12.16-2.35,31.32,31.32,0,0,1,12.27,2.35,27.89,27.89,0,0,1,9.57,6.58,29.87,29.87,0,0,1,6.22,10.22A37.78,37.78,0,0,1,565.15,589.86Zm-17.85,0a22,22,0,0,0-3.23-12.74,10.57,10.57,0,0,0-9.22-4.64,10.71,10.71,0,0,0-9.28,4.64,21.71,21.71,0,0,0-3.29,12.74,22.28,22.28,0,0,0,3.21,12.86,10.63,10.63,0,0,0,9.28,4.76,10.49,10.49,0,0,0,9.22-4.76A22.59,22.59,0,0,0,547.3,589.86Z"/><path class="cls-3" d="M611.62,622.51a41.11,41.11,0,0,1-14.8-2.41,27.52,27.52,0,0,1-10.28-6.69,26.72,26.72,0,0,1-6-10.22,42,42,0,0,1-2-13.1v-42a5.56,5.56,0,0,1,7.83-5.05l7.22,3.31a5.56,5.56,0,0,1,3.23,5.05v37.19A27.56,27.56,0,0,0,598,597a15.44,15.44,0,0,0,3.05,5.64,10.86,10.86,0,0,0,4.7,3.11,18.6,18.6,0,0,0,6,.94,14.8,14.8,0,0,0,10.86-4.11q4.17-4.11,4.17-14V551.42a5.56,5.56,0,0,1,3.23-5.05l7.22-3.31a5.56,5.56,0,0,1,7.83,5.05v42a41.4,41.4,0,0,1-2,13.15A27,27,0,0,1,637,613.51a27.4,27.4,0,0,1-10.45,6.64A43.32,43.32,0,0,1,611.62,622.51Z"/><g id="_68-food_-_egg" data-name=" 68-food - egg"><path class="cls-2" d="M459.31,160.54c-66.24-19-146.24,57.16-171.59,145.48s13.53,155.36,79.78,174.39,134.77-17.17,160.12-105.5S525.49,179.57,459.31,160.54ZM373.18,460.42C318,444.57,285.47,389,307.67,311.66S398.34,164.6,453.54,180.51s76.24,111.34,54.06,188.62-79.16,107.15-134.38,91.29Z"/></g><circle class="cls-2" cx="394.45" cy="260.14" r="14.8" transform="translate(35.55 567.48) rotate(-73.98)"/><circle class="cls-2" cx="461.52" cy="279.39" r="14.8" transform="translate(65.61 645.88) rotate(-73.98)"/><path class="cls-3" d="M407.75,418.4,393.56,422a17.62,17.62,0,0,1-17.19-4.93l-10.1-10.61a8.1,8.1,0,0,0-13.7,3.37l-3.17,11a8.1,8.1,0,0,0,9.79,10.1l14.19-3.62a17.62,17.62,0,0,1,17.19,4.93l10.1,10.61a8.1,8.1,0,0,0,13.7-3.37l3.17-11a8.1,8.1,0,0,0-9.79-10.1Z"/><ellipse class="cls-2" cx="398.73" cy="484.5" rx="101.04" ry="10.53"/><path class="cls-2" d="M414.56,366.39a49.72,49.72,0,0,1-13.7-2c-23.49-6.77-33.49-27.4-36.76-34.14l-.25-.55a7.83,7.83,0,0,1,14.09-6.83l.27.59c2.78,5.75,10.12,21,27,25.88,16.07,4.62,30.61-4.09,36.09-7.38l1.31-.78a7.85,7.85,0,0,1,7.83,13.6l-1,.61C444.2,358.5,431,366.39,414.56,366.39Z"/></g></g></svg>