<svg xmlns="http://www.w3.org/2000/svg" viewBox="0 0 261.18 247.95"><defs><style>.cls-1{fill:#fff;}.cls-2{fill:#00657b;}.cls-3{fill:#ff7800;}</style></defs><title>ContigoU Logo</title><g id="Layer_2" data-name="Layer 2"><g id="Layer_3" data-name="Layer 3"><path class="cls-1" d="M121.74,156.55C91.57,147.89,73.52,118.49,85.15,78s48.53-76.8,78.71-68.14,42.21,59,30.58,99.52S151.92,165.21,121.74,156.55Z"/><path class="cls-2" d="M20.76,237.51q-10.14,0-15.45-5.64T0,215.84a24.64,24.64,0,0,1,1.62-9.21,19.85,19.85,0,0,1,4.44-6.84,18.55,18.55,0,0,1,6.72-4.23,24.23,24.23,0,0,1,8.46-1.44,27.14,27.14,0,0,1,4.8.39,31.28,31.28,0,0,1,3.78.9,18.68,18.68,0,0,1,2.7,1h0a2,2,0,0,1,1,2.43l-1.4,3.93A2,2,0,0,1,29.53,204a26,26,0,0,0-2.62-.89,21.36,21.36,0,0,0-5.79-.72,12.8,12.8,0,0,0-4.23.72,9.57,9.57,0,0,0-3.66,2.31,11.51,11.51,0,0,0-2.55,4.11,17.25,17.25,0,0,0-1,6.12,21.85,21.85,0,0,0,.63,5.37,11.38,11.38,0,0,0,2,4.29,9.78,9.78,0,0,0,3.69,2.85,13.13,13.13,0,0,0,5.52,1,25.15,25.15,0,0,0,3.66-.24,27,27,0,0,0,2.88-.57,15.06,15.06,0,0,0,2.22-.75h0a1.73,1.73,0,0,1,2.34,1L34.19,233a1.74,1.74,0,0,1-.94,2.15,27.47,27.47,0,0,1-4.15,1.42A32.54,32.54,0,0,1,20.76,237.51Z"/><path class="cls-2" d="M68.88,220.83a20.5,20.5,0,0,1-1.08,6.81,14.8,14.8,0,0,1-3.12,5.28,14,14,0,0,1-4.89,3.39,16.32,16.32,0,0,1-6.39,1.2,16.16,16.16,0,0,1-6.33-1.2,14,14,0,0,1-4.89-3.39A15.52,15.52,0,0,1,39,227.64a19.54,19.54,0,0,1-1.14-6.81A18.84,18.84,0,0,1,39,214a15.37,15.37,0,0,1,3.24-5.22,14.55,14.55,0,0,1,4.92-3.36,15.84,15.84,0,0,1,6.21-1.2,16,16,0,0,1,6.27,1.2,14.25,14.25,0,0,1,4.89,3.36A15.26,15.26,0,0,1,67.74,214,19.3,19.3,0,0,1,68.88,220.83Zm-9.12,0a11.24,11.24,0,0,0-1.65-6.51,5.4,5.4,0,0,0-4.71-2.37,5.47,5.47,0,0,0-4.74,2.37A11.09,11.09,0,0,0,47,220.83a11.38,11.38,0,0,0,1.68,6.57,5.43,5.43,0,0,0,4.74,2.43,5.36,5.36,0,0,0,4.71-2.43A11.54,11.54,0,0,0,59.76,220.83Z"/><path class="cls-2" d="M75.78,208.39A2.82,2.82,0,0,1,78,205.63q1.62-.35,3.67-.68a48.33,48.33,0,0,1,7.56-.57,18.44,18.44,0,0,1,6.69,1,10.06,10.06,0,0,1,4.23,3,11.58,11.58,0,0,1,2.22,4.56,24.29,24.29,0,0,1,.66,5.88v15a2.85,2.85,0,0,1-2.85,2.85H96.93a2.85,2.85,0,0,1-2.85-2.85V219.93q0-4.32-1.14-6.12T88.68,212q-1,0-2,.09h0a2.08,2.08,0,0,0-1.9,2.08v19.64a2.85,2.85,0,0,1-2.85,2.85H78.63a2.85,2.85,0,0,1-2.85-2.85Z"/><path class="cls-2" d="M113.16,196.87l3.37-.54a2.78,2.78,0,0,1,3.23,2.75v4.63a1.41,1.41,0,0,0,1.41,1.41h5.22a2.78,2.78,0,0,1,2.59,3.82l-.75,1.87a2.78,2.78,0,0,1-2.59,1.75h-4.48a1.41,1.41,0,0,0-1.41,1.41v9.69a8.83,8.83,0,0,0,1,4.5q1,1.68,4,1.68a17,17,0,0,0,3-.27h0a2.81,2.81,0,0,1,3.3,2.23l.3,1.63a2.77,2.77,0,0,1-1.94,3.17l-1.23.33a21,21,0,0,1-4.86.48,16,16,0,0,1-6.06-1,9.5,9.5,0,0,1-3.84-2.76,10.25,10.25,0,0,1-2-4.29,25.33,25.33,0,0,1-.57-5.58V199.62A2.78,2.78,0,0,1,113.16,196.87Z"/><path class="cls-2" d="M147.54,196a4.91,4.91,0,0,1-1.59,3.87,5.69,5.69,0,0,1-7.5,0,5.51,5.51,0,0,1,0-7.74,5.69,5.69,0,0,1,7.5,0A4.91,4.91,0,0,1,147.54,196Zm-3.67,40.68h-3.29a2.83,2.83,0,0,1-2.83-2.83V207.93a2.83,2.83,0,0,1,2.83-2.83h3.29a2.83,2.83,0,0,1,2.83,2.83v25.91A2.83,2.83,0,0,1,143.87,236.67Z"/><path class="cls-2" d="M182.34,232.71q0,7.74-3.93,11.49t-12.15,3.75a33,33,0,0,1-5.76-.51q-1.44-.26-2.78-.59a2.81,2.81,0,0,1-2-3.31l.38-1.84a2.83,2.83,0,0,1,3.52-2.15q.75.2,1.53.37a26,26,0,0,0,5.25.48q3.84,0,5.43-1.68a6,6,0,0,0,1.59-4.32v-1.14a14.36,14.36,0,0,1-3,1,15.82,15.82,0,0,1-3.33.33q-6.54,0-10-3.87t-3.48-10.83a17.73,17.73,0,0,1,1.08-6.33,13.46,13.46,0,0,1,3.15-4.89,14.06,14.06,0,0,1,5.07-3.15,19.43,19.43,0,0,1,6.78-1.11q1.62,0,3.33.15t3.39.39q1.68.24,3.21.57h0a3.46,3.46,0,0,1,2.73,3.39Zm-19.62-12.84q0,7.5,6.06,7.5a8.93,8.93,0,0,0,2.58-.36q.49-.15.93-.32a1.74,1.74,0,0,0,1.11-1.62V213.4a1.73,1.73,0,0,0-1.54-1.72h0q-.9-.09-2.1-.09a6.15,6.15,0,0,0-5.28,2.34A9.69,9.69,0,0,0,162.72,219.87Z"/><path class="cls-2" d="M220.26,220.83a20.5,20.5,0,0,1-1.08,6.81,14.8,14.8,0,0,1-3.12,5.28,14,14,0,0,1-4.89,3.39,16.32,16.32,0,0,1-6.39,1.2,16.16,16.16,0,0,1-6.33-1.2,14,14,0,0,1-4.89-3.39,15.52,15.52,0,0,1-3.18-5.28,19.54,19.54,0,0,1-1.14-6.81,18.84,18.84,0,0,1,1.17-6.78,15.37,15.37,0,0,1,3.24-5.22,14.55,14.55,0,0,1,4.92-3.36,15.84,15.84,0,0,1,6.21-1.2,16,16,0,0,1,6.27,1.2,14.25,14.25,0,0,1,4.89,3.36,15.26,15.26,0,0,1,3.18,5.22A19.3,19.3,0,0,1,220.26,220.83Zm-9.12,0a11.24,11.24,0,0,0-1.65-6.51,5.4,5.4,0,0,0-4.71-2.37,5.47,5.47,0,0,0-4.74,2.37,11.09,11.09,0,0,0-1.68,6.51A11.38,11.38,0,0,0,200,227.4a5.43,5.43,0,0,0,4.74,2.43,5.36,5.36,0,0,0,4.71-2.43A11.54,11.54,0,0,0,211.14,220.83Z"/><path class="cls-3" d="M244,237.51a21,21,0,0,1-7.56-1.23,14.06,14.06,0,0,1-5.25-3.42,13.65,13.65,0,0,1-3.06-5.22,21.44,21.44,0,0,1-1-6.69V199.5a2.84,2.84,0,0,1,4-2.58l3.69,1.69a2.84,2.84,0,0,1,1.65,2.58v19a14.08,14.08,0,0,0,.57,4.29,7.89,7.89,0,0,0,1.56,2.88,5.55,5.55,0,0,0,2.4,1.59,9.5,9.5,0,0,0,3.09.48,7.56,7.56,0,0,0,5.55-2.1q2.13-2.1,2.13-7.14v-19a2.84,2.84,0,0,1,1.65-2.58l3.69-1.69a2.84,2.84,0,0,1,4,2.58v21.44a21.15,21.15,0,0,1-1,6.72,13.77,13.77,0,0,1-3.12,5.25,14,14,0,0,1-5.34,3.39A22.13,22.13,0,0,1,244,237.51Z"/><g id="_68-food_-_egg" data-name="68-food - egg"><path class="cls-2" d="M166.19,1.5C132.35-8.22,91.48,30.7,78.53,75.82s6.91,79.37,40.76,89.09,68.85-8.77,81.8-53.9S200,11.22,166.19,1.5Zm-44,153.2c-28.2-8.1-44.81-36.47-33.47-76s46.32-75.13,74.52-67,38.95,56.88,27.62,96.36S150.42,162.8,122.21,154.7Z"/></g><circle class="cls-2" cx="133.05" cy="52.38" r="7.56" transform="translate(45.99 165.81) rotate(-73.98)"/><circle class="cls-2" cx="167.31" cy="62.21" r="7.56" transform="translate(61.35 205.86) rotate(-73.98)"/><path class="cls-3" d="M139.85,133.23l-7.25,1.85a9,9,0,0,1-8.78-2.52l-5.16-5.42a4.14,4.14,0,0,0-7,1.72l-1.62,5.64a4.14,4.14,0,0,0,5,5.16l7.25-1.85a9,9,0,0,1,8.78,2.52l5.16,5.42a4.14,4.14,0,0,0,7-1.72l1.62-5.64A4.14,4.14,0,0,0,139.85,133.23Z"/><ellipse class="cls-2" cx="135.24" cy="167" rx="51.62" ry="5.38"/><path class="cls-2" d="M143.33,106.66a25.4,25.4,0,0,1-7-1c-12-3.46-17.11-14-18.78-17.44l-.13-.28a4,4,0,1,1,7.2-3.49l.14.3c1.42,2.94,5.17,10.75,13.78,13.22,8.21,2.36,15.64-2.09,18.44-3.77l.67-.4a4,4,0,1,1,4,6.95l-.53.31C158.47,102.63,151.73,106.66,143.33,106.66Z"/></g></g></svg>