<?xml version="1.0" encoding="utf-8"?>
<!-- Generator: Adobe Illustrator 21.1.0, SVG Export Plug-In . SVG Version: 6.00 Build 0)  -->
<svg version="1.1" id="Layer_1" xmlns="http://www.w3.org/2000/svg" xmlns:xlink="http://www.w3.org/1999/xlink" x="0px" y="0px"
	 viewBox="0 0 799 395" style="enable-background:new 0 0 799 395;" xml:space="preserve">
<style type="text/css">
	.st0{fill:#E3E0D6;}
</style>
<g>
	<path class="st0" d="M291.6,22c-13,4.4-22.2,9.7-22.1,21.3c0,5,2.8,8.4,6.8,10L291.6,22z M211.1,139c0-2.3,1.6-4.3,3.6-4.6
		c20.3-3.4,27.5-11,33.8-23.9l24.2-49.7c-0.8-0.5-1.7-0.8-2.5-1.4c-5-2.9-7.9-8.4-8-14.8c-0.1-20.7,19.7-27.7,34.1-32
		c4.6-8,8.9-11.4,14.9-12.4c3.6-0.6,7.4,1.3,7.5,6.1c0.1,7.4-8.3,10.1-17.9,12.9c-0.6,1.2-1.2,2.4-1.9,3.9L282,57.5
		c-0.2,0.4-0.3,0.8-0.7,1.2l-26.4,54.5c-8.7,17.6-19.6,25.4-40.2,28.9C212.7,142.5,211.1,141,211.1,139L211.1,139z"/>
	<path class="st0" d="M296.5,107.2c-1.7-2.9-1.5-6.9,0.4-11.1l7.5-15.4c1.9-3.9,1.9-6.2,1.4-7.1c-0.6-0.8-1.7-0.9-3.3-0.7
		c-10.5,1.8-21.9,24.7-30.2,41.6l0,0.2c-1.1,1.8-3.3,2.9-5,2.1c-1.7-0.7-2.4-3-1.4-5l20.6-42.2c1-2,3.3-3,5-2.2
		c0.8,0.4,1.4,1.1,1.6,1.9c3.1-2.3,6.1-3.8,9.3-4.4c4.3-0.7,7.8,0.5,9.5,3.7c1.5,2.3,2.6,6.9-1.2,14.9L303.2,99
		c-0.7,1.5-0.9,2.6-0.4,3.2c0.3,0.6,1.6,1.2,4.1,0.8c4.6-0.8,8.4-8.4,12.8-17.5c1-2,3.2-3,5-2.2c1.7,0.8,2.4,3,1.4,5
		c-5.2,10.9-10.3,21.2-19.1,22.6C302.1,111.8,298.4,110.4,296.5,107.2"/>
	<path class="st0" d="M343.6,86.3c4.7-9.5,4.3-17.9,1-19.6c-0.7-0.4-1.4-0.5-2.3-0.3c-5.2,0.9-10.6,8.4-12.9,13
		c-4.8,9.5-4.4,17.8-1,19.5c0.7,0.4,1.4,0.5,2.3,0.3C334,98.5,339.4,94.3,343.6,86.3L343.6,86.3z M352.6,84.1
		c-2.8,5.5-3.1,9.3-2.2,10.8c0.1,0.2,0.5,0.9,2.3,0.6c4.6-0.8,8.3-8.6,12.8-17.7c1-2,3.2-3,4.9-2.3c1.8,0.8,2.4,3.1,1.4,5.1
		c-5.2,10.9-10.2,21.1-19,22.6c-3.9,0.6-7-0.7-8.7-3.5c-0.1-0.3-0.3-0.8-0.5-1.1c-4.1,4.7-8.6,7.7-12.8,8.4
		c-2.3,0.4-4.3,0.1-6.2-0.8c-7.4-3.8-8-16.9-1.5-30c4.1-7.9,9.9-14.1,15.7-16.6c3.5-1.6,6.8-1.6,9.6-0.3c2.5,1.2,4.2,3.8,5.2,6.8
		l20.1-41.2c1-2,3.3-3,5-2.3c1.7,0.8,2.4,3.1,1.4,5.1L352.6,84.1z"/>
	<path class="st0" d="M388.4,42.6c-5.8,1-5.9-8.8-0.1-9.8C394.3,31.8,394.4,41.6,388.4,42.6 M391.1,77.4
		c-5.3,10.9-10.5,21.2-19.2,22.7c-3.8,0.6-6.9-0.7-8.6-3.6c-2.4-4.1-1.7-10.8,2.2-18.4l11.5-23.4c0.9-2,3.2-3.1,5-2.3
		c1.7,0.8,2.3,3.2,1.4,5.3l-11.5,23.3c-2.8,5.5-3.1,9.3-2.3,10.7c0.3,0.3,0.7,1,2.3,0.7c4.7-0.8,8.4-8.6,12.9-17.7
		c0.9-2,3.2-3,4.9-2.3C391.3,73.1,392.1,75.4,391.1,77.4"/>
	<path class="st0" d="M392.3,72.9c12.3-3.5,17.4-11,18.3-14.8c0.3-1.5,0.1-2.5-0.2-2.6c-0.9-0.3-1.8-0.4-3-0.2
		C400.6,56.4,394.4,66.1,392.3,72.9 M385.6,90.2c-4-6.7-1.3-17.4,2.4-25.2c2.9-5.9,7-10.9,11.7-14.3c5-3.5,10.1-4.4,14.2-2.6
		c3.3,1.6,4.8,5.9,3.6,10.9c-2,8.6-11.1,18.5-26.7,22.2c0,1.6,0.4,3,0.9,4.1c1.4,2.2,4.4,2.9,8.9,2.2c7.9-1.3,16.2-10.4,20.5-19
		c1-2.1,3.2-3.1,4.9-2.3c1.8,0.8,2.4,3,1.4,5.1c-5.2,10.6-15.6,22-26.8,23.9C391.6,96.8,387.4,93.3,385.6,90.2"/>
	<path class="st0" d="M29,331.7c-17.1,3.7-30.8-25-28.8-66.9c1-23.5,3.6-43.1,8.5-68.2c14.5-73.7,28.7-100.8,40-107.8
		c13.5-8.6,22.7,11.5,22.7,13.4c0,3-1.6,7.2-4.9,15.2c-20.2,50.1-27.3,97.8-29.6,147.8C61.2,215.6,79,141.3,77.9,143
		c1.9-3.8,11.8-10.6,17.3-11.8c35.6-7.7-9.4,49.3,6.5,140.4c25.1-45.5,45.7-118.6,45.2-210.7c0-6.5,1.3-12.1,13.2-14.7
		c12.1-2.6,18,11.7,19,35.2c2.8,68.4-33.9,213.2-69.6,242.7c-6,5.1-12.1,6.8-17.9,4.3c-18.5-8.2-22.3-34.8-25.4-50.2
		c-6.8,15.2-20.2,48.6-37.8,52.4L29,331.7z"/>
	<path class="st0" d="M225.8,209.5c-10.1-14.2-34.5,24.4-35.3,51.8c-0.8,27,11.2,21.5,14.6,18.1
		C216.4,267.8,234.3,220.9,225.8,209.5L225.8,209.5z M222.4,183.4c19.2-1.3,27.6,12.4,28.6,31c1.7,33.1-19.8,82.8-44.6,95.1
		c-5.7,2.7-11.4,3.7-17.1,2c-6.3-1.8-24-12.8-23-45.7c1.5-49.2,31.5-80.8,55.9-82.6L222.4,183.4z"/>
	<path class="st0" d="M280.5,242.6c1.2-0.2,11-7.1,15.4-11.1c10.3-9.2,25.9-28.6,18.1-37.8c-1.9-2.1-10-4.6-13.3-4.1
		c-1.4,0.2-2.4,1.9-4.4,7.1c-0.6,1.4-16.8,46.1-16.2,46L280.5,242.6z M328.1,276.1c0.9,8.4-7.6,16.1-11.3,16.5
		c-1,0.2-3.5-0.7-5.3-1.9c-16-10.2-41.9-8-42.7-7.2c-2.2,1.5-1.7,16.7-8.2,17.8c-2.4,0.4-13.5-4.3-13.6-14.3c0-5.2,2.1-13.7,6.9-30
		c20.5-70.7,26.7-58.9,12.5-56.5c-5.3,0.9-9.1-14.8-5.4-19.2c3.8-4.4,20.3-10.6,37.2-12.2c21.2-1.8,43.3,3.6,43.4,29.4
		c0.2,32.9-34.9,57.2-40.4,60.3C320.8,262.7,327.4,269.5,328.1,276.1L328.1,276.1z"/>
	<path class="st0" d="M379.7,133c9.4-1.6,14.9,6,15,11.7c0,3.1-2.2,9.5-15.4,47.6c-8,23.2-15,46.8-17.3,59
		c-4.9,26.8,3.9,34.3-8.3,34.6c-12.2,0.1-17.2-8-17.9-21c-1.4-28.1,17.8-78.1,30.9-111.3c7.2-18.5,7.8-19.7,13.3-20.6L379.7,133z"/>
	<path class="st0" d="M408,240.7c5.7-7.9,26.6-48.8,26.6-52.1c0-1.5-4.5-4-6.5-3.7c-18.5,3.6-40.6,84.1-20.2,55.8L408,240.7z
		 M485.5,57.6c4.3-0.1,12.5,3.6,12.5,7.1c0,0-57,170-59.5,200.8c-0.4,6.4-1,6.7-6.7,7c-11.6,0.6-15.5-6.1-17-15.7
		c-7.9,8.8-15,13.4-20.9,14.7c-12.8,2.6-19.9-10.9-17.6-32c3.5-30.9,21-67.7,42.1-73.7c7.5-2.1,15.3-0.6,23.3,6.3
		c14-36.2,37-114.7,44.4-114.6L485.5,57.6z"/>
	<path class="st0" d="M573.3,106.5c6.9-2.7,16.8,3.7,11.9,34.9c-2.5,16.6-21.5,99.9-46.1,113c-3.5,1.9-6.7,2.4-10.4,1.1
		c-18-6.4-15.5-34.3-13.6-55.6l-4.8,10.6c-15.3,33.1-27.2,44.8-35.8,45.5c-10.4,1.1-15.8-13.5-15.9-25.3
		c-0.3-38.2,25.1-83.5,26.5-84.8c3.2-2.9,15.5-0.9,15.5,3.9c0,0.9-29.6,85.3-17.5,71.9c5.9-6.2,26.1-55.3,39.9-95.1
		c17.3-3.3,18.5-4.4,16.6,37.6c0,1.3-4.1,57.5-2.9,57.3c4.3-0.7,30.5-72.2,30.3-106C566.8,111.8,569.6,107.8,573.3,106.5"/>
	<path class="st0" d="M630.1,67.5c7.7-1.3,10.4,5.2,10.1,14c-0.7,18.5-15.2,47.1-27.5,36.1c-11.3-10.1,0.9-47.5,17.2-50.3
		L630.1,67.5z M606.9,127.1c12.4-4.7,17.1,0.4,17.6,10.4c0.7,19.5-14.9,58-23.9,83.1c-9.6,26.5-11,28.7-15.3,24.4
		c-5.1-4.8-7.2-13.2-7.3-23c-0.4-35.7,25.3-93.3,29.1-94.6L606.9,127.1z"/>
	<path class="st0" d="M652,199.6c5.7-7.9,26.6-48.8,26.6-52.1c0-1.5-4.5-4-6.5-3.7c-18.5,3.6-40.6,84.1-20.2,55.8L652,199.6z
		 M707.9,81.5c4.3-0.1,12.5,3.6,12.5,7.1c0,0-35.4,105.1-37.8,135.8c-0.4,6.4-1,6.7-6.7,7c-11.6,0.6-15.5-6.1-17-15.7
		c-7.9,8.8-15,13.4-20.9,14.6c-12.8,2.6-19.9-10.9-17.6-32c3.5-30.9,21-67.7,42.1-73.7c7.5-2.1,15.3-0.6,23.3,6.3
		c14-36.2,15.4-49.7,22.7-49.7L707.9,81.5z"/>
	<path class="st0" d="M773.6,112.6c-10.4-0.7-41.8,35.2-38.5,35.3c0.2,0,1.8-0.3,3.5-0.8c17.3-4.9,41.2-34.2,35.5-34.6L773.6,112.6z
		 M773.2,166.4c6.3-8.9,12.2-4.5,12.5,5.5c0.3,11.1-6.5,28.6-28.3,41.7c-11.4,6.9-19.9,8.6-31.6,6.2c-18.2-3.9-26.7-19.8-26.4-39.2
		c0.4-32.2,23.8-74.5,64.9-91.3c21.2-8.6,31.4,0.2,32.1,15.1c0.7,16.7-10.5,40.9-31.6,58.2c-30.6,24.8-42.6,6.5-39.2,18.6
		c2.9,10.9,28.4,12.7,47.4-14.7L773.2,166.4z"/>
	<path class="st0" d="M52.2,338.8c92.5,49.9,357.4-43.1,537.1-63.6c189-21.5,234.8,20.1,197.9,65.1c-3.5-19.7-0.9-54.1-152.5-35.5
		c-151.7,18.6-353.7,92.8-500.4,89.7C29.8,392.4,25.1,352,52.2,338.8"/>
</g>
</svg>
