<svg xmlns="http://www.w3.org/2000/svg" viewBox="0 0 803.25 240"><defs><style>.cls-1,.cls-2{fill:#fff}.cls-2{font-size:86px;font-family:Courier-Bold,Courier;font-weight:700}</style></defs><title>Asset 2</title><g id="Layer_2" data-name="Layer 2"><path class="cls-1" d="M528.71 15.22A15.22 15.22 0 0 0 513.49 0H290.26A15.22 15.22 0 0 0 275 15.22v149.67h253.71zm-25.37 124.3H300.41V25.37h202.94zm25.37 38.05H275c-2.5 4.72-25.37 58.12-25.37 63.39a12.71 12.71 0 0 0 12.71 12.71h279A12.71 12.71 0 0 0 554.08 241c0-5.31-22.87-58.71-25.37-63.43zM373.61 241l5.92-12.68h44.68l5.93 12.68z" id="Layer_1-2" data-name="Layer 1"/></g></svg>