<svg xmlns="http://www.w3.org/2000/svg" viewBox="0 0 595.44 477.78"><defs><style>.cls-1{fill:#0074ff;}.cls-2{fill:none;stroke:#000;stroke-miterlimit:10;}.cls-3{font-size:36px;font-family:MyriadPro-Regular, Myriad Pro;}.cls-4{letter-spacing:0em;}.cls-5{letter-spacing:0em;}.cls-6{letter-spacing:-0.01em;}.cls-7{letter-spacing:0em;}</style></defs><title>Body</title><g id="Layer_2" data-name="Layer 2"><g id="Layer_1-2" data-name="Layer 1"><path class="cls-1" d="M222.85,340.28a62.5,62.5,0,1,1,62.5-62.5A62.57,62.57,0,0,1,222.85,340.28Z"/><path d="M222.85,215.78a62,62,0,1,1-62,62,62.07,62.07,0,0,1,62-62m0-1a63,63,0,1,0,63,63,63,63,0,0,0-63-63Z"/><path d="M222.35,86.78h-4q-3.76.08-7.48.3h0l-.3,0h-.22l.06,1c3.95-.25,8-.37,11.93-.37v-1Zm-23.94,1.49q-2.71.34-5.4.76h-.1l-.18,0h-1l-.14,0h-.16l-.28,0h0q-2.33.38-4.64.82l.19,1c3.89-.74,7.86-1.36,11.79-1.86l-.12-1Zm-23.56,4.48q-2.44.63-4.86,1.32h0l-.07,0h0l-.27.08h0l-.06,0h0l-.19.06h0l-.06,0h0l-.06,0h0l-.12,0h0l-.05,0h-.11l-.17,0h-.2l-.06,0-.05,0h-.2l-.07,0h0l-.05,0H168l-.06,0h0l-.08,0h0l-.05,0h-.12l-.07,0h0l-.07,0h0l-.05,0h0l-.06,0h0l-.08,0h0l-.06,0h0l-.05,0h0l-.06,0h0l-.08,0h0l-.05,0h0l-.05,0h0l-.08,0h0l-.05,0h-.2l-.07,0h-.25l-.07,0h-.25l-.13,0h0l-.05,0h0l-.06,0h0l-.19.06h0l-.06,0h0l-1.74.56.31,1c3.77-1.23,7.62-2.35,11.46-3.33l-.25-1ZM152,100.18l-1.09.44h0l-.07,0h0l-.19.08h0l-.06,0h0l-.17.07h0l0,0h0l0,0,0,0,0,0-.06,0h0l0,0h0l-.05,0h0l-.08,0h0l-.07,0h0l-.06,0h0l-.16.07h0l-.07,0h0l-.25.1h0q-4.11,1.71-8.13,3.61l.43.9c3.58-1.69,7.27-3.29,10.95-4.76l-.37-.93Zm-21.68,10.25q-5.26,2.91-10.31,6.13l.54.84c3.34-2.13,6.79-4.18,10.26-6.1l-.48-.88Zm-20.22,12.9-.53.39h0l-.22.16h0l-.06,0h0l-.07.05h0l-.06,0,0,0,0,0,0,0-.05,0,0,0,0,0,0,0,0,0,0,0,0,0-.06,0,0,0,0,0,0,0,0,0,0,0-.14.1,0,0,0,0h0l-.16.12h0l-.05,0h0l-.22.17h0l-2.16,1.65h0l-.22.17h0l-.22.17h0l-.05,0h0l-.16.12h0l0,0h0l0,0h0l-.09.07,0,0,0,0,0,0,0,0,0,0-.06,0,0,0,0,0,0,0,0,0,0,0,0,0,0,0,0,0,0,0,0,0,0,0h0l-.06.05,0,0,0,0,0,0-.05,0h0l-.07.06h0l-.07.05h0l-.06.05h0l-.14.11h0l-.07.05h0q-1.46,1.17-2.9,2.37l.64.77c3-2.53,6.22-5,9.41-7.34l-.59-.81ZM91.69,138.65q-4.37,4.12-8.47,8.5l.73.68c2.71-2.89,5.54-5.74,8.42-8.46l-.69-.73ZM75.31,156.17q-3,3.67-5.86,7.48h0l-.17.22h0l-.12.16h0l0,0v0l0,0h0l-.08.1h0l0,0,0,0,0,0,0,0-.06.09h0l0,0,0,0,0,0,0,0,0,0,0,.06,0,0,0,0,0,0,0,0,0,0,0,.07h0l0,.06,0,0,0,.05v0l-.1.14h0l0,.06h0l-.11.15h0l-.05.07h0l-.05.07.81.59c2.32-3.21,4.78-6.38,7.3-9.44l-.77-.64ZM61.24,175.59h0l0,.05v0l0,.06v0l0,.07,0,0,0,0,0,0,0,0,0,0,0,.06,0,0,0,0,0,0,0,0,0,0v0l-.06.09v0l0,0v0l0,0v0l-.1.16h0l0,.06h0l-.15.24h0q-1.68,2.71-3.28,5.48h0l0,.06h0l-.1.18h0l0,.06h0l-.1.18h0l0,.05v0l0,.05h0l-.06.11h0l0,0v0l0,0v0l-.09.15,0,0,0,0,0,0,0,0,0,0,0,.06,0,0,0,0,0,0,0,0,0,0,0,0,0,.06,0,0,0,0,0,0,0,.05v0l0,.07v0l0,.06v0l0,.06h0l0,.08h0l0,.07v0l0,.06h0l-.09.16h0l0,.07h0l-.09.16h0l0,.08h0l-.41.74.88.48c1.9-3.47,3.94-6.93,6.06-10.28l-.85-.53Zm-11.52,21v0l0,.08,0,0,0,0,0,0,0,0,0,0,0,0,0,.07v0l0,0,0,0,0,0v0l0,.07h0l0,.07v0l0,.06v0l0,.07h0l0,.08v0l0,.07v0l0,.07h0l-.07.16v0l0,.07h0l-.07.16h0l0,.07h0l-.11.25h0l0,.07h0l-.08.17h0l0,.08h0l-.11.25h0l0,.08h0l-.07.17h0l0,.07h0l-.07.16h0l0,.07h0l0,.08h0l-.07.16v0l0,.07v0l-.07.16v0l0,.06v0l0,.07h0l0,.08v0l0,.06v0l0,.06v0l0,.08h0l0,.07v0l0,.05v0l0,.06v0l0,.07v0l0,0v0l0,0v0l0,.07v0l0,0,0,0,0,0,0,0,0,0,0,.07,0,0,0,0v0l0,0v0l-.07.16v0l0,0v0l0,.05h0l0,.11v0l0,.05v0l0,.05v0l-.08.18v0l0,.06h0l-.08.19h0l0,.06h0l-.11.26h0Q46,205,45.31,206.82h0l-.11.27h0l0,.06h0l-.07.18v0l0,0v0l0,0v0l0,.1v0l.93.37c1.45-3.69,3-7.37,4.71-11l-.91-.42ZM40.95,219q-.49,1.51-.95,3h0l0,.08h0l0,.08h0l0,.09h0l0,.08v0l0,.06v0l0,.08h0l0,.08v0l0,.06v0l0,.06v0l0,.08v0l0,.05v.16l0,.08v.26l0,.11v0l0,.06v0l0,.06v0l-.06.19h0l0,.06h0l-.08.27h0q-.38,1.3-.74,2.61h0l-.08.28h0l0,.07h0l0,.06h0l-.05.2v0l0,.06v0l0,.18V228l0,.08v.25l0,.06v0l0,.07v0l0,.06v0l0,.07v0l0,.09h0l0,.08h0l0,.08h0l-.4,1.54,1,.24c1-3.84,2.08-7.7,3.29-11.47l-1-.31Zm-5.87,23.25q-.43,2.32-.81,4.66h0v.07h0l0,.27v.6h0v.28l0,.18h0v.09h0q-.43,2.83-.78,5.68l1,.12c.48-3.94,1.09-7.91,1.81-11.8l-1-.18ZM32.18,266l0,.35h0v.08h0v.08h0v.08h0v.69h0v1.07h0v.22h0v.22h0v.07h0l0,.37h0v.07h0v.07h0v.38h0v.07h0V270h0v.07h0v.38h0v.07h0v.07h0l0,.45h0v.07h0v.07h0v.38h0v.07h0v.07h0v.45h0v.07h0v.14h0v.29h0v.3h0v.22h0v.38h0v.75h0v2.85h0v.3h0c0,.14,0,.27,0,.41h1v-.73c0-3.73.11-7.5.33-11.21l-1-.06Zm1.09,23.92-1,.07c.1,1.55.22,3.11.36,4.65h0l0,.37h0v.07h0l0,.29h0v.07h0v.07h0l0,.21h0v.15h0l0,.21h0v.14h0l0,.21h0v.14h0l0,.21h0v.16l0,.28v.08h0l0,.29h0v.07h0l0,.29h0v.07h0l0,.37h0c.13,1.14.26,2.26.41,3.39l1-.13c-.51-3.92-.9-7.92-1.16-11.88Zm3.06,23.66-1,.19,0,.09h0l0,.08h0l0,.18v.2l0,.08h0l0,.08v.89l0,.11v.25l0,.11h0v.16l0,.19v.18l0,.19v.18l0,.18v.18l0,.1v.24h0l0,.1v.25l0,.08v.57l0,.08h0l0,.07v.11l0,.07h0l0,.09h0l0,.08v0l0,.07h0l0,.18h0l0,.09h0l0,.08h0q.68,3,1.46,6l1-.25c-1-3.83-1.89-7.75-2.64-11.64Zm6,23.08-.95.31.36,1.07h0l.09.26h0l0,.07v0l0,.08h0l0,.08v0l0,.06v0l0,.05v0l0,.08v0l0,.06v0l0,0v.08l0,.07v0l0,0v0l0,0v0l0,0h0l0,.11v0l0,.05v0l0,.06h0l.07.19h0l0,.06h0l.09.27h0c.29.83.58,1.64.88,2.47h0l.1.27h0l0,.06h0l.07.19h0l0,.06v0l.07.19h0l0,.05v0l0,.05v0l.06.16v0l0,0v0l0,0v0l0,.07,0,0v0l0,0v0l0,.05v0l0,.08v0l0,.06v0l0,.06v0l.06.16v0l0,.07h0l.1.26h0q.6,1.57,1.23,3.13l.93-.37c-1.48-3.68-2.86-7.45-4.1-11.21Zm8.89,22.14-.9.43.82,1.69h0l.12.25h0l0,.07h0l.08.16v0l0,.06v0l0,.07h0l0,.08v0l0,.06v0l0,.06v0l0,.07v0l0,.05,0,0,0,0,0,0,0,.06,0,0,0,.05,0,0,0,0,0,0,0,0,0,.05,0,0,0,0,0,0,0,0v0l0,0h0l.06.11v0l0,0v0l0,.05h0l.06.11h0l0,.06v0l0,.06h0l.09.18h0l0,.06h0l.13.25h0l.13.25h0q1.28,2.5,2.63,5h0l.13.24h0l0,.06h0l.09.17v0l0,0v0l0,0v0l0,.09,0,0,0,0,0,0,0,0,0,0,0,0,.87-.49c-1.93-3.46-3.77-7-5.48-10.6Zm11.62,20.84-.84.54q2,3.14,4.15,6.19h0l.16.22v0l0,0h0l.11.16v0l0,0v0l.1.14,0,0,0,0,0,0,0,0,0,.05,0,0,0,0,0,0,0,0,0,0,0,.06,0,0,0,.05,0,0,0,0,0,0,0,.05h0l0,.07v0l0,.05,0,0,0,.05v0l0,.07h0l0,.06v0l0,.06h0l.05.07h0l0,.07v0l0,.06h0l.1.14h0l0,.06h0l.11.15h0l0,.07h0l.16.22h0l.16.22h0l.55.75h0l.81-.59c-2.35-3.19-4.63-6.5-6.77-9.83ZM77,398.88l-.77.64c1.1,1.31,2.21,2.6,3.34,3.88h0l0,0h0l.12.14,0,0,0,0,0,0,0,0,0,0,.05.06,0,0,0,0,0,0,0,0,0,0,0,0,0,.05,0,0,0,0,0,0,0,.05h0l.06.06h0l0,.05h0l.18.2h0q1.78,2,3.62,3.92l.72-.69c-2.73-2.87-5.4-5.87-7.95-8.91Zm16.43,17.3-.68.73.93.86h0l.21.19h0l.2.19h0l0,0h0l.15.13h0l0,0h0l.14.13h0l0,0h0l.14.13h0l0,0h0l0,0h0L95,419h0l0,0h0l.09.08h0l0,0,0,0,0,0,0,0,.13.12,0,0,0,0,0,0,0,0,0,0,.07.06,0,0,0,0,0,0,0,0,0,0,.05,0,0,0,0,0,0,0,0,0,0,0,0,0,0,0,0,0,0,0,0,0,0,0,0,0,.05,0,0,0,0,0,0,0,0,0,0,0,.06.05,0,0,0,0,0,0,0,0,0,0,.06.05h0l0,0,0,0,0,0,0,0,.06.06h0l.06,0,0,0,0,0,0,0,.13.11,0,0,0,0h0l.06.05h0l.07.06h0l.06,0h0l.06.05h0l.07.06h0l.07.06h0l.06.06h0l.14.12h0l.06.06h0l.14.12h0l.07.06h0l.14.12h0l.07.06h0l.21.18h0q1.57,1.34,3.16,2.65l.63-.77c-3.07-2.51-6.09-5.15-9-7.84Zm18.47,15.11-.58.81q1.31.94,2.63,1.86h0l.17.12h0l.05,0h0l.17.12h0l.05,0h0l.05,0h0l.16.11h0l0,0h0l.15.1,0,0,0,0,0,0,.14.1,0,0,0,0,0,0,0,0,0,0,.06,0,0,0,0,0,0,0,0,0,0,0,0,0,0,0,0,0,0,0,0,0,0,0,0,0,.07,0,0,0,0,0,0,0,0,0,0,0,.07,0,0,0,0,0,0,0,0,0,0,0,.07,0h0l.05,0,0,0,0,0,0,0,.06,0h0l.07,0,0,0,0,0,0,0,.06,0h0l.07,0h0l.05,0,0,0,.05,0h0l.07,0h0l.06,0h0l.05,0h0l.07,0h0l.06,0h0l.05,0h0l.07,0h0l.07,0h0l.06,0h0l.07,0h0l.07,0h0l.06,0h0l.06,0h0l.07,0h0l.06,0h0l.06,0h0l.15.1h0l.06,0h0l.15.1h0l.06,0h0l.07,0h0l.08,0h0l.06,0h0l.06,0h0l.08,0h0l.07,0h0l.07,0h0l.15.1h0l.07,0h0l.15.1h0l.07,0h0l.15.1h0l.07,0h0l.07,0h0l.15.1h0l.07,0h0l.16.1h0l.07,0h0l.16.1h0l.07,0h0l.16.1h0l.08,0h0l.23.15h0l.53-.85c-3.35-2.1-6.69-4.34-9.91-6.66ZM132.12,444l-.48.88,0,0h0l.05,0h0l.11.06h0l0,0h0l0,0h0l.09.05h0l0,0,0,0,0,0,0,0,0,0,0,0,.07,0,0,0,0,0,0,0,0,0,0,0,.06,0,0,0,0,0,0,0,0,0,0,0,0,0,.07,0,0,0,0,0,0,0,0,0h0l.07,0h0l.05,0,0,0,0,0h0l.07,0h0l.07,0h0l.05,0h0l.06,0h0l.07,0h0l.05,0h0l.05,0h0l.07,0h0l.06,0h0l.05,0h0l.07,0h0l.07,0h0l.05,0h0l.06,0h0l.08,0h0l.06,0h0l.06,0h0l.08,0h0l.07,0h0l.06,0h0l.15.08h0l.06,0h0l.06,0h0l.08,0h0l.06,0h0l.06,0h0l.08,0h0l.07,0h0l.05,0h0l.06,0h0l.07,0h0l.05,0h0l.06,0h0l.07,0h0l0,0h0l0,0h0l.07,0h0l.05,0,0,0,0,0,0,0,0,0,0,0,0,0,0,0,0,0,0,0,0,0,0,0,.07,0,0,0,0,0,0,0,0,0,0,0,0,0,.07,0,0,0,0,0h0l0,0h0l.09,0h0l0,0h0l.05,0h0l.17.09h0l.06,0h0l.25.12h0q2,1,4,1.92l.42-.91c-3.59-1.66-7.18-3.47-10.67-5.36Zm21.65,10-.36.93.7.27h0l.26.1h0l.09,0h0l.26.1h0l.26.1h0l.08,0h0l.17.06h0l.08,0h0l.08,0h0l.09,0h0l.08,0h0l.07,0h0l.17.06h0l.07,0h0l.08,0h0l.08,0h0l.07,0h0l.07,0h0l.17.06h0l.07,0h0l.07,0h0l.09,0h0l.08,0h0l.07,0h0l.16.06h0l.07,0h0l.07,0h0l.08,0h0l.07,0h0l.06,0h0l.07,0h0l.07,0h0l.06,0h0l.06,0h0l.08,0h0l.06,0h0l.05,0h0l.08,0h0l.08,0h0l0,0h0l.05,0h0l.08,0h0l.05,0h0l0,0h0l.06,0h0l.06,0h0l0,0h0l0,0h0l.07,0h0l0,0h0l0,0h0l0,0,.06,0,0,0h.2l.07,0H160l.08,0h0l0,0h0l0,0h0l.17.06h0l.05,0h0l.05,0h0l.12,0h0l.06,0h0l.06,0h0l.19.06h0l.06,0h0l.26.09h0l.07,0h0c1.06.36,2.12.7,3.19,1l.3-1c-3.78-1.2-7.56-2.53-11.26-4Zm22.74,7.21-.24,1q1.9.47,3.82.91h0l.09,0h0l.18,0h0l.09,0h0l.08,0h0l.18,0h0l.07,0h0l.08,0h0l.09,0h0l.08,0h.11l.07,0h0l.09,0h.2l.08,0h0l.08,0h.2l.08,0h.29l.08,0h.29l.08,0h.61l.08,0h.26l.11,0H184l.18,0h.17l.2,0h.09l.28.06H185l.29.06h0l2.72.52.18-1c-3.9-.71-7.82-1.55-11.67-2.51ZM200,465.48l-.12,1q3.42.4,6.89.68h.09l.28,0h2.48l.29,0H210l1.84.11.05-1c-4-.22-8-.56-11.89-1Zm35.76.84c-3.94.28-8,.43-11.93.46v1q2.17,0,4.33-.08h1.74q3-.12,5.93-.32l-.07-1Zm23.65-3.15c-3.88.77-7.84,1.42-11.77,1.95l.13,1h.19q5.88-.79,11.64-1.93l-.19-1Zm23.06-6.11c-3.76,1.26-7.6,2.41-11.43,3.42l.26,1h0l.09,0h0q2.91-.77,5.78-1.63h0l.35-.11h0l.26-.08h0l.09,0h0l.26-.08h0l.26-.08h0l.09,0h0l.27-.08h0q2-.62,4-1.29l-.32-.95Zm22.1-9c-3.57,1.72-7.24,3.35-10.91,4.84l.38.93h0l0,0,.06,0h0l0,0,0,0,0,0,0,0,.06,0,0,0,0,0,0,0,0,0,0,0,0,0,.07,0,0,0h0l0,0,0,0,0,0,.05,0,.05,0,0,0,0,0,0,0,0,0,0,0,.06,0,0,0,0,0,0,0,0,0,0,0h0l.07,0h0l0,0h0l0,0h0l.06,0,0,0,.05,0h0l0,0h0l.05,0h0l.07,0h0l.05,0h0l.05,0h0l.08,0h0l.06,0h0l.06,0h0l.07,0h0l.08,0h0l.05,0h0l.06,0h0l.08,0h0l.07,0h0l.06,0h0l.16-.07h0l.06,0h0l.16-.07h0l.07,0h0l.07,0h0l.08,0h0l.07,0h0l.07,0h0l.16-.07h0l.07,0h0l.08,0h0l.08,0h0l.08,0h0l.08,0h0l.17-.07h0l.07,0h0l.17-.07h0l.08,0h0l.08,0h0l.16-.07h0l.07,0h0l.16-.07h0l.07,0h0l.17-.07h0l.08,0h0l.07,0h0l.16-.07h0l.07,0h0l.16-.07h0l.07,0h0l.08,0h0l.08,0h0l.08,0h0l.06,0h0l.16-.07h0l.06,0h0l.07,0h0l.08,0h0l.06,0h0l.05,0h0l.07,0h0l.06,0h0l.05,0h0l.05,0,0,0,.06,0,0,0,0,0,0,0,0,0,0,0,0,0,.06,0,0,0,0,0h0l0,0h0l.1,0h0l.05,0h0l.05,0h0l.18-.08h0l.06,0h0l2-.95-.43-.9Zm20.79-11.7c-3.33,2.16-6.76,4.23-10.21,6.18l.49.87q3-1.68,5.91-3.46h0l.08,0h0l.16-.1h0l.07,0h0l.15-.09h0l.06,0h0l.06,0h0l.07,0h0l.06,0h0l.05,0h0l.07,0h0l.06,0,0,0,0,0,0,0,0,0,0,0,.05,0,0,0,0,0,0,0,0,0,0,0,.06,0,0,0,0,0,0,0,0,0,0,0,0,0,.08,0,0,0,0,0h0l0,0h0l.09-.05h0l0,0h0l0,0h0l.16-.1h0l0,0h0l.16-.1h0l.05,0h0l.17-.11h0l.05,0h0l.23-.15h0l.24-.15h0l.06,0h0l.24-.15h0l.24-.15h0l.43-.28-.54-.84Zm19.16-14.22c-3,2.56-6.18,5-9.36,7.41l.6.8q2.26-1.68,4.47-3.42h0l.07-.06h0l.14-.11h0l.06,0h0l.07-.05h0l.07-.06h0l.06,0h0l.05,0h0l.07-.05h0l.05,0,0,0,0,0,0,0,.06,0,0,0,0,0,0,0,0,0,0,0,0,0,0,0,0,0,0,0,0,0,0,0,0,0,.09-.07h0l0,0h0l0,0h0l.15-.12h0l.05,0h0c1.08-.87,2.13-1.74,3.19-2.63h0l0,0-.64-.76Zm17.24-16.5c-2.68,2.91-5.5,5.78-8.36,8.52l.69.72,1.51-1.46h0l0,0h0l.08-.08h0l0,0,0,0,0,0,0,0,0,0,0,0,0,0,0,0,0,0,0,0,0,0,.06-.06h0l0,0,0,0,.05-.05h0l.06-.06h0l.06-.06h0l.06-.06h0l.13-.13h0q1.39-1.39,2.76-2.8h0l.19-.19h0l.05-.06h0l.12-.13v0l0,0h0l.06-.06h0L360,409l0,0,0,0,0,0,0,0h0l.06-.06,0,0,0,0,0,0,0,0,0,0,0,0,0,0,0,0,0,0,0,0,.13-.13h0l0,0h0l.19-.2h0l1.63-1.75-.74-.68Zm15-18.52c-2.3,3.23-4.73,6.42-7.23,9.5l.78.63,0,0h0l.12-.14,0,0,0,0,0,0,0,0,0,0,0,0,0,0,0,0,0,0,0,0,0-.06h0l.06-.07h0l0-.06h0l.17-.21h0q3.37-4.2,6.5-8.6l-.81-.58Zm12.6-20.26c-1.87,3.49-3.89,7-6,10.33l.85.53q2.42-3.89,4.64-7.88h0l0-.05v0l0-.05h0l.05-.09,0,0,0,0,0,0,0,0,0,0v0l0-.07v0l0-.05v0l0-.07h0l.09-.16h0l.9-1.65-.88-.47Zm9.95-21.69c-1.42,3.7-3,7.4-4.63,11l.91.42c.42-.93.84-1.85,1.25-2.79h0l0-.06h0l.08-.19h0l0-.06v0l0-.06h0l.05-.12h0l0-.05v0l0-.05v0l.07-.16v0l0,0v0l0,0,0,0,0-.06,0,0,0,0,0,0,0,0,0,0v0l0-.07v0l0-.05v0l0-.05v0l0-.08h0l0-.07v0l0-.06v0l0-.08h0l0-.08v0l0-.06v0l0-.07h0l.07-.16h0l0-.07h0l.07-.17h0l0-.07v0l.1-.25h0l0-.08h0l.07-.17h0l0-.08h0l.11-.26h0q1-2.34,1.88-4.71l-.93-.36Zm7.12-22.77c-.94,3.85-2,7.72-3.2,11.5l1,.3q1.79-5.71,3.22-11.56l-1-.24Zm4.19-23.49c-.45,3.94-1,7.91-1.72,11.81l1,.18,0-.09h0v-.08h0l0-.27h0v-.08h0l0-.09h0l0-.18h0v-.18h0l0-.18h0v-.08h0l0-.18h0v-.09h0v-.07h0l0-.27h0v-.08h0l0-.27h0v-.08h0l0-.27h0v-.08h0l0-.27h0v-.09h0q.7-4.34,1.2-8.74l-1-.11Zm2.21-23.85h-1q0,1.09,0,2.18c0,3.25-.08,6.53-.25,9.76l1,.05c0-.46,0-.92.07-1.38h0v-.07h0V285h0V285h0q.13-3.24.15-6.51h0v-.22h0v-.45h0v-.46h0v-.46h0c0-.58,0-1.15,0-1.72Zm-1.76-23.92-1,.14c.54,3.92,1,7.92,1.25,11.87l1-.07v0h0c-.11-1.51-.24-3-.39-4.52h0v-.07h0l0-.21h0v-1l0-.17v-.18h0l0-.27h0v-.09h0q-.29-2.7-.66-5.38Zm-4.75-23.51-1,.26c1,3.82,1.95,7.73,2.73,11.62l1-.2q-.34-1.66-.7-3.31h0l0-.08h0l0-.18v0l0-.07v-.11l0-.08v-.33l0-.08v-.18l0-.19h0v-.06h0l-.06-.28h0q-.77-3.36-1.66-6.67Zm-7.69-22.72-.92.38c1.51,3.67,2.91,7.43,4.18,11.18l.95-.32q-1.87-5.52-4.06-10.89h0l-.07-.17h0l0-.08h0l0-.08Zm-10.5-21.57-.87.49c2,3.45,3.83,7,5.56,10.56l.9-.44q-.53-1.1-1.08-2.18h0l-.12-.24h0l0-.07v0l-.08-.15v0l0-.05v0l0-.05v0l0-.07v0l0,0,0,0,0,0,0,0,0-.07,0,0,0,0,0,0,0,0,0,0v0l0-.09v0l0,0v0l0-.05h0l-.09-.18h0l0-.06h0l-.13-.25h0q-1.08-2.08-2.2-4.13h0l-.1-.19h0l0-.06v0l0-.05h0l-.07-.12h0l0,0v0l0,0v0l-.05-.09h0l0,0,0,0,0,0,0,0,0,0,0-.07v0l0,0,0,0,0,0v0l-.08-.15h0l0-.06h0l-.13-.24h0l-.41-.73ZM375,163.31l-.8.6c2.37,3.17,4.68,6.46,6.84,9.78l.84-.55v0l0,0,0,0,0,0,0-.06,0,0,0,0,0,0,0,0,0,0-.1-.15v0l0,0v0l-.11-.17h0l0-.06h0l-.15-.23h0q-1.35-2-2.74-4h0l-.16-.23h0l0-.05h0l-.12-.17h0l0,0h0l-.11-.15,0,0,0,0,0,0,0,0v0l-.06-.08,0,0,0,0,0,0,0,0,0,0,0-.05,0,0,0,0,0,0,0,0,0,0,0,0,0-.06,0,0,0,0,0,0,0-.05v0l0-.07v0l0,0,0,0,0-.05v0l-.05-.07h0l0-.06v0l0-.06h0l-.1-.14h0l0-.06h0l-.11-.15h0l-.05-.07h0q-.82-1.14-1.66-2.26ZM359.48,145l-.72.69c2.75,2.85,5.45,5.83,8,8.85l.76-.65-.36-.43h0l-.18-.21h0l-.18-.2h0l-.05-.06h0l-.12-.14h0l0-.06h0l-.12-.13h0l-.05-.06h0l-.12-.13h0l0-.06h0l-.05-.06h0l-.06-.07h0l0-.05v0l0-.05h0l-.06-.07h0l0-.06,0,0,0-.05h0l-.06-.07h0l-.05-.06v0l0,0,0,0-.11-.13v0l0-.05v0l-.05-.06h0l-.06-.07h0l0-.05v0l-.05-.06h0l-.06-.07h0l0-.06h0L365,151h0l-.12-.13h0l-.05-.06h0l-.12-.13h0l0-.06h0l-.12-.13h0l-.05-.06h0l-.12-.13h0l-.06-.06h0l-.18-.2h0l-.18-.2h0q-2.13-2.37-4.35-4.66Zm-17.7-16.19-.63.78c3.08,2.48,6.13,5.1,9.06,7.78l.67-.74h0l0,0-.07-.06,0,0,0,0,0,0,0,0,0,0,0,0,0,0,0,0,0,0,0,0,0,0,0,0-.06-.05,0,0,0,0,0,0,0,0,0,0-.06-.05,0,0,0,0,0,0,0,0,0,0-.06-.06h0l-.05,0,0,0,0,0,0,0-.06-.06h0l-.06-.06,0,0,0,0,0,0-.06,0h0l-.06-.06,0,0,0,0,0,0-.05,0h0l-.06-.06,0,0,0,0,0,0,0,0h0L349,135h0l-.05,0,0,0,0,0,0,0-.06-.06h0l-.05,0,0,0,0,0,0,0-.06,0h0l-.05,0,0,0,0,0,0,0,0,0,0,0-.06-.05,0,0,0,0,0,0,0,0,0,0-.06-.05,0,0,0,0,0,0,0,0,0,0-.06-.05,0,0,0,0,0,0,0,0,0,0,0,0-.06-.05,0,0,0,0,0,0,0,0,0,0-.08-.07h0l0,0,0,0,0,0,0,0-.09-.08h0l0,0,0,0,0,0h0l-.14-.12h0l0,0h0l-.21-.18h0q-2.4-2.07-4.87-4.05ZM322.19,115l-.52.85c3.37,2.08,6.72,4.29,10,6.58l.58-.82,0,0,0,0,0,0,0,0-.08-.06h0l0,0,0,0,0,0h0l-.15-.1,0,0,0,0h0l-.15-.11h0l0,0h0l-.16-.11h0l0,0h0l-.05,0h0l-.17-.12h0l-.05,0h0l-.16-.11h0l0,0h0l-.16-.11h0l0,0h0l-.16-.11h0l0,0h0l0,0h0l-.11-.08h0l0,0h0l0,0h0l-.15-.1h0l0,0h0l-.15-.1,0,0,0,0,0,0,0,0,0,0-.07-.05,0,0,0,0,0,0,0,0,0,0-.06,0,0,0,0,0,0,0,0,0,0,0,0,0-.06,0,0,0,0,0,0,0,0,0,0,0-.06,0,0,0,0,0,0,0,0,0,0,0-.07,0h0l-.05,0,0,0,0,0,0,0-.06,0h0l-.07,0h0l-.05,0h0l-.06,0h0l-.07,0h0l-.06,0h0l-.06,0h0l-.07,0h0l-.07,0h0l-.06,0h0l-.15-.1h0l-.07,0h0l-.15-.1h0l-.07,0h0l-.23-.15h0l-.23-.15h0q-1.69-1.1-3.4-2.17h0l-.16-.1h0l-.07,0h0l-.16-.1h0l-.07,0h0l-.07,0h0l-.08,0h0l-.06,0h0l-.05,0h0ZM301,103.73l-.41.91c3.61,1.64,7.21,3.41,10.71,5.28l.47-.88q-4.25-2.26-8.63-4.32h0l-.07,0h0l-.16-.07h0l-.05,0h0l0,0,0,0-.06,0,0,0h0l0,0h0l-1.49-.68ZM278.6,95.22l-.29,1c3.78,1.17,7.58,2.47,11.29,3.88l.35-.93h0l-.05,0h0l-.06,0h0l-.07,0h0l0,0,0,0h0l0,0h0l-.1,0h0l-.06,0h0l-.06,0h0l-.27-.1h0q-5.11-1.91-10.35-3.52Zm-23.32-5.6-.17,1c3.91.68,7.84,1.49,11.69,2.42l.23-1-1.18-.28h0l-.09,0h0l-.18,0h0l-.09,0h0l-.27-.06h0l-.08,0h0l-.08,0h0l-.18,0h0l-.07,0h0l-.08,0h0l-.09,0h0l-.08,0h0l-.07,0h0l-.17,0h0l-.07,0H264l-.17,0h-.19l-.09,0h0l-.07,0h-.2l-.08,0h0l-.07,0H263l-.07,0h0l-.08,0h-.2l-.08,0h0l-.08,0h-.2l-.17,0h-.2l-.08,0h0l-.07,0h-.2l-.08,0h-.28l-.08,0h-.2l-.08,0h0l-.08,0h-.2l-.08,0h-.29l-.08,0h-.29l-.08,0h-.61l-.08,0h-.26l-.12,0h-.18l-.19,0h-.16l-.22,0h-.08l-2.55-.46ZM231.44,87l0,1c4,.19,8,.5,11.9.93l.11-1-.18,0h0l-.28,0h-.19l-.18,0h-7.28l-.28,0h0q-1.78-.12-3.57-.2Z"/><line class="cls-2" x1="222.35" y1="87.78" x2="222.35" y2="277.78"/><line class="cls-2" x1="221.85" y1="277.28" x2="32.85" y2="277.28"/><line class="cls-2" x1="517.85" y1="277.28" x2="221.85" y2="277.28"/><line class="cls-2" x1="222.35" y1="277.78" x2="222.35" y2="468.78"/><line class="cls-2" x1="517.83" y1="277.82" x2="497.83" y2="297.82"/><line class="cls-2" x1="518.35" y1="277.37" x2="498.35" y2="257.37"/><text class="cls-3" transform="matrix(0.31, -0.95, 0.95, 0.31, 28.72, 224.08)">V</text><text class="cls-3" transform="translate(34.86 205.97) rotate(-67.95)">i</text><text class="cls-3" transform="translate(37.82 198.42) rotate(-64.79)">s</text><text class="cls-3" transform="translate(43.82 185.85) rotate(-61.63)">i</text><text class="cls-3" transform="matrix(0.53, -0.85, 0.85, 0.53, 47.44, 178.7)">o</text><text class="cls-3" transform="matrix(0.61, -0.79, 0.79, 0.61, 57.66, 162.46)">n</text><text class="cls-3" transform="translate(69.82 147.09) rotate(-48.41)"> </text><text class="cls-3" transform="translate(74.49 141.52) rotate(-44.68)">R</text><text class="cls-3" transform="translate(88.21 128.01) rotate(-39.5)">a</text><text class="cls-3" transform="translate(101.13 117.24) rotate(-34.3)">d</text><text class="cls-3" transform="matrix(0.86, -0.5, 0.5, 0.86, 117.67, 106.19)">i</text><text class="cls-3" transform="translate(124.5 101.96) rotate(-26.38)">u</text><text class="cls-3" transform="translate(141.85 93.46) rotate(-21.63)">s</text><text class="cls-3" transform="matrix(0.43, -0.9, 0.9, 0.43, 150.09, 253.4)">B</text><text class="cls-3" transform="matrix(0.63, -0.77, 0.77, 0.63, 157.87, 236.82)">o</text><text class="cls-3" transform="translate(169.41 222.45) rotate(-36.73)">d</text><text class="cls-3" transform="translate(184.68 211.11) rotate(-23.74)">y</text><text class="cls-3" transform="translate(421.67 344.84)">O<tspan class="cls-4" x="24.8" y="0">r</tspan><tspan x="36.72" y="0">ie</tspan><tspan class="cls-5" x="63.18" y="0">n</tspan><tspan x="83.01" y="0">t</tspan><tspan class="cls-5" x="94.93" y="0">a</tspan><tspan x="112.14" y="0">tion</tspan></text><text class="cls-3" transform="translate(149.86 30.13)">O<tspan class="cls-6" x="24.8" y="0">r</tspan><tspan class="cls-7" x="36.29" y="0">ganism</tspan></text><line class="cls-2" x1="150.85" y1="32.28" x2="294.85" y2="32.28"/></g></g></svg>